/* XPM */
static char * box_half_xpm[] = {
"16 16 5 1",
" 	c None",
".	c #FFFFFF",
"+	c #000000",
"@	c #E1E1E1",
"#	c #AFAFAF",
"................",
"................",
"..++++++++++++..",
"..+@@@@@@@@@#+..",
"..+@@@@@@@@##+..",
"..+@@@@@@@###+..",
"..+@@@@@@####+..",
"..+#@@@@####@+..",
"..+##@@####@@+..",
"..+#######@@@+..",
"..+######@@@@+..",
"..+@####@@@@@+..",
"..+@@##@@@@@@+..",
"..++++++++++++..",
"................",
"................"};
