/* XPM */
static char * btn_edit32_xpm[] = {
"32 32 452 2",
"  	c None",
". 	c #D4D4D4",
"+ 	c #D5D5D5",
"@ 	c #B3B3B3",
"# 	c #949494",
"$ 	c #767676",
"% 	c #5D5D5D",
"& 	c #464646",
"* 	c #343434",
"= 	c #272727",
"- 	c #3D3D3D",
"; 	c #AEAEAE",
"> 	c #939394",
", 	c #2D2D2D",
"' 	c #030303",
") 	c #919191",
"! 	c #A0A0A0",
"~ 	c #6D6D6D",
"{ 	c #404040",
"] 	c #181818",
"^ 	c #020202",
"/ 	c #191919",
"( 	c #3D3C3C",
"_ 	c #5E5D5D",
": 	c #7A7877",
"< 	c #94918F",
"[ 	c #A8A5A1",
"} 	c #B7B2AC",
"| 	c #88847F",
"1 	c #0C0C0B",
"2 	c #A2A2A2",
"3 	c #6E7B86",
"4 	c #0F73C7",
"5 	c #123D5F",
"6 	c #000000",
"7 	c #171717",
"8 	c #C6C6C6",
"9 	c #777777",
"0 	c #313131",
"a 	c #040404",
"b 	c #2A2929",
"c 	c #636263",
"d 	c #979596",
"e 	c #C4C2C4",
"f 	c #F0EDEF",
"g 	c #FFFCFE",
"h 	c #FFFCFD",
"i 	c #FFFBFA",
"j 	c #FFFAF7",
"k 	c #FFFAF4",
"l 	c #FFF9F1",
"m 	c #FFF8EE",
"n 	c #FFF7EA",
"o 	c #A8A299",
"p 	c #101010",
"q 	c #CFCFCF",
"r 	c #5E707F",
"s 	c #1683DE",
"t 	c #37A6FF",
"u 	c #58B7FD",
"v 	c #315165",
"w 	c #5C5C5C",
"x 	c #3F3F3F",
"y 	c #070707",
"z 	c #504F4F",
"A 	c #A19FA0",
"B 	c #E8E5E7",
"C 	c #FFF9F4",
"D 	c #FFF9F0",
"E 	c #FFF8ED",
"F 	c #FFF6E7",
"G 	c #FFF5E4",
"H 	c #59564F",
"I 	c #555555",
"J 	c #627380",
"K 	c #1D89E2",
"L 	c #3FABFF",
"M 	c #61BDFF",
"N 	c #83CFFF",
"O 	c #648A9E",
"P 	c #C0C0C0",
"Q 	c #7E7E7E",
"R 	c #0B0A08",
"S 	c #413B2E",
"T 	c #1C1B1B",
"U 	c #E7E4E6",
"V 	c #FFFCFC",
"W 	c #FFFBF9",
"X 	c #FFFAF6",
"Y 	c #FFF9F3",
"Z 	c #FFF8F0",
"` 	c #FBF1E0",
" .	c #F6EBD8",
"..	c #E0D6C2",
"+.	c #090908",
"@.	c #5C666F",
"#.	c #2488D9",
"$.	c #48AFFF",
"%.	c #6AC2FF",
"&.	c #8BD4FF",
"*.	c #7AA6BB",
"=.	c #A4A5A5",
"-.	c #C9B68A",
";.	c #FFEBBF",
">.	c #585348",
",.	c #595859",
"'.	c #E8E3E0",
").	c #B8B4AF",
"!.	c #908D88",
"~.	c #6A6763",
"{.	c #4B4845",
"].	c #2D2C29",
"^.	c #151413",
"/.	c #49463F",
"(.	c #FFF2DA",
"_.	c #52534F",
":.	c #2982CA",
"<.	c #50B4FF",
"[.	c #72C6FF",
"}.	c #94D8FF",
"|.	c #88B3C5",
"1.	c #949697",
"2.	c #444444",
"3.	c #7B6F54",
"4.	c #FFEABD",
"5.	c #E4D6B9",
"6.	c #857F74",
"7.	c #DBD8DA",
"8.	c #9B9A9A",
"9.	c #575655",
"0.	c #1D1C1C",
"a.	c #272624",
"b.	c #504D4A",
"c.	c #76726C",
"d.	c #979187",
"e.	c #B4ADA0",
"f.	c #CDC4B3",
"g.	c #E2D7C3",
"h.	c #F4E8D0",
"i.	c #BDB4A1",
"j.	c #3079B2",
"k.	c #58B8FF",
"l.	c #7ACBFF",
"m.	c #9CDDFF",
"n.	c #8CB4C2",
"o.	c #919394",
"p.	c #0D0D0D",
"q.	c #4E4738",
"r.	c #2B2821",
"s.	c #050504",
"t.	c #2B2B2B",
"u.	c #797879",
"v.	c #F3F0F2",
"w.	c #484748",
"x.	c #060606",
"y.	c #3C3B3A",
"z.	c #83807D",
"A.	c #C0BBB6",
"B.	c #F1EAE2",
"C.	c #F2EBE0",
"D.	c #C6C0B5",
"E.	c #9F9A90",
"F.	c #7B766D",
"G.	c #5D5951",
"H.	c #413E38",
"I.	c #292723",
"J.	c #161513",
"K.	c #2C648E",
"L.	c #82CFFF",
"M.	c #A4E1FF",
"N.	c #8BADB9",
"O.	c #989A9A",
"P.	c #1F1F1F",
"Q.	c #5E5E5E",
"R.	c #9C9C9C",
"S.	c #D7D7D7",
"T.	c #9F9F9F",
"U.	c #232323",
"V.	c #FEFBFD",
"W.	c #9A9897",
"X.	c #E5E1DE",
"Y.	c #E9E5E0",
"Z.	c #A19D99",
"`.	c #605D5A",
" +	c #292826",
".+	c #191816",
"++	c #403D38",
"@+	c #656158",
"#+	c #847E72",
"$+	c #A19988",
"%+	c #A29987",
"&+	c #2F5671",
"*+	c #69C1FF",
"=+	c #ADE6FF",
"-+	c #809DA5",
";+	c #A3A4A4",
">+	c #0B0B0B",
",+	c #D3D0CF",
"'+	c #D2CECC",
")+	c #464544",
"!+	c #373533",
"~+	c #7B7771",
"{+	c #B5AEA4",
"]+	c #E7DECF",
"^+	c #FFF4E2",
"/+	c #FFF4DF",
"(+	c #FFF3DB",
"_+	c #F5E8D0",
":+	c #D6CBB3",
"<+	c #516A79",
"[+	c #70C3FB",
"}+	c #93D8FF",
"|+	c #B5EAFF",
"1+	c #7C9293",
"2+	c #D0D0D0",
"3+	c #454545",
"4+	c #8C8987",
"5+	c #DEDAD5",
"6+	c #888480",
"7+	c #E4DDD4",
"8+	c #FFF7EB",
"9+	c #FDF4E6",
"0+	c #D3CBBD",
"a+	c #9E988C",
"b+	c #6C675E",
"c+	c #1A1916",
"d+	c #010101",
"e+	c #1A2F3E",
"f+	c #76C3F5",
"g+	c #9BDDFF",
"h+	c #BBECFD",
"i+	c #788684",
"j+	c #D7C7A4",
"k+	c #3E392E",
"l+	c #898989",
"m+	c #828282",
"n+	c #4A4947",
"o+	c #F9F2E8",
"p+	c #AFA9A1",
"q+	c #5A5752",
"r+	c #141412",
"s+	c #0D0D0C",
"t+	c #3F3C37",
"u+	c #726C61",
"v+	c #9F9786",
"w+	c #B9AE9A",
"x+	c #4C5D66",
"y+	c #7DC5F2",
"z+	c #C1EEFA",
"A+	c #76807B",
"B+	c #E4D2AD",
"C+	c #8B8067",
"D+	c #B9B9B9",
"E+	c #111110",
"F+	c #FCF5EB",
"G+	c #686560",
"H+	c #23221F",
"I+	c #C6BEAF",
"J+	c #FAEFDA",
"K+	c #FFF2DB",
"L+	c #FFF2D7",
"M+	c #E2D5BC",
"N+	c #586F7A",
"O+	c #86CCF5",
"P+	c #ACE6FF",
"Q+	c #C8F2FA",
"R+	c #767E77",
"S+	c #EAD8B2",
"T+	c #FFEABB",
"U+	c #D7C59C",
"V+	c #080808",
"W+	c #D4CDC2",
"X+	c #F0E7D9",
"Y+	c #FDF3E2",
"Z+	c #FFF4E0",
"`+	c #FFF3DD",
" @	c #EFE2C7",
".@	c #212322",
"+@	c #7EBADC",
"@@	c #B4EAFF",
"#@	c #D1F9FE",
"$@	c #78827B",
"%@	c #EBD8B2",
"&@	c #FFEBBE",
"*@	c #FFE9B8",
"=@	c #FFE8B5",
"-@	c #201D16",
";@	c #A7A7A7",
">@	c #383838",
",@	c #9F998F",
"'@	c #FFF5E3",
")@	c #FFF1D7",
"!@	c #FFF1D4",
"~@	c #5A554A",
"{@	c #151B1D",
"]@	c #B7D8DB",
"^@	c #83938F",
"/@	c #E0CEA9",
"(@	c #FFEABE",
"_@	c #FFE8B4",
":@	c #FFE7B1",
"<@	c #655B45",
"[@	c #686868",
"}@	c #676767",
"|@	c #6C6760",
"1@	c #FFF1D6",
"2@	c #FFF0D3",
"3@	c #A79D89",
"4@	c #181A19",
"5@	c #C0B191",
"6@	c #FFEABA",
"7@	c #FFE9B7",
"8@	c #FFE6AE",
"9@	c #A79670",
"0@	c #2E2E2E",
"a@	c #929292",
"b@	c #3D3A35",
"c@	c #FFF3DC",
"d@	c #FFF2D9",
"e@	c #E3D5B9",
"f@	c #12100E",
"g@	c #29261F",
"h@	c #D0BF9C",
"i@	c #FFE9BA",
"j@	c #FFE5AA",
"k@	c #E7CF98",
"l@	c #040403",
"m@	c #BCBCBC",
"n@	c #100F0E",
"o@	c #FDF1D8",
"p@	c #82785B",
"q@	c #56503E",
"r@	c #625B4B",
"s@	c #F4E1B7",
"t@	c #FFE8B7",
"u@	c #FFE8B3",
"v@	c #FFE7B0",
"w@	c #FFE6AD",
"x@	c #FFE4A7",
"y@	c #FFE3A4",
"z@	c #252118",
"A@	c #A5A5A5",
"B@	c #E3D6BD",
"C@	c #FFF0D2",
"D@	c #EFE0C2",
"E@	c #A38F42",
"F@	c #C7BF90",
"G@	c #4B4A3F",
"H@	c #A69A7E",
"I@	c #FFEBC0",
"J@	c #FFEABC",
"K@	c #FFE9B9",
"L@	c #FFE8B6",
"M@	c #FFE2A0",
"N@	c #60553B",
"O@	c #707070",
"P@	c #B8AE98",
"Q@	c #FFEFCF",
"R@	c #C0B49A",
"S@	c #625421",
"T@	c #C1B889",
"U@	c #706D5D",
"V@	c #FEEABF",
"W@	c #FFE7B3",
"X@	c #FFE5A9",
"Y@	c #FFE4A6",
"Z@	c #FFE3A3",
"`@	c #FFE29E",
" #	c #9A885F",
".#	c #3B3B3B",
"+#	c #474747",
"@#	c #928876",
"##	c #FFEECB",
"$#	c #B9AC91",
"%#	c #807660",
"&#	c #AFA285",
"*#	c #E5D3AB",
"=#	c #FFE7B2",
"-#	c #FFE6AF",
";#	c #FFE6AC",
">#	c #D4BC83",
",#	c #6D6556",
"'#	c #FFEDC8",
")#	c #FFECC5",
"!#	c #FFECC2",
"~#	c #FFE5AC",
"{#	c #FFE3A2",
"]#	c #FFE29F",
"^#	c #FCDF9C",
"/#	c #0D0C08",
"(#	c #BEBEBE",
"_#	c #484338",
":#	c #FFECC4",
"<#	c #FFEBC1",
"[#	c #FFE5AB",
"}#	c #FFE5A8",
"|#	c #FFE4A5",
"1#	c #3E3727",
"2#	c #8F8F8F",
"3#	c #AAAAAA",
"4#	c #23211B",
"5#	c #FFE4A8",
"6#	c #F5D998",
"7#	c #5D5239",
"8#	c #616161",
"9#	c #C9C9C9",
"0#	c #060504",
"a#	c #FBE7BB",
"b#	c #FFE3A5",
"c#	c #FFE3A1",
"d#	c #FBDF9C",
"e#	c #D7BF85",
"f#	c #AB976A",
"g#	c #7E704E",
"h#	c #524933",
"i#	c #262117",
"j#	c #030302",
"k#	c #111111",
"l#	c #626262",
"m#	c #050505",
"n#	c #E1CEA4",
"o#	c #FEE4AA",
"p#	c #E2CA94",
"q#	c #B6A275",
"r#	c #897A57",
"s#	c #5D523A",
"t#	c #312B1E",
"u#	c #080705",
"v#	c #0A0A0A",
"w#	c #2F2F2F",
"x#	c #575757",
"y#	c #7F7F7F",
"z#	c #1C1C1C",
"A#	c #B0A17E",
"B#	c #C1AF88",
"C#	c #948667",
"D#	c #685E47",
"E#	c #3C3628",
"F#	c #100F0B",
"G#	c #252525",
"H#	c #4D4D4D",
"I#	c #757575",
"J#	c #9D9D9D",
"K#	c #C5C5C5",
"L#	c #363636",
"M#	c #1B1B1B",
"N#	c #434343",
"O#	c #6B6B6B",
"P#	c #939393",
"Q#	c #BBBBBB",
"R#	c #CCCCCC",
"S#	c #D8D8D8",
"                                                                ",
"                                                            .   ",
"                        + @ # $ % & * = - ;             > , ' ) ",
"              + ! ~ { ] ^ / ( _ : < [ } | 1 2         3 4 5 6 7 ",
"        8 9 0 a b c d e f g h i j k l m n o p q     r s t u v w ",
"    ; x y z A B g g g g g h i j C D E n F G H I   J K L M N O P ",
"  Q R S T U g g g g g g V W X Y Z E n F `  ...+.@.#.$.%.&.*.=.  ",
"; R -.;.>.,.g g g g g V W '.).!.~.{.].^.a /.(._.:.<.[.}.|.1.    ",
"2.3.4.5.6.^ 7.g g U 8.9.0.' a.b.c.d.e.f.g.h.i.j.k.l.m.n.o.      ",
"p.q.r.s.* t.u.v.w.x.y.z.A.B.C.D.E.F.G.H.I.J.K.M L.M.N.O.        ",
"P.Q.R.S.  T.U.V.W.X.Y.Z.`. +' .+++@+#+$+%+&+*+&.=+-+;+          ",
"            >+,+'+)+x.!+~+{+]+^+/+(+_+:+<+[+}+|+1+x.2+          ",
"            3+4+5+6+7+8+9+0+a+b+H.c+d+e+f+g+h+i+j+k+l+          ",
"            m+n+l o+p+q+r+s+t+u+v+w+x+y+M.z+A+B+;.C+2.          ",
"            D+E+F+G+H+F.I+J+K+L+M+N+O+P+Q+R+S+;.T+U+V+          ",
"              >+W+X+Y+Z+`+(.L+ @.@+@@@#@$@%@&@T+*@=@-@;@        ",
"              >@,@'@Z+`+(.)@!@~@6 {@]@^@/@(@T+*@_@:@<@[@        ",
"              }@|@Z+`+(.1@2@3@6 6 6 4@5@4.6@7@_@:@8@9@0@        ",
"              a@b@c@d@1@2@e@f@6 6 g@h@4.i@7@_@:@8@j@k@l@S.      ",
"              m@n@o@1@2@p@q@6 6 r@s@4.i@t@u@v@w@j@x@y@z@A@      ",
"                a B@C@D@E@F@G@H@I@J@K@L@u@v@w@j@x@y@M@N@O@      ",
"                U.P@Q@R@S@T@U@V@J@K@L@W@v@w@X@Y@Z@M@`@ #.#      ",
"                +#@###$#%#&#*#J@K@=@=#-#;#X@Y@Z@M@`@`@>#>+      ",
"                [@,#'#)#!#;.T+*@=@=#-#~#X@Y@{#]#`@`@`@^#/#(#    ",
"                l+_#:#<#&@T+*@=@=#-#[#}#|#{#]#`@`@`@`@`@1#2#    ",
"                3#4#<#(@T+*@_@:@8@[#5#|#{#]#`@`@`@`@`@6#7#8#    ",
"                9#0#a#6@7@_@:@8@[#5#b#c#]#d#e#f#g#h#i#j#k#l#    ",
"                  m#n#7@_@:@8@o#p#q#r#s#t#u#v#w#x#y#;@q         ",
"                  z#A#B#C#D#E#F#a G#H#I#J#K#                    ",
"                  L#d+M#N#O#P#Q#                                ",
"                  R#S#                                          ",
"                                                                "};
