/* XPM */
static char * btn_view20_xpm[] = {
"20 20 179 2",
"  	c None",
". 	c #8C8C8C",
"+ 	c #616162",
"@ 	c #595A5B",
"# 	c #707070",
"$ 	c #ACACAC",
"% 	c #8E8E8E",
"& 	c #284659",
"* 	c #3A7BA4",
"= 	c #477FA4",
"- 	c #5281A0",
"; 	c #648DA8",
"> 	c #5B7688",
", 	c #505456",
"' 	c #C0C0C0",
") 	c #808080",
"! 	c #1D5F89",
"~ 	c #255C7F",
"{ 	c #67695D",
"] 	c #B1AF95",
"^ 	c #C1BFB1",
"/ 	c #96958C",
"( 	c #4C5454",
"_ 	c #849EAF",
": 	c #474D50",
"< 	c #C1C1C1",
"[ 	c #B3B3B3",
"} 	c #144C71",
"| 	c #1E4E6B",
"1 	c #C2BC96",
"2 	c #FFF7C4",
"3 	c #FFF8C6",
"4 	c #FFFCEB",
"5 	c #FFFFFE",
"6 	c #FAF9F4",
"7 	c #67685F",
"8 	c #93A5B0",
"9 	c #565758",
"0 	c #555A5D",
"a 	c #126EAA",
"b 	c #968E66",
"c 	c #FFEFA6",
"d 	c #FFEEA1",
"e 	c #FFEEA3",
"f 	c #FFF1AC",
"g 	c #FFF5C1",
"h 	c #FFFDF4",
"i 	c #F9F8EE",
"j 	c #545855",
"k 	c #737B81",
"l 	c #1E455F",
"m 	c #134868",
"n 	c #F6E28E",
"o 	c #FFE685",
"p 	c #FFE47E",
"q 	c #FFE580",
"r 	c #FFE88C",
"s 	c #FFED9E",
"t 	c #FFF6C6",
"u 	c #FFFFFF",
"v 	c #8B8A79",
"w 	c #98A1A7",
"x 	c #7A7A7A",
"y 	c #094267",
"z 	c #2E4D54",
"A 	c #FFE377",
"B 	c #FFDD64",
"C 	c #FFDB5B",
"D 	c #FFDC5E",
"E 	c #FFE06D",
"F 	c #FFE684",
"G 	c #FFEEA4",
"H 	c #B3B1A2",
"I 	c #969EA3",
"J 	c #636363",
"K 	c #124363",
"L 	c #1E4759",
"M 	c #FEDC5F",
"N 	c #FFD546",
"O 	c #FFD238",
"P 	c #FFD33D",
"Q 	c #FFD953",
"R 	c #FFE06F",
"S 	c #FFE98E",
"T 	c #FFF4C0",
"U 	c #A09D83",
"V 	c #979FA5",
"W 	c #6E6E6E",
"X 	c #3D4C56",
"Y 	c #0E5E92",
"Z 	c #C5A63B",
"` 	c #FFCF2F",
" .	c #FFC917",
"..	c #FFCC22",
"+.	c #FFD441",
"@.	c #FFDD62",
"#.	c #605F4E",
"$.	c #7C858A",
"%.	c #9A9A9A",
"&.	c #8F8F8F",
"*.	c #13669B",
"=.	c #384332",
"-.	c #F3C52A",
";.	c #FFC813",
">.	c #FFCB20",
",.	c #FFD43F",
"'.	c #FFDD60",
").	c #FFE682",
"!.	c #AFA36E",
"~.	c #525B61",
"{.	c #414F58",
"].	c #454849",
"^.	c #454F55",
"/.	c #2379B2",
"(.	c #3A4331",
"_.	c #C09C23",
":.	c #FDD037",
"<.	c #FFD84E",
"[.	c #EED063",
"}.	c #867946",
"|.	c #55646B",
"1.	c #2D4657",
"2.	c #5E95B9",
"3.	c #2B3840",
"4.	c #4D5255",
"5.	c #A0A0A0",
"6.	c #475055",
"7.	c #2A6D99",
"8.	c #357097",
"9.	c #36515C",
"0.	c #445554",
"a.	c #466171",
"b.	c #7698AF",
"c.	c #445058",
"d.	c #293D4A",
"e.	c #0D1D28",
"f.	c #73C4F8",
"g.	c #A2D8FB",
"h.	c #5F717C",
"i.	c #747474",
"j.	c #929292",
"k.	c #485157",
"l.	c #365162",
"m.	c #395465",
"n.	c #45545D",
"o.	c #636364",
"p.	c #BCBCBC",
"q.	c #7E7E7E",
"r.	c #296A94",
"s.	c #68C3FF",
"t.	c #97D6FF",
"u.	c #829FB2",
"v.	c #515354",
"w.	c #C5C5C5",
"x.	c #7C7C7C",
"y.	c #215374",
"z.	c #58BAF9",
"A.	c #88D0FF",
"B.	c #9BC3DE",
"C.	c #464D51",
"D.	c #ABABAB",
"E.	c #A6A6A6",
"F.	c #274253",
"G.	c #47A5E2",
"H.	c #7ACBFF",
"I.	c #A2D6F7",
"J.	c #56656F",
"K.	c #828282",
"L.	c #C3C3C3",
"M.	c #424C52",
"N.	c #3484B9",
"O.	c #6CC5FF",
"P.	c #91C9EE",
"Q.	c #3F4244",
"R.	c #6D6E6F",
"S.	c #235D83",
"T.	c #2C4A5D",
"U.	c #B9B9B9",
"V.	c #9B9B9B",
"                                        ",
"        . + @ # $                       ",
"    % & * = - ; > , '                   ",
"  ) ! ~ { ] ^ / ( _ : <                 ",
"[ } | 1 2 3 4 5 6 7 8 9                 ",
"0 a b c d e f g h i j k [               ",
"l m n o p q r s t u v w x               ",
"y z A B C D E F G u H I J               ",
"K L M N O P Q R S T U V W               ",
"X Y Z `  ...+.@.F c #.$.%.              ",
"&.*.=.-.;.>.,.'.).!.~.{.].              ",
"  ^./.(._.:.<.[.}.|.1.2.3.4.5.          ",
"    6.7.8.9.0.a.b.c.d.e.f.g.h.i.        ",
"      j.k.l.m.n.o.p.  q.r.s.t.u.v.w.    ",
"                        x.y.z.A.B.C.D.  ",
"                          E.F.G.H.I.J.K.",
"                            L.M.N.O.P.Q.",
"                                R.S.T.U.",
"                                  V.V.  ",
"                                        "};
