/* XPM */
static char * btn_filters_xpm[] = {
"48 37 583 2",
"  	c None",
". 	c #CBCBCB",
"+ 	c #ABABAB",
"@ 	c #8B8B8B",
"# 	c #707070",
"$ 	c #666666",
"% 	c #686767",
"& 	c #6A6968",
"* 	c #6D6B69",
"= 	c #6E6B69",
"- 	c #6D6A68",
"; 	c #5F5F5D",
"> 	c #C5C5C5",
", 	c #B0B0B0",
"' 	c #818181",
") 	c #656565",
"! 	c #6F6D6E",
"~ 	c #8C8A8B",
"{ 	c #AFADAF",
"] 	c #D3D0D2",
"^ 	c #F2EFF1",
"/ 	c #FEFBFB",
"( 	c #FFFBF9",
"_ 	c #FFFAF7",
": 	c #FFFAF5",
"< 	c #FFF9F2",
"[ 	c #FFF8F0",
"} 	c #F4EDE3",
"| 	c #64615E",
"1 	c #C1C1C1",
"2 	c #666566",
"3 	c #767475",
"4 	c #A8A6A7",
"5 	c #DCD9DB",
"6 	c #FCF9FB",
"7 	c #FFFCFE",
"8 	c #FFFCFD",
"9 	c #FFFCFB",
"0 	c #FFFAF4",
"a 	c #FFF8ED",
"b 	c #FFF7EB",
"c 	c #F7EFE2",
"d 	c #5A5955",
"e 	c #D8D8D8",
"f 	c #949494",
"g 	c #454545",
"h 	c #5E5E5E",
"i 	c #6C6B6C",
"j 	c #AAA8AA",
"k 	c #EDEAEC",
"l 	c #FFFAF6",
"m 	c #FFF8EF",
"n 	c #FFF6E8",
"o 	c #FFF6E6",
"p 	c #D8D0C1",
"q 	c #717171",
"r 	c #B7B7B7",
"s 	c #162D41",
"t 	c #000101",
"u 	c #000000",
"v 	c #575757",
"w 	c #8E8E8E",
"x 	c #313131",
"y 	c #A3A1A2",
"z 	c #F6F3F5",
"A 	c #FFFBFB",
"B 	c #FFF9F1",
"C 	c #FFF7EA",
"D 	c #FFF5E3",
"E 	c #FFF4E1",
"F 	c #7C776E",
"G 	c #C8C8C8",
"H 	c #A1A1A1",
"I 	c #0B4475",
"J 	c #1391FB",
"K 	c #1A5D93",
"L 	c #232323",
"M 	c #D9D9D9",
"N 	c #55534C",
"O 	c #B29E72",
"P 	c #BCAB83",
"Q 	c #65625E",
"R 	c #FFFBF8",
"S 	c #FFF9F4",
"T 	c #FFF7EC",
"U 	c #FFF5E5",
"V 	c #FFF4DE",
"W 	c #EDE2CD",
"X 	c #676765",
"Y 	c #959696",
"Z 	c #084D88",
"` 	c #1996FF",
" .	c #32A4FF",
"..	c #4CB1FF",
"+.	c #3C7197",
"@.	c #010102",
"#.	c #6C6C6C",
"$.	c #5A5751",
"%.	c #DCC48B",
"&.	c #FFE6AE",
"*.	c #FFEABE",
"=.	c #C6BA9F",
"-.	c #8E8C8D",
";.	c #FFFBFA",
">.	c #FFF9F3",
",.	c #FDF5EA",
"'.	c #E9E2D6",
").	c #CCC5BA",
"!.	c #B4ADA2",
"~.	c #9D978C",
"{.	c #8A857A",
"].	c #958E82",
"^.	c #FFF3DC",
"/.	c #FFF2D9",
"(.	c #7B7569",
"_.	c #CECECE",
":.	c #969696",
"<.	c #0A518E",
"[.	c #1F9AFF",
"}.	c #39A7FF",
"|.	c #52B5FF",
"1.	c #6BC2FF",
"2.	c #84D0FF",
"3.	c #354D5A",
"4.	c #B5B5B5",
"5.	c #9D9D9D",
"6.	c #A49268",
"7.	c #FFE6AD",
"8.	c #FFEABC",
"9.	c #FFEECC",
"0.	c #FFF3DB",
"a.	c #6F6B66",
"b.	c #EFECEE",
"c.	c #FFFCFC",
"d.	c #FCF8F5",
"e.	c #DAD6D2",
"f.	c #A7A3A0",
"g.	c #7C7975",
"h.	c #6E6B67",
"i.	c #6E6B66",
"j.	c #706D67",
"k.	c #847F77",
"l.	c #A19B90",
"m.	c #BAB2A5",
"n.	c #D1C8B7",
"o.	c #E3D9C6",
"p.	c #F5E9D2",
"q.	c #FFF1D7",
"r.	c #E0D4BB",
"s.	c #767676",
"t.	c #A3A3A3",
"u.	c #0F5086",
"v.	c #259DFF",
"w.	c #3FAAFF",
"x.	c #58B8FF",
"y.	c #71C6FF",
"z.	c #8AD3FF",
"A.	c #72A0B9",
"B.	c #7F8081",
"C.	c #5C5A53",
"D.	c #FCE2A9",
"E.	c #FFEABB",
"F.	c #FFEECA",
"G.	c #FDF0D8",
"H.	c #CEC7BB",
"I.	c #6B6866",
"J.	c #8B898B",
"K.	c #FEFBFD",
"L.	c #D0CECE",
"M.	c #898786",
"N.	c #6B6968",
"O.	c #6F6D6B",
"P.	c #918E8A",
"Q.	c #C4BFB9",
"R.	c #F1EAE1",
"S.	c #FFF7E9",
"T.	c #FFF6E7",
"U.	c #FFF5E2",
"V.	c #FFF4E0",
"W.	c #FFF3DE",
"X.	c #FFF1D6",
"Y.	c #FFF1D4",
"Z.	c #FFF0D2",
"`.	c #666157",
" +	c #B4B4B4",
".+	c #174A75",
"++	c #2BA0FE",
"@+	c #45AEFF",
"#+	c #5EBBFF",
"$+	c #77C9FF",
"%+	c #90D6FF",
"&+	c #89BBD3",
"*+	c #5F6365",
"=+	c #625B48",
"-+	c #E5D1A5",
";+	c #A1957C",
">+	c #6B665C",
",+	c #646260",
"'+	c #CACACA",
")+	c #616061",
"!+	c #E1DEE0",
"~+	c #807F80",
"{+	c #696767",
"]+	c #989694",
"^+	c #E1DDDA",
"/+	c #FFF9F0",
"(+	c #FFF8EE",
"_+	c #FBF1E1",
":+	c #E1D8C7",
"<+	c #C3BAAB",
"[+	c #A59E90",
"}+	c #8D8679",
"|+	c #787266",
"1+	c #6F695D",
"2+	c #908878",
"3+	c #FFF0D1",
"4+	c #FFEFCF",
"5+	c #ACA18A",
"6+	c #A6A6A6",
"7+	c #1E4666",
"8+	c #31A2FC",
"9+	c #4BB1FF",
"0+	c #64BEFF",
"a+	c #7DCCFF",
"b+	c #96DAFF",
"c+	c #96C8DE",
"d+	c #53595C",
"e+	c #41403E",
"f+	c #777777",
"g+	c #888888",
"h+	c #D1CED0",
"i+	c #BBB9BA",
"j+	c #E4E1E1",
"k+	c #E5DED5",
"l+	c #B2ADA4",
"m+	c #807B75",
"n+	c #6E6A63",
"o+	c #6E6A62",
"p+	c #726D64",
"q+	c #8D867B",
"r+	c #ABA394",
"s+	c #C8BEAB",
"t+	c #E1D5BE",
"u+	c #F6E9CE",
"v+	c #FFEFCC",
"w+	c #F8E8C5",
"x+	c #656460",
"y+	c #D5D5D5",
"z+	c #2E465A",
"A+	c #36A1F5",
"B+	c #51B4FF",
"C+	c #6AC2FF",
"D+	c #83CFFF",
"E+	c #9CDDFF",
"F+	c #9DCDE0",
"G+	c #505659",
"H+	c #D2D2D2",
"I+	c #7E7D7E",
"J+	c #EFEAE5",
"K+	c #A7A39F",
"L+	c #6F6C69",
"M+	c #6B6864",
"N+	c #87837C",
"O+	c #BAB3A9",
"P+	c #ECE3D5",
"Q+	c #FFF5E4",
"R+	c #FFF4DF",
"S+	c #FFF3DD",
"T+	c #FFF2DA",
"U+	c #FFF2D8",
"V+	c #FFF0D3",
"W+	c #FFEDC7",
"X+	c #6F6858",
"Y+	c #424F5A",
"Z+	c #3A9BE7",
"`+	c #57B8FF",
" @	c #70C5FF",
".@	c #89D3FF",
"+@	c #A2E0FF",
"@@	c #9DC9D9",
"#@	c #53595A",
"$@	c #656464",
"%@	c #C1BEBB",
"&@	c #6B6967",
"*@	c #777471",
"=@	c #C1BCB5",
"-@	c #FAF3E8",
";@	c #FFF1D5",
">@	c #FEF0D2",
",@	c #F3E5C7",
"'@	c #DFD1B4",
")@	c #CDBFA4",
"!@	c #D2C4A6",
"~@	c #FFECC5",
"{@	c #B9AB8D",
"]@	c #2E3539",
"^@	c #3B90D2",
"/@	c #5DBBFF",
"(@	c #76C8FF",
"_@	c #8FD6FF",
":@	c #A8E3FF",
"<@	c #9BC4D1",
"[@	c #585C5D",
"}@	c #757575",
"|@	c #E8E4E2",
"1@	c #D4CFCB",
"2@	c #F9F3EC",
"3@	c #FEF3E0",
"4@	c #E5DBC8",
"5@	c #B9B0A0",
"6@	c #928B7D",
"7@	c #736D62",
"8@	c #6E685C",
"9@	c #6E685B",
"0@	c #6F685B",
"a@	c #7A7363",
"b@	c #8F8672",
"c@	c #A2967F",
"d@	c #C6B89A",
"e@	c #FFECC2",
"f@	c #887F6A",
"g@	c #3980B6",
"h@	c #63BEFF",
"i@	c #7CCCFF",
"j@	c #95D9FF",
"k@	c #AEE7FF",
"l@	c #92B6C0",
"m@	c #616364",
"n@	c #A6A2A0",
"o@	c #FBF2E4",
"p@	c #C5BDB1",
"q@	c #868177",
"r@	c #6D6860",
"s@	c #6D685F",
"t@	c #868073",
"u@	c #B4AB99",
"v@	c #DBCFB8",
"w@	c #FAECD0",
"x@	c #FFF0D0",
"y@	c #FFEFCE",
"z@	c #FFEECB",
"A@	c #FFEEC9",
"B@	c #FFECC4",
"C@	c #A4987C",
"D@	c #366F99",
"E@	c #69C1FF",
"F@	c #82CFFF",
"G@	c #9BDCFF",
"H@	c #B4EAFF",
"I@	c #86A4AB",
"J@	c #707171",
"K@	c #716F6C",
"L@	c #FCF5EA",
"M@	c #B6B0A7",
"N@	c #6E6A64",
"O@	c #A59E92",
"P@	c #E5DBC9",
"Q@	c #FFEFCD",
"R@	c #FFEDC6",
"S@	c #BAAB8C",
"T@	c #356282",
"U@	c #6FC5FF",
"V@	c #88D2FF",
"W@	c #A1E0FF",
"X@	c #BAEDFF",
"Y@	c #779095",
"Z@	c #838383",
"`@	c #666563",
" #	c #8F8A83",
".#	c #AEA89E",
"+#	c #F9EFDF",
"@#	c #FFEFD0",
"##	c #FFEDC9",
"$#	c #FFEBC1",
"%#	c #C5B594",
"&#	c #365A71",
"*#	c #75C7FE",
"=#	c #8ED5FF",
"-#	c #A7E3FF",
";#	c #C0F0FE",
">#	c #6A7D80",
",#	c #979797",
"'#	c #EFE8DD",
")#	c #FFEDC8",
"!#	c #C5B593",
"~#	c #39586C",
"{#	c #7AC9FD",
"]#	c #94D9FF",
"^#	c #ADE6FF",
"/#	c #C4F1FD",
"(#	c #5D6D6E",
"_#	c #A8A8A8",
":#	c #9C9C9C",
"<#	c #BEB8AD",
"[#	c #FFECC3",
"}#	c #B7A989",
"|#	c #3C5D72",
"1#	c #80CDFD",
"2#	c #9ADCFF",
"3#	c #B3E9FF",
"4#	c #C9F3FB",
"5#	c #5F6B68",
"6#	c #504837",
"7#	c #D3D3D3",
"8#	c #8A857D",
"9#	c #FFF4E2",
"0#	c #FFEDC5",
"a#	c #FEEAC0",
"b#	c #968A71",
"c#	c #436C87",
"d#	c #87D1FE",
"e#	c #A0DFFF",
"f#	c #B9EDFF",
"g#	c #CEF6FC",
"h#	c #5F6B67",
"i#	c #CBB78A",
"j#	c #C1AD82",
"k#	c #999999",
"l#	c #6C6862",
"m#	c #FFEBC0",
"n#	c #90846B",
"o#	c #1C303D",
"p#	c #8BD2FC",
"q#	c #A6E2FF",
"r#	c #BFF0FF",
"s#	c #D4FBFE",
"t#	c #657370",
"u#	c #C7B487",
"v#	c #FFE5AB",
"w#	c #F7DEA3",
"x#	c #686765",
"y#	c #676461",
"z#	c #D7C6A0",
"A#	c #0A0907",
"B#	c #3B4F58",
"C#	c #C2EFFB",
"D#	c #D8FDFF",
"E#	c #778A89",
"F#	c #B7A57C",
"G#	c #FFE5A8",
"H#	c #FFE4A6",
"I#	c #676050",
"J#	c #6D6C6C",
"K#	c #F5E9D3",
"L#	c #FAE6BA",
"M#	c #353127",
"N#	c #485454",
"O#	c #95ADAD",
"P#	c #948665",
"Q#	c #FFE4A8",
"R#	c #FFE3A4",
"S#	c #817253",
"T#	c #919191",
"U#	c #CCC2AE",
"V#	c #FFF2D7",
"W#	c #FFEABD",
"X#	c #7E735D",
"Y#	c #5C533F",
"Z#	c #FEE5AA",
"`#	c #FFE3A3",
" $	c #FFE2A1",
".$	c #BAA574",
"+$	c #A0A0A0",
"@$	c #A29988",
"#$	c #FFEBBF",
"$$	c #C7B792",
"%$	c #040403",
"&$	c #080705",
"*$	c #918362",
"=$	c #FEE4A9",
"-$	c #FFE4A5",
";$	c #FFE29F",
">$	c #F0D495",
",$	c #6F6F6E",
"'$	c #7B7466",
")$	c #FFECC1",
"!$	c #CBBB97",
"~$	c #B8A887",
"{$	c #26231C",
"]$	c #26221A",
"^$	c #CDB98A",
"/$	c #FFE5AA",
"($	c #FFE4A7",
"_$	c #FFE2A0",
":$	c #FFE29E",
"<$	c #666054",
"[$	c #5B502D",
"}$	c #B6A667",
"|$	c #413F32",
"1$	c #5D543F",
"2$	c #F2DAA3",
"3$	c #FFE3A2",
"4$	c #716549",
"5$	c #67655F",
"6$	c #EDD8AC",
"7$	c #806D2C",
"8$	c #C8B66B",
"9$	c #DDD9B4",
"0$	c #3A3A31",
"a$	c #9F8F6C",
"b$	c #FFE5AC",
"c$	c #FFE5A9",
"d$	c #FFE3A5",
"e$	c #A18F64",
"f$	c #686766",
"g$	c #FCEBC7",
"h$	c #FFEBBE",
"i$	c #FFE9BA",
"j$	c #BDAD88",
"k$	c #7B6723",
"l$	c #6E6540",
"m$	c #FCF7CA",
"n$	c #757362",
"o$	c #F8DFA6",
"p$	c #D5BD84",
"q$	c #7F7F7F",
"r$	c #E0D0AF",
"s$	c #FFE9B9",
"t$	c #FFE9B7",
"u$	c #8E8165",
"v$	c #161307",
"w$	c #6D633B",
"x$	c #6C654E",
"y$	c #7B6F53",
"z$	c #FBE1A6",
"A$	c #FBDF9C",
"B$	c #666561",
"C$	c #BBAE91",
"D$	c #FFE8B4",
"E$	c #CCB98F",
"F$	c #D2BE90",
"G$	c #FBE2AA",
"H$	c #FFE3A1",
"I$	c #686151",
"J$	c #978C73",
"K$	c #FFE8B6",
"L$	c #FFE7B2",
"M$	c #FFE6AF",
"N$	c #716547",
"O$	c #786E5B",
"P$	c #F6DA99",
"Q$	c #CFB780",
"R$	c #A29065",
"S$	c #786B4B",
"T$	c #6A614D",
"U$	c #64615A",
"V$	c #6C6555",
"W$	c #FFE9B8",
"X$	c #FFE7B1",
"Y$	c #DBC288",
"Z$	c #AF9B6C",
"`$	c #827451",
" %	c #6B614B",
".%	c #666257",
"+%	c #6A6A69",
"@%	c #8D8D8D",
"#%	c #B6B6B6",
"$%	c #69655B",
"%%	c #FFE8B3",
"&%	c #FFE6AC",
"*%	c #FEE3A7",
"=%	c #E7CE96",
"-%	c #BBA677",
";%	c #8E7E5A",
">%	c #6D6349",
",%	c #676153",
"'%	c #676562",
")%	c #828282",
"!%	c #666460",
"~%	c #FFE8B5",
"{%	c #FFE7B3",
"]%	c #F1DAA7",
"^%	c #C7B388",
"/%	c #9A8B68",
"(%	c #72684E",
"_%	c #696252",
":%	c #64635D",
"<%	c #787877",
"[%	c #9F9F9F",
"}%	c #6A6A6A",
"|%	c #696253",
"1%	c #65625B",
"2%	c #BDBDBD",
"                                  . + @ # $ % & * = - ; >                                       ",
"                        , ' ) % ! ~ { ] ^ / ( _ : < [ } | 1                                     ",
"                + # 2 3 4 5 6 7 7 7 7 8 9 ( _ 0 < [ a b c d                           e f g h   ",
"          + $ i j k 7 7 7 7 7 7 7 7 8 9 ( l 0 < m a b n o p q                       r s t u u v ",
"      w x y z 7 7 7 7 7 7 7 7 7 7 8 A ( l 0 B m a C n o D E F G                   H I J K t u L ",
"  M N O P Q 6 7 7 7 7 7 7 7 7 7 8 A R l S B m T C n U D E V W X                 Y Z `  ...+.@.#.",
"  $.%.&.*.=.-.7 7 7 7 7 7 7 7 8 ;.R l >.B m ,.'.).!.~.{.].^./.(._.            :.<.[.}.|.1.2.3.4.",
"5.6.7.8.9.0.a.b.7 7 7 7 7 7 c.;.d.e.f.g.h.i.j.k.l.m.n.o.p./.q.r.s.          t.u.v.w.x.y.z.A.B.  ",
"C.D.E.F.G.H.I.J.7 7 7 7 K.L.M.N.O.P.Q.R.T S.T.U U.V.W.0./.X.Y.Z.`.         +.+++@+#+$+%+&+*+    ",
"=+-+;+>+,+@ '+)+K.7 !+~+{+]+^+: >./+(+b S.T._+:+<+[+}+|+1+2+3+4+5+6+    > 7+8+9+0+a+b+c+d+      ",
"e+f+4.        g+h+7 i+j+( _ : < [ k+l+m+n+o+p+q+r+s+t+u+Y.3+4+v+w+x+  y+z+A+B+C+D+E+F+G+        ",
"              H+I+7 9 ( _ J+K+L+M+N+O+P+Q+E R+S+T+U+X.V+3+4+9.F.W+X+M Y+Z+`+ @.@+@@@#@          ",
"                $@9 ( %@&@*@=@-@b n o Q+E R+^.T+U+;@>@,@'@)@!@W+~@{@]@^@/@(@_@:@<@[@            ",
"                }@|@l 1@2@m a C n o D 3@4@5@6@7@8@9@0@a@b@c@d@~@e@f@g@h@i@j@k@l@m@              ",
"                , n@S B m T C o@p@q@r@s@t@u@v@w@V+x@y@z@A@W+B@e@C@D@E@F@G@H@I@J@                ",
"                  K@B m L@M@N@o+O@P@W.^./.q.;@Z.x@Q@z@A@R@B@e@S@T@U@V@W@X@Y@Z@                  ",
"                  `@(+T  #.#+#D V.W.0./.q.Y.Z.@#Q@z@##R@B@$#%#&#*#=#-#;#>#,#                    ",
"                  # '#S.T.U U.V.W.0./.X.Y.Z.4+Q@z@)#R@B@$#!#~#{#]#^#/#(#_#                      ",
"                  :#<#T.Q+U.V.S+0./.X.Y.3+4+Q@F.)#R@[#$#}#|#1#2#3#4#5#6#7#                      ",
"                  . 8#Q+9#R+S+0.U+X.Y.3+4+v+F.)#0#[#a#b#c#d#e#f#g#h#i#j#k#                      ",
"                    l#9#R+S+T+U+X.V+3+4+v+F.)#0#[#m#n#o#p#q#r#s#t#u#v#w#x#                      ",
"                    y#R+S+T+U+;@V+3+y@9.F.W+~@[#m#z#A#u B#C#D#E#F#v#G#H#I#                      ",
"                    J#K#T+U+;@V+x@y@9.A@W+~@e@m#L#M#u u u N#O#P#v#Q#H#R#S#7#                    ",
"                    T#U#V#;@V+x@y@z@A@W+B@e@m#W#X#u u u u u Y#Z#Q#H#`# $.$+$                    ",
"                    r @$;@Z.x@y@z@A@W+B@e@#$W#$$%$u u u &$*$=$Q#-$`# $;$>$,$                    ",
"                      '$Z.@#Q@z@##R@B@)$#$!$~${$u u u ]$^$/$($-$`#_$:$:$:$<$                    ",
"                      >+4+Q@z@)#R@B@$##$W#[$}$|$u u 1$2$/$($-$3$_$:$:$:$:$4$                    ",
"                      5$Q@F.)#R@[#$##$8.6$7$8$9$0$a$b$c$($d$3$_$:$:$:$:$:$e$r                   ",
"                      f$g$)#0#[#$#h$8.i$j$k$l$m$n$o$c$($R#3$_$:$:$:$:$:$:$p$g+                  ",
"                      q$r$0#[#m#h$8.s$t$u$v$w$x$y$z$H#R#3$;$:$:$:$:$:$:$:$A$B$                  ",
"                      +$C$[#m#*.8.s$t$D$E$F$G$v#c$H#R#H$;$:$:$:$:$:$:$:$:$:$I$                  ",
"                      1 J$m#*.E.s$K$D$L$M$7.v#G#H#R#H$;$:$:$:$:$:$:$:$:$:$:$N$                  ",
"                        O$W#E.s$K$D$L$M$7./$Q#H#`# $;$:$:$:$:$:$P$Q$R$S$T$U$q M                 ",
"                        V$E.W$K$D$X$M$7./$Q#-$`# $;$A$Y$Z$`$ %.%+%@%#%                          ",
"                        $%W$K$%%X$M$&%/$*%=%-%;%>%,%'%)%+ H+                                    ",
"                        !%~%{%]%^%/%(%_%:%<%[%G                                                 ",
"                        }%|%1%,$f 2%                                                            "};
