/* XPM */
static char * btn_file20_xpm[] = {
"20 20 128 2",
"  	c None",
". 	c #000000",
"+ 	c #4B4A3F",
"@ 	c #FFFCD7",
"# 	c #FFFCD4",
"$ 	c #FFFACD",
"% 	c #FFF8C6",
"& 	c #FFF6C0",
"* 	c #FFF4B9",
"= 	c #FFF3B2",
"- 	c #FFF1AB",
"; 	c #FFEFA5",
"> 	c #FFED9E",
", 	c #FFEB97",
"' 	c #FFFCD5",
") 	c #FFFACF",
"! 	c #FFF8C8",
"~ 	c #FFF6C1",
"{ 	c #FFF5BA",
"] 	c #FFF3B4",
"^ 	c #FFF1AD",
"/ 	c #FFEFA6",
"( 	c #FFED9F",
"_ 	c #FFEC99",
": 	c #FFEA92",
"< 	c #FFE88B",
"[ 	c #FFFBD0",
"} 	c #FFF9C9",
"| 	c #FFF7C3",
"1 	c #FFF5BC",
"2 	c #FFF3B5",
"3 	c #FFF1AE",
"4 	c #FFF0A8",
"5 	c #FFEEA1",
"6 	c #FFEC9A",
"7 	c #FFEA93",
"8 	c #FFE88D",
"9 	c #FFE786",
"0 	c #FFE57F",
"a 	c #FFFBD3",
"b 	c #FFF9CC",
"c 	c #FFF8C5",
"d 	c #FFF6BE",
"e 	c #FFF4B8",
"f 	c #FFF2B1",
"g 	c #FFF0AA",
"h 	c #FFEEA3",
"i 	c #FFED9D",
"j 	c #FFEB96",
"k 	c #FFE98F",
"l 	c #FFE788",
"m 	c #FFE582",
"n 	c #FFE47B",
"o 	c #FFE274",
"p 	c #FFF8C7",
"q 	c #FFF2B2",
"r 	c #FFF1AC",
"s 	c #FFEA91",
"t 	c #FFE88A",
"u 	c #FFE683",
"v 	c #FFE47C",
"w 	c #FFE276",
"x 	c #FFE06F",
"y 	c #FFDF68",
"z 	c #FFF5BB",
"A 	c #FFEEA0",
"B 	c #FFE685",
"C 	c #FFE47E",
"D 	c #FFE377",
"E 	c #FFE170",
"F 	c #FFDF6A",
"G 	c #FFDD63",
"H 	c #FFDB5C",
"I 	c #FFF2AF",
"J 	c #FFEA94",
"K 	c #FFE379",
"L 	c #FFE172",
"M 	c #FFDF6B",
"N 	c #FFDD64",
"O 	c #FFDC5E",
"P 	c #FFDA57",
"Q 	c #FFD850",
"R 	c #FFEFA4",
"S 	c #FFE789",
"T 	c #FFE06E",
"U 	c #FFDE67",
"V 	c #FFDC60",
"W 	c #FFDA59",
"X 	c #FFD952",
"Y 	c #FFD74C",
"Z 	c #FFD545",
"` 	c #FFEB98",
" .	c #FFE991",
"..	c #FFDD61",
"+.	c #FFDB5A",
"@.	c #FFD954",
"#.	c #FFD74D",
"$.	c #FFD646",
"%.	c #FFD43F",
"&.	c #FFD239",
"*.	c #FFEDA0",
"=.	c #FFDF69",
"-.	c #FFDA55",
";.	c #FFD84E",
">.	c #FFD647",
",.	c #FFD441",
"'.	c #FFD23A",
").	c #FFD033",
"!.	c #FFCF2C",
"~.	c #FFE378",
"{.	c #FFDE64",
"].	c #FFDC5D",
"^.	c #FFDA56",
"/.	c #FFD649",
"(.	c #FFD442",
"_.	c #FFD33B",
":.	c #FFD134",
"<.	c #FFCF2E",
"[.	c #FFCD27",
"}.	c #FFCB20",
"|.	c #FFDB59",
"1.	c #FFD33E",
"2.	c #FFD137",
"3.	c #FFD030",
"4.	c #FFCE2A",
"5.	c #FFCC23",
"6.	c #FFCA1C",
"7.	c #FFC815",
"                                        ",
"                                        ",
"  . . . . .                             ",
"  + @ @ @ @ .                           ",
". @ @ @ @ @ . . . . . . . . . . . . . . ",
". @ @ @ @ @ @ @ @ # $ % & * = - ; > , . ",
". @ @ @ @ @ @ ' ) ! ~ { ] ^ / ( _ : < . ",
". @ @ @ @ @ [ } | 1 2 3 4 5 6 7 8 9 0 . ",
". @ @ @ a b c d e f g h i j k l m n o . ",
". @ # $ p & * q r ; > , s t u v w x y . ",
". ) ! ~ z ] ^ / A _ : < B C D E F G H . ",
". | 1 2 I 4 5 6 J 8 9 0 K L M N O P Q . ",
". e f g R i j k S m n o T U V W X Y Z . ",
". r ; > `  .t u v w x y ..+.@.#.$.%.&.. ",
". *._ : < B C D E =.G H -.;.>.,.'.).!.. ",
". J 8 9 0 ~.L M {.].^.Q /.(._.:.<.[.}.. ",
". S m n o T U V |.X Y Z 1.2.3.4.5.6.7.. ",
". . . . . . . . . . . . . . . . . . . . ",
"                                        ",
"                                        "};
