/* XPM */
static char * btn_right_xpm[] = {
"24 24 207 2",
"  	c None",
". 	c #A0A0A0",
"+ 	c #828282",
"@ 	c #C0C0C0",
"# 	c #010101",
"$ 	c #2A2A2A",
"% 	c #242424",
"& 	c #6E8385",
"* 	c #1F2526",
"= 	c #474747",
"- 	c #B7B7B7",
"; 	c #585858",
"> 	c #789095",
", 	c #C4EFF8",
"' 	c #6B848B",
") 	c #131617",
"! 	c #656565",
"~ 	c #8D8D8D",
"{ 	c #435155",
"] 	c #C5F3FF",
"^ 	c #BFF0FF",
"/ 	c #A9D8E9",
"( 	c #485E67",
"_ 	c #181919",
": 	c #838383",
"< 	c #141819",
"[ 	c #BEEEFD",
"} 	c #BAEDFF",
"| 	c #B4EAFF",
"1 	c #AEE7FF",
"2 	c #89BAD0",
"3 	c #2A3B43",
"4 	c #2B2B2B",
"5 	c #9BC5D4",
"6 	c #B5EAFF",
"7 	c #AFE7FF",
"8 	c #A9E4FF",
"9 	c #A3E1FF",
"0 	c #9DDDFE",
"a 	c #6896AF",
"b 	c #162026",
"c 	c #B8B8B8",
"d 	c #698895",
"e 	c #B0E7FF",
"f 	c #AAE4FF",
"g 	c #A4E1FF",
"h 	c #9EDEFF",
"i 	c #99DBFF",
"j 	c #93D8FF",
"k 	c #89CFF8",
"l 	c #49728B",
"m 	c #0F1417",
"n 	c #3A4D55",
"o 	c #ABE5FF",
"p 	c #A5E2FF",
"q 	c #9FDEFF",
"r 	c #8ED5FF",
"s 	c #88D2FF",
"t 	c #82CFFF",
"u 	c #71BAE9",
"v 	c #2F5066",
"w 	c #171919",
"x 	c #848484",
"y 	c #BFBFBF",
"z 	c #111719",
"A 	c #A4E0FD",
"B 	c #A0DFFF",
"C 	c #9ADCFF",
"D 	c #94D9FF",
"E 	c #8ED6FF",
"F 	c #89D2FF",
"G 	c #83CFFF",
"H 	c #7DCCFF",
"I 	c #77C9FF",
"J 	c #71C6FF",
"K 	c #589FD0",
"L 	c #1A3242",
"M 	c #2C2C2C",
"N 	c #A1A1A1",
"O 	c #85BAD5",
"P 	c #9BDCFF",
"Q 	c #95D9FF",
"R 	c #8FD6FF",
"S 	c #89D3FF",
"T 	c #84D0FF",
"U 	c #7ECDFF",
"V 	c #78C9FF",
"W 	c #72C6FF",
"X 	c #6CC3FF",
"Y 	c #67C0FF",
"Z 	c #61BDFE",
"` 	c #3E7FAF",
" .	c #0D1B25",
"..	c #484848",
"+.	c #5A8095",
"@.	c #96D9FF",
"#.	c #90D6FF",
"$.	c #8AD3FF",
"%.	c #7FCDFF",
"&.	c #79CAFF",
"*.	c #73C7FF",
"=.	c #6DC4FF",
"-.	c #67C1FF",
";.	c #62BDFF",
">.	c #5CBAFF",
",.	c #56B7FF",
"'.	c #4EAFF8",
").	c #28608B",
"!.	c #0C1217",
"~.	c #666666",
"{.	c #5D5D5D",
"].	c #53798F",
"^.	c #91D7FF",
"/.	c #8BD4FF",
"(.	c #85D0FF",
"_.	c #74C7FF",
":.	c #6EC4FF",
"<.	c #68C1FF",
"[.	c #62BEFF",
"}.	c #5DBBFF",
"|.	c #57B8FF",
"1.	c #51B4FF",
"2.	c #4BB0FD",
"3.	c #2D70A3",
"4.	c #09151D",
"5.	c #525252",
"6.	c #292929",
"7.	c #75AECE",
"8.	c #8CD4FF",
"9.	c #86D1FF",
"0.	c #80CEFF",
"a.	c #7ACBFF",
"b.	c #74C8FF",
"c.	c #6FC4FF",
"d.	c #69C1FF",
"e.	c #63BEFF",
"f.	c #52B5FF",
"g.	c #3C8AC6",
"h.	c #102637",
"i.	c #353535",
"j.	c #AAAAAA",
"k.	c #C3C3C3",
"l.	c #0D1216",
"m.	c #8AD1FB",
"n.	c #87D1FF",
"o.	c #81CEFF",
"p.	c #7BCBFF",
"q.	c #75C8FF",
"r.	c #6FC5FF",
"s.	c #6AC2FF",
"t.	c #64BFFF",
"u.	c #5EBBFF",
"v.	c #58B8FF",
"w.	c #49A0E2",
"x.	c #1C3F5A",
"y.	c #1D1E1E",
"z.	c #8E8E8E",
"A.	c #929292",
"B.	c #2B414F",
"C.	c #87D2FF",
"D.	c #7CCBFF",
"E.	c #76C8FF",
"F.	c #70C5FF",
"G.	c #65BFFF",
"H.	c #5FBCFF",
"I.	c #55B1F4",
"J.	c #2A5B7F",
"K.	c #0F1316",
"L.	c #707070",
"M.	c #4B758F",
"N.	c #7CCCFF",
"O.	c #6BC2FF",
"P.	c #5FBBFD",
"Q.	c #3A77A4",
"R.	c #0C171F",
"S.	c #BEBEBE",
"T.	c #69A7CE",
"U.	c #66C0FF",
"V.	c #4C93C7",
"W.	c #152938",
"X.	c #343434",
"Y.	c #A9A9A9",
"Z.	c #0C1215",
"`.	c #7CCAFC",
" +	c #78CAFF",
".+	c #6DC3FF",
"++	c #5CABE2",
"@+	c #23445B",
"#+	c #1D1D1E",
"$+	c #263F4F",
"%+	c #69BCF4",
"&+	c #356180",
"*+	c #101416",
"=+	c #6F6F6F",
"-+	c #43708E",
";+	c #73C6FD",
">+	c #487FA5",
",+	c #0F1920",
"'+	c #515151",
")+	c #457697",
"!+	c #192C39",
"~+	c #333333",
"{+	c #C4C4C4",
"]+	c #030303",
"^+	c #1C1C1C",
"/+	c #9D9D9D",
"(+	c #6E6E6E",
"  . +                                           ",
"  @ # $ .                                       ",
"    % & * = -                                   ",
"    ; > , ' ) !                                 ",
"    ~ { ] ^ / ( _ :                             ",
"    @ < [ } | 1 2 3 4 .                         ",
"      % 5 6 7 8 9 0 a b = c                     ",
"      ; d e f g h i j k l m !                   ",
"      ~ n o p q i j r s t u v w x               ",
"      y z A B C D E F G H I J K L M N           ",
"        % O P Q R S T U V W X Y Z `  ...c       ",
"        ; +.@.#.$.T %.&.*.=.-.;.>.,.'.).!.~.    ",
"        {.].^./.(.%.&._.:.<.[.}.|.1.2.3.4.5.@   ",
"        6.7.8.9.0.a.b.c.d.e.}.|.f.g.h.i.j.      ",
"      k.l.m.n.o.p.q.r.s.t.u.v.w.x.y.z.          ",
"      A.B.C.t D.E.F.s.G.H.I.J.K.L.              ",
"      {.M.t N.I J O.G.P.Q.R.5.S.                ",
"      6.T.H I W X U.V.W.X.Y.                    ",
"    k.Z.`. +W .+++@+#+~                         ",
"    A.$+&.*.%+&+*+=+                            ",
"    {.-+;+>+,+'+S.                              ",
"    6.)+!+~+Y.                                  ",
"  {+]+^+~                                       ",
"  /+(+                                          "};
