/* XPM */
static char * btn_up_xpm[] = {
"24 24 220 2",
"  	c None",
". 	c #999999",
"+ 	c #A3A3A3",
"@ 	c #232323",
"# 	c #2E2E2E",
"$ 	c #797979",
"% 	c #31444E",
"& 	c #27363E",
"* 	c #868686",
"= 	c #C3C3C3",
"- 	c #131516",
"; 	c #87BEDA",
"> 	c #7CB1CD",
", 	c #181819",
"' 	c #5A5A5A",
") 	c #476473",
"! 	c #99DBFF",
"~ 	c #94D9FF",
"{ 	c #385363",
"] 	c #676767",
"^ 	c #B0B0B0",
"/ 	c #111619",
"( 	c #8FCDEF",
"_ 	c #93D8FF",
": 	c #8ED6FF",
"< 	c #7CBFE7",
"[ 	c #0F1316",
"} 	c #B9B9B9",
"| 	c #3C3C3C",
"1 	c #5A8298",
"2 	c #8ED5FF",
"3 	c #89D2FF",
"4 	c #84D0FF",
"5 	c #446E89",
"6 	c #494949",
"7 	c #959595",
"8 	c #1B282F",
"9 	c #90D4FB",
"0 	c #8DD5FF",
"a 	c #88D2FF",
"b 	c #83CFFF",
"c 	c #7ECDFF",
"d 	c #75C4F7",
"e 	c #101C24",
"f 	c #A1A1A1",
"g 	c #222222",
"h 	c #6B9FBD",
"i 	c #8CD4FF",
"j 	c #87D2FF",
"k 	c #82CFFF",
"l 	c #7DCCFF",
"m 	c #78C9FF",
"n 	c #73C7FF",
"o 	c #4B86AE",
"p 	c #2C2C2C",
"q 	c #777777",
"r 	c #2D4451",
"s 	c #87D1FF",
"t 	c #7CCCFF",
"u 	c #77C9FF",
"v 	c #72C6FF",
"w 	c #6DC4FF",
"x 	c #68C0FE",
"y 	c #1A3142",
"z 	c #838383",
"A 	c #C1C1C1",
"B 	c #121516",
"C 	c #77B6DB",
"D 	c #86D1FF",
"E 	c #81CEFF",
"F 	c #7CCBFF",
"G 	c #6CC3FF",
"H 	c #67C0FF",
"I 	c #62BEFF",
"J 	c #4C98D0",
"K 	c #171819",
"L 	c #585858",
"M 	c #3F6176",
"N 	c #85D1FF",
"O 	c #80CEFF",
"P 	c #7BCBFF",
"Q 	c #76C8FF",
"R 	c #71C6FF",
"S 	c #62BDFF",
"T 	c #5DBBFF",
"U 	c #57B8FF",
"V 	c #214966",
"W 	c #656565",
"X 	c #AEAEAE",
"Y 	c #10171B",
"Z 	c #7DC4F0",
"` 	c #75C8FF",
" .	c #70C5FF",
"..	c #6BC3FF",
"+.	c #66C0FF",
"@.	c #61BDFF",
"#.	c #5CBAFF",
"$.	c #52B5FF",
"%.	c #46A2E9",
"&.	c #0C1217",
"*.	c #B7B7B7",
"=.	c #3A3A3A",
"-.	c #507E9B",
";.	c #7FCDFF",
">.	c #7ACAFF",
",.	c #6BC2FF",
"'.	c #65BFFF",
").	c #60BDFF",
"!.	c #5BBAFF",
"~.	c #56B7FF",
"{.	c #51B4FF",
"].	c #4CB2FF",
"^.	c #47AFFF",
"/.	c #245E8C",
"(.	c #464646",
"_.	c #939393",
":.	c #192832",
"<.	c #7DCAFC",
"[.	c #79CAFF",
"}.	c #74C7FF",
"|.	c #6FC5FF",
"1.	c #6AC2FF",
"2.	c #60BCFF",
"3.	c #55B7FF",
"4.	c #50B4FF",
"5.	c #4BB1FF",
"6.	c #46AFFF",
"7.	c #41ACFF",
"8.	c #3AA5F8",
"9.	c #081926",
"0.	c #9E9E9E",
"a.	c #202020",
"b.	c #5E99C0",
"c.	c #78CAFF",
"d.	c #6EC4FF",
"e.	c #69C1FF",
"f.	c #64BFFF",
"g.	c #5FBCFF",
"h.	c #5AB9FF",
"i.	c #55B6FF",
"j.	c #46AEFF",
"k.	c #3BA9FF",
"l.	c #36A6FF",
"m.	c #2271B1",
"n.	c #2A2A2A",
"o.	c #747474",
"p.	c #284354",
"q.	c #63BEFF",
"r.	c #5EBCFF",
"s.	c #59B9FF",
"t.	c #53B5FD",
"u.	c #4FB2FD",
"v.	c #4AB1FF",
"w.	c #45AEFF",
"x.	c #40ABFF",
"y.	c #3BA8FF",
"z.	c #31A3FF",
"A.	c #2BA0FE",
"B.	c #0A2B45",
"C.	c #818181",
"D.	c #C0C0C0",
"E.	c #111416",
"F.	c #67AEDD",
"G.	c #6DC3FF",
"H.	c #68C1FF",
"I.	c #62BCFD",
"J.	c #4D9AD1",
"K.	c #336A91",
"L.	c #1B3B52",
"M.	c #081016",
"N.	c #081119",
"O.	c #173B56",
"P.	c #256495",
"Q.	c #318CD5",
"R.	c #35A4FD",
"S.	c #30A3FF",
"T.	c #2BA0FF",
"U.	c #269DFF",
"V.	c #1B7FD2",
"W.	c #141719",
"X.	c #565656",
"Y.	c #375F79",
"Z.	c #70C4FD",
"`.	c #599FD0",
" +	c #3B6D91",
".+	c #203D51",
"++	c #0A1116",
"@+	c #272727",
"#+	c #5B5B5B",
"$+	c #909090",
"%+	c #C2C2C2",
"&+	c #BFBFBF",
"*+	c #8C8C8C",
"=+	c #242424",
"-+	c #051018",
";+	c #0E3555",
">+	c #165B94",
",+	c #1B80D4",
"'+	c #1B96FD",
")+	c #093E6A",
"!+	c #626262",
"~+	c #ACACAC",
"{+	c #030303",
"]+	c #1E3443",
"^+	c #0A1115",
"/+	c #282828",
"(+	c #5C5C5C",
"_+	c #8D8D8D",
":+	c #252525",
"<+	c #030E17",
"[+	c #042540",
"}+	c #060606",
"|+	c #B6B6B6",
"1+	c #606060",
"2+	c #5D5D5D",
"3+	c #919191",
"4+	c #C4C4C4",
"5+	c #8E8E8E",
"6+	c #595959",
"7+	c #696969",
"                                                ",
"                      . +                       ",
"                      @ #                       ",
"                    $ % & *                     ",
"                  = - ; > ,                     ",
"                  ' ) ! ~ { ]                   ",
"                ^ / ( _ : < [ }                 ",
"                | 1 _ 2 3 4 5 6                 ",
"              7 8 9 0 a b c d e f               ",
"              g h i j k l m n o p               ",
"            q r i s k t u v w x y z             ",
"          A B C D E F u v G H I J K             ",
"          L M N O P Q R G H S T U V W           ",
"        X Y Z O P `  ...+.@.#.U $.%.&.*.        ",
"        =.-.;.>.`  .,.'.).!.~.{.].^./.(.        ",
"      _.:.<.[.}.|.1.'.2.!.3.4.5.6.7.8.9.0.      ",
"      a.b.c.n d.e.f.g.h.i.4.5.j.7.k.l.m.n.      ",
"    o.p.m n d.e.q.r.s.t.u.v.w.x.y.l.z.A.B.C.    ",
"  D.E.F.v G.H.I.J.K.L.M.N.O.P.Q.R.S.T.U.V.W.    ",
"  X.Y.Z.`. +.+++@+#+$+%+&+*+L =+-+;+>+,+'+)+!+  ",
"~+{+]+^+/+(+$+=                 D._+L :+<+[+}+|+",
"1+2+3+4+                                A 5+6+7+",
"                                                ",
"                                                "};
