/* XPM */
static char * btn_log_xpm[] = {
"47 40 584 2",
"  	c None",
". 	c #CECECE",
"+ 	c #868686",
"@ 	c #545A5E",
"# 	c #3E5462",
"$ 	c #345266",
"% 	c #345468",
"& 	c #3A5667",
"* 	c #445763",
"= 	c #53595D",
"- 	c #7A7A7A",
"; 	c #C2C2C2",
"> 	c #BCBCBC",
", 	c #50585D",
"' 	c #295877",
") 	c #4998CC",
"! 	c #63C1FD",
"~ 	c #6CC5FF",
"{ 	c #75C9FF",
"] 	c #7ECCFF",
"^ 	c #87D0FF",
"/ 	c #8FD3FF",
"( 	c #98D6FF",
"_ 	c #89B9D9",
": 	c #587385",
"< 	c #4F5458",
"[ 	c #A9A9A9",
"} 	c #666A6B",
"| 	c #225A7F",
"1 	c #46AEF2",
"2 	c #52BBFF",
"3 	c #5BBEFF",
"4 	c #64C2FF",
"5 	c #73C5FB",
"6 	c #78C2F2",
"7 	c #84CBF9",
"8 	c #A1DAFF",
"9 	c #AADDFF",
"0 	c #AFDCFA",
"a 	c #6D8696",
"b 	c #585B5D",
"c 	c #D3D3D3",
"d 	c #354652",
"e 	c #2E90D0",
"f 	c #41B4FF",
"g 	c #4AB8FF",
"h 	c #51B8FB",
"i 	c #3E83AF",
"j 	c #34566A",
"k 	c #576260",
"l 	c #6F6F60",
"m 	c #7A7967",
"n 	c #727161",
"o 	c #60665F",
"p 	c #4A5D66",
"q 	c #65889F",
"r 	c #A2D3F4",
"s 	c #B2E1FF",
"t 	c #BBE4FF",
"u 	c #AFCFE4",
"v 	c #4A5156",
"w 	c #BBBBBB",
"x 	c #294254",
"y 	c #2CA0EB",
"z 	c #38B1FF",
"A 	c #307AA9",
"B 	c #4A5757",
"C 	c #B3B197",
"D 	c #FAF7D3",
"E 	c #FFFCD7",
"F 	c #FFFDDE",
"G 	c #FFFDE7",
"H 	c #FFFDE2",
"I 	c #FEFBD9",
"J 	c #C4C2A5",
"K 	c #63655C",
"L 	c #668090",
"M 	c #B8E1FB",
"N 	c #C4E8FF",
"O 	c #C7E5F8",
"P 	c #525B60",
"Q 	c #B8B8B8",
"R 	c #314652",
"S 	c #249DEC",
"T 	c #2FADFF",
"U 	c #36AAF6",
"V 	c #275068",
"W 	c #A8A68E",
"X 	c #FFFDE8",
"Y 	c #FFFFFF",
"Z 	c #FFFEF4",
"` 	c #FFFDE1",
" .	c #C3C1A5",
"..	c #4E5759",
"+.	c #B2D2E8",
"@.	c #CDEBFF",
"#.	c #D1E9F9",
"$.	c #4F5559",
"%.	c #CDCDCD",
"&.	c #63686A",
"*.	c #1989D1",
"=.	c #26AAFF",
"-.	c #2DA7F6",
";.	c #2C4B59",
">.	c #D9D6B3",
",.	c #FFFBD1",
"'.	c #FFFACF",
").	c #FFFACE",
"!.	c #FFFDE5",
"~.	c #FFFEEE",
"{.	c #ECEAC8",
"].	c #545853",
"^.	c #B9D4E6",
"/.	c #D6EEFF",
"(.	c #CDDFEB",
"_.	c #535556",
":.	c #B9B9B9",
"<.	c #0D5382",
"[.	c #1EA6FF",
"}.	c #214D67",
"|.	c #D9D4AB",
"1.	c #FFF8C6",
"2.	c #FFF7C2",
"3.	c #FFF6C0",
"4.	c #FFF6BE",
"5.	c #FFFAD7",
"6.	c #FFFEF5",
"7.	c #FFFFFD",
"8.	c #FFFEF0",
"9.	c #EEEBC9",
"0.	c #525856",
"a.	c #D0E8F8",
"b.	c #DEF2FF",
"c.	c #9AA4AB",
"d.	c #949494",
"e.	c #49545C",
"f.	c #149BF3",
"g.	c #1870A8",
"h.	c #A9A37F",
"i.	c #FFF5BC",
"j.	c #FFF4B7",
"k.	c #FFF3B3",
"l.	c #FFF2B0",
"m.	c #FFF2AF",
"n.	c #FFF7C3",
"o.	c #FFFEF6",
"p.	c #FFFDE6",
"q.	c #D0CEAF",
"r.	c #6E7980",
"s.	c #E6F5FE",
"t.	c #525557",
"u.	c #CBCBCB",
"v.	c #094D7A",
"w.	c #15A3FF",
"x.	c #1DA3FA",
"y.	c #44534F",
"z.	c #FFF3B4",
"A.	c #FFF1AD",
"B.	c #FFF0A8",
"C.	c #FFEFA4",
"D.	c #FFEEA1",
"E.	c #FFEDA0",
"F.	c #FFF5BB",
"G.	c #FFF7C5",
"H.	c #FFFDF0",
"I.	c #FFFFFC",
"J.	c #FFFCD9",
"K.	c #737263",
"L.	c #CADBE7",
"M.	c #E7F5FF",
"N.	c #999FA3",
"O.	c #A6A6A6",
"P.	c #828282",
"Q.	c #0A82CF",
"R.	c #1372AF",
"S.	c #B3A979",
"T.	c #FFEFA6",
"U.	c #FFED9F",
"V.	c #FFEC99",
"W.	c #FFEB95",
"X.	c #FFEA92",
"Y.	c #FFE990",
"Z.	c #FFF1AE",
"`.	c #FFF7C6",
" +	c #DDDBBB",
".+	c #757E84",
"++	c #E5EDF3",
"@+	c #626262",
"#+	c #4A565D",
"$+	c #0C9FFE",
"%+	c #194B67",
"&+	c #FAEA9F",
"*+	c #FFEA91",
"=+	c #FFE88B",
"-+	c #FFE786",
";+	c #FFE683",
">+	c #FFE581",
",+	c #FFEEA2",
"'+	c #FFF1AB",
")+	c #FFF3B5",
"!+	c #FFFBE3",
"~+	c #62655F",
"{+	c #F0F9FF",
"]+	c #5E6061",
"^+	c #234962",
"/+	c #0CA0FF",
"(+	c #4A594F",
"_+	c #FFEB96",
":+	c #FFE88C",
"<+	c #FFE684",
"[+	c #FFE47D",
"}+	c #FFE377",
"|+	c #FFE273",
"1+	c #FFE171",
"2+	c #FFEEA0",
"3+	c #FFF6C9",
"4+	c #FFFFFE",
"5+	c #FFFCD8",
"6+	c #757463",
"7+	c #DEEBF5",
"8+	c #6A6D6E",
"9+	c #0A4266",
"0+	c #15A1FC",
"a+	c #6A6442",
"b+	c #FFE88A",
"c+	c #FFE580",
"d+	c #FFE06F",
"e+	c #FFDF69",
"f+	c #FFDE64",
"g+	c #FFDD62",
"h+	c #FFE16F",
"i+	c #FFF2B4",
"j+	c #FFFCDD",
"k+	c #96947E",
"l+	c #C2CED6",
"m+	c #858789",
"n+	c #C7C7C7",
"o+	c #034067",
"p+	c #149EF7",
"q+	c #756A3F",
"r+	c #FFE275",
"s+	c #FFDF6B",
"t+	c #FFDB5A",
"u+	c #FFDA55",
"v+	c #FFD953",
"w+	c #FFDA56",
"x+	c #FFDB5B",
"y+	c #FFEC98",
"z+	c #A1A088",
"A+	c #B9C3CB",
"B+	c #8E9092",
"C+	c #C0C0C0",
"D+	c #6A623A",
"E+	c #FFE276",
"F+	c #FFDF6A",
"G+	c #FFDC5F",
"H+	c #FFD955",
"I+	c #FFD74D",
"J+	c #FFD646",
"K+	c #FFD543",
"L+	c #FFD647",
"M+	c #FFDC60",
"N+	c #FFED9E",
"O+	c #FFFCEC",
"P+	c #FFFDF3",
"Q+	c #FFFDE0",
"R+	c #234963",
"S+	c #4A5645",
"T+	c #FFE06E",
"U+	c #FFDD61",
"V+	c #FFD649",
"W+	c #FFD43F",
"X+	c #FFD238",
"Y+	c #FFD134",
"Z+	c #FFD239",
"`+	c #FFD440",
" @	c #FFD74A",
".@	c #FFE47C",
"+@	c #FFEB98",
"@@	c #49555D",
"#@	c #194A64",
"$@	c #FBDB66",
"%@	c #FFD74C",
"&@	c #FFCE2A",
"*@	c #FFCD25",
"=@	c #FFCE2B",
"-@	c #FFD135",
";@	c #FFDF68",
">@	c #FFE685",
",@	c #FFEA93",
"'@	c #FFF6BF",
")@	c #FFFACD",
"!@	c #5E5F60",
"~@	c #1371AF",
"{@	c #B39B44",
"]@	c #FFD546",
"^@	c #FFCB1E",
"/@	c #FFC916",
"(@	c #FFC917",
"_@	c #FFCB1F",
":@	c #FFCE2C",
"<@	c #FFDD64",
"[@	c #FFE172",
"}@	c #DED8B0",
"|@	c #454D38",
"1@	c #FFD852",
"2@	c #FFC509",
"3@	c #FFC50B",
"4@	c #FFC918",
"5@	c #FFCD26",
"6@	c #FFD544",
"7@	c #FFE170",
"8@	c #FFE57F",
"9@	c #FFE98E",
"0@	c #FFED9D",
"a@	c #FFF1AC",
"b@	c #73715C",
"c@	c #C9DBE7",
"d@	c #72777A",
"e@	c #48545B",
"f@	c #149CF3",
"g@	c #186FA8",
"h@	c #AA9035",
"i@	c #FFC60B",
"j@	c #FFC60D",
"k@	c #FFC919",
"l@	c #FFCD27",
"m@	c #D1C898",
"n@	c #6D797F",
"o@	c #899399",
"p@	c #656E74",
"q@	c #616162",
"r@	c #0D5481",
"s@	c #214B5E",
"t@	c #DAB63B",
"u@	c #FFCB20",
"v@	c #FFCB21",
"w@	c #FFCF2C",
"x@	c #FFD23A",
"y@	c #FFE98F",
"z@	c #EFE1A1",
"A@	c #525650",
"B@	c #B0C0CB",
"C@	c #586E7C",
"D@	c #C7E9FF",
"E@	c #BCCFDB",
"F@	c #505255",
"G@	c #CACACA",
"H@	c #62676A",
"I@	c #1989D2",
"J@	c #2D4648",
"K@	c #DAB436",
"L@	c #FFCF2D",
"M@	c #FFD136",
"N@	c #FFD441",
"O@	c #EDDD95",
"P@	c #545649",
"Q@	c #B8D3E5",
"R@	c #C6DDEC",
"S@	c #3A505E",
"T@	c #92D1FB",
"U@	c #B8DCF4",
"V@	c #4D5155",
"W@	c #284D5D",
"X@	c #AA8C29",
"Y@	c #FFE47B",
"Z@	c #FFE789",
"`@	c #C5B573",
" #	c #4F5551",
".#	c #B2D2E7",
"+#	c #CBE9FD",
"@#	c #445662",
"##	c #57AEE6",
"$#	c #77C9FF",
"%#	c #8DD2FF",
"&#	c #435A69",
"*#	c #536978",
"=#	c #576168",
"-#	c #5F6163",
";#	c #7D7D7D",
">#	c #284253",
",#	c #2CA0EC",
"'#	c #3079A8",
")#	c #4A4D31",
"!#	c #B4962F",
"~#	c #FBD143",
"{#	c #FEE275",
"]#	c #C5B164",
"^#	c #635F42",
"/#	c #657E8E",
"(#	c #B8E0FB",
"_#	c #687A86",
":#	c #2382C0",
"<#	c #44B5FF",
"[#	c #5ABEFF",
"}#	c #417495",
"|#	c #5C8DAE",
"1#	c #9CD8FF",
"2#	c #C8E9FF",
"3#	c #B3C5D1",
"4#	c #525556",
"5#	c #344652",
"6#	c #2E91D1",
"7#	c #51B8FA",
"8#	c #3E82AE",
"9#	c #345461",
"0#	c #585939",
"a#	c #6F6028",
"b#	c #7C6B2E",
"c#	c #73642F",
"d#	c #615E3E",
"e#	c #4A5A5C",
"f#	c #64879E",
"g#	c #A2D3F3",
"h#	c #AFD0E5",
"i#	c #2F3437",
"j#	c #135077",
"k#	c #27A6F9",
"l#	c #318DC9",
"m#	c #25526F",
"n#	c #69C4FF",
"o#	c #7FCDFF",
"p#	c #95D5FF",
"q#	c #ABDEFF",
"r#	c #C1E6FF",
"s#	c #CCE3F3",
"t#	c #5E6468",
"u#	c #9E9E9E",
"v#	c #65696B",
"w#	c #235B80",
"x#	c #77C1F1",
"y#	c #6E8797",
"z#	c #264558",
"A#	c #3C4D57",
"B#	c #2E4B5E",
"C#	c #4CB9FF",
"D#	c #62C1FF",
"E#	c #78CAFF",
"F#	c #8ED3FF",
"G#	c #A4DBFF",
"H#	c #BAE4FF",
"I#	c #D0ECFF",
"J#	c #848F97",
"K#	c #707071",
"L#	c #4F575C",
"M#	c #295978",
"N#	c #4999CD",
"O#	c #8ABADA",
"P#	c #597486",
"Q#	c #4E5458",
"R#	c #A8A8A8",
"S#	c #D8D8D8",
"T#	c #D2D2D2",
"U#	c #8A8A8A",
"V#	c #2785C2",
"W#	c #46B6FF",
"X#	c #5BBFFF",
"Y#	c #71C7FF",
"Z#	c #88D0FF",
"`#	c #9ED8FF",
" $	c #B3E1FF",
".$	c #C9EAFF",
"+$	c #AFC0CB",
"@$	c #535657",
"#$	c #858585",
"$$	c #52595E",
"%$	c #345367",
"&$	c #36576B",
"*$	c #3A5568",
"=$	c #455764",
"-$	c #53595E",
";$	c #797979",
">$	c #C1C1C1",
",$	c #22455C",
"'$	c #28A9FC",
")$	c #3FB3FF",
"!$	c #55BCFF",
"~$	c #6BC4FF",
"{$	c #81CDFF",
"]$	c #97D6FF",
"^$	c #ADDEFF",
"/$	c #C3E7FF",
"($	c #C9DFEE",
"_$	c #595E62",
":$	c #B4B4B4",
"<$	c #21455C",
"[$	c #2099E7",
"}$	c #4EB9FF",
"|$	c #7ACAFF",
"1$	c #90D3FF",
"2$	c #A6DCFF",
"3$	c #BCE4FF",
"4$	c #D1ECFE",
"5$	c #7B858C",
"6$	c #787878",
"7$	c #43525B",
"8$	c #187EC0",
"9$	c #31AEFF",
"0$	c #47B6FF",
"a$	c #5DBFFF",
"b$	c #73C8FF",
"c$	c #89D0FF",
"d$	c #9FD9FF",
"e$	c #B5E2FF",
"f$	c #CBEAFF",
"g$	c #A8B7C2",
"h$	c #57595A",
"i$	c #76787A",
"j$	c #115A8A",
"k$	c #2AAAFE",
"l$	c #40B4FF",
"m$	c #56BCFF",
"n$	c #82CEFF",
"o$	c #AEDFFF",
"p$	c #C5DAE8",
"q$	c #54595C",
"r$	c #B1B1B1",
"s$	c #AAAAAA",
"t$	c #1C4561",
"u$	c #229DED",
"v$	c #39B1FF",
"w$	c #4FBAFF",
"x$	c #65C2FF",
"y$	c #7BCBFF",
"z$	c #91D4FF",
"A$	c #A7DCFF",
"B$	c #BDE5FF",
"C$	c #D1EBFC",
"D$	c #727B82",
"E$	c #808181",
"F$	c #3A4C58",
"G$	c #1984CA",
"H$	c #32AEFF",
"I$	c #48B7FF",
"J$	c #5EC0FF",
"K$	c #74C8FF",
"L$	c #8AD1FF",
"M$	c #A0DAFF",
"N$	c #B6E2FF",
"O$	c #CCEBFF",
"P$	c #9FAEB8",
"Q$	c #5B5C5D",
"R$	c #D7D7D7",
"S$	c #6B6F72",
"T$	c #116195",
"U$	c #2BABFF",
"V$	c #57BDFF",
"W$	c #6DC6FF",
"X$	c #83CEFF",
"Y$	c #99D7FF",
"Z$	c #AFDFFF",
"`$	c #C5E8FF",
" %	c #C0D5E2",
".%	c #3E3F41",
"+%	c #A0A0A0",
"@%	c #194867",
"#%	c #24A1F2",
"$%	c #3BB2FF",
"%%	c #51BAFF",
"&%	c #66C3FF",
"*%	c #7DCCFF",
"=%	c #93D4FF",
"-%	c #A9DDFF",
";%	c #7D97A8",
">%	c #8E8E8E",
",%	c #C9C9C9",
"'%	c #334957",
")%	c #1B8AD3",
"!%	c #34AFFF",
"~%	c #60C0FF",
"{%	c #76C9FF",
"]%	c #75B0D6",
"^%	c #626566",
"/%	c #61676A",
"(%	c #1269A1",
"_%	c #2DACFF",
":%	c #43B5FF",
"<%	c #55B5F3",
"[%	c #3F4E56",
"}%	c #969696",
"|%	c #164C6F",
"1%	c #25A4F6",
"2%	c #234D68",
"3%	c #2B3A44",
"                  . + @ # $ % & * = - ;                                                       ",
"              > , ' ) ! ~ { ] ^ / ( _ : < [                                                   ",
"            } | 1 2 3 4 ~ 5 6 7 / ( 8 9 0 a b c                                               ",
"        . d e f g h i j k l m n o p q r s t u v w                                             ",
"      . x y z f A B C D E E F G H I J K L M N O P Q                                           ",
"      R S T U V W E E E E E X Y Y Y Z `  ...+.@.#.$.%.                                        ",
"    &.*.=.-.;.>.,.'.).).'.,.!.Y Y Y Y Y ~.{.].^./.(._.                                        ",
"  :.<.[.=.}.|.1.2.3.4.4.3.2.5.6.7.Y Y Y Y 8.9.0.a.b.c.d.                                      ",
"  e.f.[.g.h.i.j.k.l.m.m.l.k.j.i.n.5.o.Y Y Y p.q.r.b.s.t.                                      ",
"u.v.w.x.y.z.A.B.C.D.E.E.D.C.B.A.z.F.G.H.Y Y I.J.K.L.M.N.O.                                    ",
"P.Q.w.R.S.T.U.V.W.X.Y.Y.X.W.V.U.T.Z.j.`.I.Y Y G  +.+M.++@+                                    ",
"#+$+w.%+&+V.*+=+-+;+>+>+;+-+=+*+V.,+'+)+!+Y Y Z E ~+M.{+]+                                    ",
"^+/+w.(+_+:+<+[+}+|+1+1+|+}+[+<+:+_+2+'+3+Y Y 4+5+6+7+{+8+                                    ",
"9+/+0+a+b+c+}+d+e+f+g+g+f+e+h+}+c+b+_+D.i+Y Y Y j+k+l+{+m+n+                                  ",
"o+/+p+q+c+r+s+g+t+u+v+v+w+x+g+s+r+c+:+y+T.7.Y Y ` z+A+{+B+C+                                  ",
"9+/+0+D+E+F+G+H+I+J+K+K+L+I+w+M+s+}+;+Y.N+O+P+6.Q+k+l+{+m+n+                                  ",
"R+/+w.S+T+U+H+V+W+X+Y+Y+Z+`+ @u+g+d+.@b++@T.z.2.,.6+7+{+8+                                    ",
"@@$+w.#@$@t+%@W+Y+&@*@*@=@-@`+I+x+;@E+>@,@,+l.'@)@~+M.{+!@                                    ",
"P.Q.w.~@{@H+]@X+&@^@/@(@_@:@Z+L+u+<@[@>+Y.U.A.i.}@.+M.++@+                                    ",
"u.v.w.x.|@1@K+Y+*@/@2@3@4@5@-@6@v+g+7@8@9@0@a@F.b@c@M.d@O.                                    ",
"  e@f@[.g@h@K+Y+*@(@i@j@k@l@-@6@v+U+7@8@9@0@a@m@n@b.o@p@q@                                    ",
"  :.r@[.=.s@t@X+=@u@k@k@v@w@x@L+u+<@[@>+y@N+z@A@a.B@C@D@E@F@G@                                ",
"    H@I@=.-.J@K@-@:@l@l@L@M@N@I+t+;@E+<+X.O@P@Q@R@S@T@9 U@V@                                  ",
"      R S T U W@X@Z+-@M@x@N@ @u+U+T+Y@Z@`@ #.#+#@###$#%#&#*#=#-#;#                            ",
"      . >#,#z f '#)#!#~#L+I+u+G+F+{#]#^#/#(#N _#:#<#[#}#|#1#s 2#3#4#n+                        ",
"        . 5#6#f g 7#8#9#0#a#b#c#d#e#f#g#s t h#i#j#k#l#m#n#o#p#q#r#s#t#u#                      ",
"            v#w#1 2 3 4 ~ 5 x#7 / ( 8 9 0 y#b c w z#A#B#C#D#E#F#G#H#I#J#K#                    ",
"              w L#M#N#! ~ { ] ^ / ( O#P#Q#R#      S#T#U#V#W#X#Y#Z#`# $.$+$@$%.                ",
"                  %.#$$$# %$&$*$=$-$;$>$                ,$'$)$!$~${$]$^$/$($_$R#              ",
"                                                        :$<$[$z }$4 |$1$2$3$4$5$6$            ",
"                                                          c 7$8$9$0$a$b$c$d$e$f$g$h$c         ",
"                                                              i$j$k$l$m$~ n$( o$N p$q$r$      ",
"                                                                s$t$u$v$w$x$y$z$A$B$C$D$E$    ",
"                                                                  . F$G$H$I$J$K$L$M$N$O$P$Q$R$",
"                                                                      S$T$U$f V$W$X$Y$Z$`$ %.%",
"                                                                        +%@%#%$%%%&%*%=%-%;%>%",
"                                                                          ,%'%)%!%g ~%{%]%^%  ",
"                                                                              /%(%_%:%<%[%    ",
"                                                                                }%|%1%2%n+    ",
"                                                                                  >$3%+%      "};
