/* XPM */
static char * btn_config_xpm[] = {
"48 35 649 2",
"  	c None",
". 	c #D7D7D7",
"+ 	c #A7A7A7",
"@ 	c #767676",
"# 	c #484848",
"$ 	c #181818",
"% 	c #5F5F5F",
"& 	c #8B8B8B",
"* 	c #8C8C8C",
"= 	c #8E8E8E",
"- 	c #909090",
"; 	c #929292",
"> 	c #939393",
", 	c #949494",
"' 	c #969696",
") 	c #989898",
"! 	c #999999",
"~ 	c #9B9B9B",
"{ 	c #4A4A4A",
"] 	c #6E6E6E",
"^ 	c #B9B9B9",
"/ 	c #B3B3B3",
"( 	c #828282",
"_ 	c #6A6A69",
": 	c #6F6E6C",
"< 	c #83807C",
"[ 	c #B1ABA3",
"} 	c #716F70",
"| 	c #E0DDDF",
"1 	c #DEDCDD",
"2 	c #DDDADC",
"3 	c #DBD8DA",
"4 	c #D9D6D8",
"5 	c #D7D5D6",
"6 	c #A3A1A2",
"7 	c #515051",
"8 	c #737273",
"9 	c #969495",
"0 	c #B9B6B5",
"a 	c #CCC8C5",
"b 	c #CBC6C0",
"c 	c #918C86",
"d 	c #B1AFB0",
"e 	c #F6F4F5",
"f 	c #B4B2B3",
"g 	c #706F70",
"h 	c #696869",
"i 	c #D6D6D6",
"j 	c #BEBEBE",
"k 	c #8D8D8D",
"l 	c #6B6B6B",
"m 	c #7B797A",
"n 	c #ACA9AB",
"o 	c #E1DEE0",
"p 	c #FFFBFA",
"q 	c #FFFAF5",
"r 	c #FFF8F0",
"s 	c #F5EDE2",
"t 	c #817F80",
"u 	c #FFFCFE",
"v 	c #8E8D8E",
"w 	c #DEDBDD",
"x 	c #D4D1D3",
"y 	c #AFADAF",
"z 	c #8B898A",
"A 	c #757474",
"B 	c #757372",
"C 	c #42403E",
"D 	c #F5F2F4",
"E 	c #FEFBFD",
"F 	c #CAC7C9",
"G 	c #6A6969",
"H 	c #818181",
"I 	c #C7C7C7",
"J 	c #6F6F6F",
"K 	c #6D6C6C",
"L 	c #747374",
"M 	c #9F9E9F",
"N 	c #D5D2D4",
"O 	c #FCF9FB",
"P 	c #F1EEF0",
"Q 	c #BCBABB",
"R 	c #A5A2A1",
"S 	c #8E8B88",
"T 	c #7A7773",
"U 	c #706D69",
"V 	c #838182",
"W 	c #C7C5C6",
"X 	c #0A0A0A",
"Y 	c #A9A7A9",
"Z 	c #767576",
"` 	c #FFE8EA",
" .	c #717071",
"..	c #DFDDDE",
"+.	c #929192",
"@.	c #6C6B6B",
"#.	c #737373",
"$.	c #616060",
"%.	c #F8F5F7",
"&.	c #FFF9FB",
"*.	c #7B7A7B",
"=.	c #9B9A9B",
"-.	c #B8B6B8",
";.	c #D0CDCF",
">.	c #E7E4E6",
",.	c #FBF8FA",
"'.	c #F2EFF1",
").	c #848384",
"!.	c #F4F1F3",
"~.	c #202020",
"{.	c #000000",
"].	c #0E0D0D",
"^.	c #E0DEE0",
"/.	c #767475",
"(.	c #FFF2F4",
"_.	c #FF2E2E",
":.	c #FFEFF1",
"<.	c #999798",
"[.	c #FFFCFC",
"}.	c #F0ECE9",
"|.	c #A8A4A1",
"1.	c #706D6A",
"2.	c #6B6B6A",
"3.	c #9F9F9F",
"4.	c #FF7071",
"5.	c #FFDDDF",
"6.	c #929092",
"7.	c #E3E1E2",
"8.	c #EAE7E9",
"9.	c #CECBCD",
"0.	c #F0EDEF",
"a.	c #868486",
"b.	c #636262",
"c.	c #FF6A6A",
"d.	c #FF0000",
"e.	c #FFA4A5",
"f.	c #8B8A8B",
"g.	c #E5E2E4",
"h.	c #FFFBF8",
"i.	c #FFFAF4",
"j.	c #FFF9F1",
"k.	c #FFF8ED",
"l.	c #FAF2E5",
"m.	c #BEB7AB",
"n.	c #79746B",
"o.	c #5E5E5C",
"p.	c #777777",
"q.	c #EFECEE",
"r.	c #FF1A1A",
"s.	c #FF3333",
"t.	c #FFF4F6",
"u.	c #CCCACB",
"v.	c #504F50",
"w.	c #0E0E0E",
"x.	c #EEEBED",
"y.	c #888687",
"z.	c #646364",
"A.	c #050505",
"B.	c #171717",
"C.	c #060606",
"D.	c #403F40",
"E.	c #F9F6F8",
"F.	c #7C7A7B",
"G.	c #FFE5E7",
"H.	c #FF0101",
"I.	c #FF5455",
"J.	c #FFFBF9",
"K.	c #FFF7EA",
"L.	c #FFF6E6",
"M.	c #FFF5E2",
"N.	c #FFF3DE",
"O.	c #6A6863",
"P.	c #A5A5A5",
"Q.	c #BBB9BA",
"R.	c #FFD4D5",
"S.	c #FF7F80",
"T.	c #C0BEC0",
"U.	c #B5B3B4",
"V.	c #BDBBBC",
"W.	c #D6D4D5",
"X.	c #8A8889",
"Y.	c #F2F0F1",
"Z.	c #1C1C1C",
"`.	c #D8D5D7",
" +	c #9D9B9C",
".+	c #FF2929",
"++	c #FFA8AA",
"@+	c #ECE9EB",
"#+	c #F7F5F6",
"$+	c #FCF9FA",
"%+	c #FFF9F2",
"&+	c #FFF8EE",
"*+	c #FFF4DF",
"=+	c #E4D9C4",
"-+	c #7E7E7E",
";+	c #D4D4D4",
">+	c #868586",
",+	c #FFE0E2",
"'+	c #FF1414",
")+	c #FF9E9F",
"!+	c #D7D5D7",
"~+	c #9E9C9D",
"{+	c #535253",
"]+	c #5F5E5F",
"^+	c #E2DFE1",
"/+	c #484747",
"(+	c #B4B1B3",
"_+	c #C1BFC0",
":+	c #FF7D7E",
"<+	c #FF5A5B",
"[+	c #A2A0A2",
"}+	c #B3B0B2",
"|+	c #2F2E2E",
"1+	c #010101",
"2+	c #0B0B0B",
"3+	c #5F5D5B",
"4+	c #EAE5DF",
"5+	c #FFF7EB",
"6+	c #FFF6E7",
"7+	c #FFF5E3",
"8+	c #FFF3DB",
"9+	c #989081",
"0+	c #C2C2C2",
"a+	c #FFB8BA",
"b+	c #FF0303",
"c+	c #FFE0E1",
"d+	c #878586",
"e+	c #454545",
"f+	c #161616",
"g+	c #262526",
"h+	c #353435",
"i+	c #828081",
"j+	c #8D8B8C",
"k+	c #8F8E8F",
"l+	c #E5E3E4",
"m+	c #FFDADC",
"n+	c #FFECEE",
"o+	c #727071",
"p+	c #ADABAC",
"q+	c #020202",
"r+	c #2C2A29",
"s+	c #F5EEE2",
"t+	c #FFF4E0",
"u+	c #FFF3DC",
"v+	c #FFF2D8",
"w+	c #6D6861",
"x+	c #FFA7A8",
"y+	c #777576",
"z+	c #F3F0F2",
"A+	c #0D0D0D",
"B+	c #E7E5E6",
"C+	c #8F8D8E",
"D+	c #212121",
"E+	c #928D85",
"F+	c #FFF5E4",
"G+	c #F4E7CC",
"H+	c #706F6E",
"I+	c #7F7F7F",
"J+	c #E6E4E5",
"K+	c #7A7879",
"L+	c #DCD9DB",
"M+	c #E6E3E5",
"N+	c #908F90",
"O+	c #BAB8BA",
"P+	c #B6B3B5",
"Q+	c #57534D",
"R+	c #FFF4E1",
"S+	c #FFF3DD",
"T+	c #FFF2D9",
"U+	c #FFF1D5",
"V+	c #B0A691",
"W+	c #ADADAD",
"X+	c #AEAEAE",
"Y+	c #B1AFB1",
"Z+	c #FFFCFD",
"`+	c #767575",
" @	c #E4E1E3",
".@	c #929091",
"+@	c #797778",
"@@	c #F7F4F6",
"#@	c #EAE8E9",
"$@	c #5F5B53",
"%@	c #FFF1D6",
"&@	c #FFF0D2",
"*@	c #726D60",
"=@	c #7F7E7F",
"-@	c #949293",
";@	c #FAF7F7",
">@	c #9C9A9B",
",@	c #454444",
"'@	c #1E1E1E",
")@	c #ADA596",
"!@	c #FFF2DA",
"~@	c #FDEDCD",
"{@	c #696865",
"]@	c #706F6F",
"^@	c #767574",
"/@	c #959495",
"(@	c #D9D6D6",
"_@	c #D3D0D2",
":@	c #9D9B9D",
"<@	c #5B574F",
"[@	c #FEF2DA",
"}@	c #FFF1D7",
"|@	c #FFF0D3",
"1@	c #FFEFCF",
"2@	c #C8BBA0",
"3@	c #979797",
"4@	c #6A6A6A",
"5@	c #FFFBFB",
"6@	c #7B7978",
"7@	c #FAF7F9",
"8@	c #DFDCDE",
"9@	c #979597",
"0@	c #B5B2B1",
"a@	c #C0BEBF",
"b@	c #1B1B1B",
"c@	c #302D29",
"d@	c #B1A999",
"e@	c #FAEDD3",
"f@	c #FFEFD0",
"g@	c #FFEECC",
"h@	c #807765",
"i@	c #878787",
"j@	c #918E8C",
"k@	c #FFFCFB",
"l@	c #908E8C",
"m@	c #717070",
"n@	c #E4E2E3",
"o@	c #2E2C26",
"p@	c #E3D5B9",
"q@	c #FFEDC8",
"r@	c #6A665F",
"s@	c #B7B7B7",
"t@	c #A8A6A7",
"u@	c #A8A5A1",
"v@	c #CDCBCC",
"w@	c #DBD9DA",
"x@	c #9B999A",
"y@	c #777473",
"z@	c #E9E6E7",
"A@	c #878687",
"B@	c #3E3A32",
"C@	c #FFEDC9",
"D@	c #E0D0AD",
"E@	c #797879",
"F@	c #FFFBF7",
"G@	c #BFBBB6",
"H@	c #B6B4B5",
"I@	c #DAD7D8",
"J@	c #9C9A9C",
"K@	c #FFFAF7",
"L@	c #767472",
"M@	c #9E9C9C",
"N@	c #D2D0D1",
"O@	c #484748",
"P@	c #D6C7A6",
"Q@	c #948871",
"R@	c #C6C6C6",
"S@	c #FFFAF6",
"T@	c #D7D1CB",
"U@	c #9F9D9E",
"V@	c #D8D5D5",
"W@	c #767474",
"X@	c #DFDCDC",
"Y@	c #1E1E1D",
"Z@	c #B9AB8C",
"`@	c #6C675B",
" #	c #6C6C6C",
".#	c #EEE8E0",
"+#	c #D6D3D2",
"@#	c #A09E9F",
"##	c #FAF5EE",
"$#	c #7A797A",
"%#	c #F7F4F3",
"&#	c #EEE9E4",
"*#	c #87837F",
"=#	c #54514D",
"-#	c #68645E",
";#	c #5C5853",
">#	c #D0BF9B",
",#	c #727170",
"'#	c #D3D1D3",
")#	c #FEF8EE",
"!#	c #777676",
"~#	c #D4D1CF",
"{#	c #A19FA1",
"]#	c #DAD5CE",
"^#	c #9A999A",
"/#	c #B6B3B2",
"(#	c #BAB8B9",
"_#	c #FFF7E9",
":#	c #E1D9CB",
"<#	c #0E0D0C",
"[#	c #4E4A42",
"}#	c #25231F",
"|#	c #4D473A",
"1#	c #AC9E7F",
"2#	c #B0B0B0",
"3#	c #C0C0C0",
"4#	c #FFF9F3",
"5#	c #D3CFCC",
"6#	c #B6B1AB",
"7#	c #BFBCBE",
"8#	c #777574",
"9#	c #F9F6F7",
"0#	c #FFF5E6",
"a#	c #484641",
"b#	c #6B6559",
"c#	c #D6CAB1",
"d#	c #26231F",
"e#	c #443F33",
"f#	c #EEDAAF",
"g#	c #716957",
"h#	c #757475",
"i#	c #D1CDC9",
"j#	c #A5A3A4",
"k#	c #928E88",
"l#	c #E3E0E2",
"m#	c #FEFAF6",
"n#	c #72706F",
"o#	c #A09A8F",
"p#	c #827A6B",
"q#	c #FBEAC8",
"r#	c #BBAE93",
"s#	c #A1957C",
"t#	c #CBBB99",
"u#	c #FFEABC",
"v#	c #FCE7B7",
"w#	c #6A6864",
"x#	c #6D6C6D",
"y#	c #FFF7EC",
"z#	c #767370",
"A#	c #CFCBC6",
"B#	c #A7A4A5",
"C#	c #FFF9F4",
"D#	c #FFF8EF",
"E#	c #77736F",
"F#	c #FEFBFB",
"G#	c #CECAC6",
"H#	c #A29F9E",
"I#	c #E7DECE",
"J#	c #121110",
"K#	c #998F7C",
"L#	c #FFEFCC",
"M#	c #FFEEC9",
"N#	c #FFECC5",
"O#	c #FFEBC1",
"P#	c #FFEABD",
"Q#	c #FFE9B9",
"R#	c #C4B38C",
"S#	c #76736D",
"T#	c #CEC9C3",
"U#	c #A8A6A5",
"V#	c #76736F",
"W#	c #84817E",
"X#	c #EBE7E4",
"Y#	c #FFF6E8",
"Z#	c #F1E7D4",
"`#	c #9D9687",
" $	c #434039",
".$	c #030302",
"+$	c #AFA48D",
"@$	c #FFEDC5",
"#$	c #FFEABE",
"$$	c #FFE9BA",
"%$	c #FFE8B6",
"&$	c #7C7259",
"*$	c #CAC8C8",
"=$	c #7B766F",
"-$	c #FBF8F9",
";$	c #CCC7C0",
">$	c #AAA7A5",
",$	c #767371",
"'$	c #716E6C",
")$	c #E5D8BC",
"!$	c #8F8573",
"~$	c #D7C9AA",
"{$	c #FFEDC6",
"]$	c #FFECC2",
"^$	c #FFEBBE",
"/$	c #FFEABA",
"($	c #FFE8B7",
"_$	c #FFE7B3",
":$	c #69665C",
"<$	c #C8C8C8",
"[$	c #959393",
"}$	c #FFF6E9",
"|$	c #908B81",
"1$	c #E5E2E2",
"2$	c #CAC4BD",
"3$	c #ACA8A5",
"4$	c #FBF2E5",
"5$	c #7A7876",
"6$	c #E5DFD8",
"7$	c #8B8884",
"8$	c #FFF9F0",
"9$	c #FFF5E5",
"0$	c #FFEFCE",
"a$	c #FFEECA",
"b$	c #FFEBBF",
"c$	c #FFEABB",
"d$	c #FFE9B7",
"e$	c #FFE8B3",
"f$	c #DCC798",
"g$	c #858585",
"h$	c #727070",
"i$	c #A7A195",
"j$	c #CECBCA",
"k$	c #C8C2BA",
"l$	c #ADAAA6",
"m$	c #DBD4C7",
"n$	c #999693",
"o$	c #999590",
"p$	c #D6D1CA",
"q$	c #FFF4E2",
"r$	c #FFEECB",
"s$	c #FFEDC7",
"t$	c #FFECC3",
"u$	c #FFE9B8",
"v$	c #FFE8B4",
"w$	c #FFE7B0",
"x$	c #908161",
"y$	c #CACACA",
"z$	c #6D6C6B",
"A$	c #BFB7A9",
"B$	c #B7B4B2",
"C$	c #C7C0B7",
"D$	c #AFABA6",
"E$	c #B7B0A5",
"F$	c #BEB9B5",
"G$	c #86827C",
"H$	c #7A7671",
"I$	c #BDB7AD",
"J$	c #FAF1E1",
"K$	c #FFEBC0",
"L$	c #FFE6AD",
"M$	c #6C6556",
"N$	c #747474",
"O$	c #F3EEE8",
"P$	c #D6CDBC",
"Q$	c #A09D9A",
"R$	c #C5BEB4",
"S$	c #ABA6A0",
"T$	c #F8F0E5",
"U$	c #F9F1E2",
"V$	c #E2DCD5",
"W$	c #F5ECDB",
"X$	c #B2AA9C",
"Y$	c #756F65",
"Z$	c #726D63",
"`$	c #A79F90",
" %	c #EFE3CA",
".%	c #FFECC4",
"+%	c #FFE8B5",
"@%	c #FFE7B1",
"#%	c #EFD79F",
"$%	c #747473",
"%%	c #A1A1A1",
"&%	c #C1BCB7",
"*%	c #EDE2CF",
"=%	c #898683",
"-%	c #E2DACD",
";%	c #7F7A71",
">%	c #7E786D",
",%	c #7C7669",
"'%	c #33302A",
")%	c #98948E",
"!%	c #BEB8AE",
"~%	c #E3DACC",
"{%	c #FDF3E0",
"]%	c #FDEFD3",
"^%	c #C8BCA3",
"/%	c #807866",
"(%	c #70695A",
"_%	c #928875",
":%	c #DECFAF",
"<%	c #FFE6AE",
"[%	c #FFE5AA",
"}%	c #A8966E",
"|%	c #B4B4B4",
"1%	c #D1D1D1",
"2%	c #8C8884",
"3%	c #FBF3E5",
"4%	c #D0C8BA",
"5%	c #9A9387",
"6%	c #726F6C",
"7%	c #FFF2D7",
"8%	c #FAEBCE",
"9%	c #DACCB0",
"0%	c #B6A98F",
"a%	c #91866F",
"b%	c #776E5A",
"c%	c #746C5B",
"d%	c #6C6557",
"e%	c #766F61",
"f%	c #9B917D",
"g%	c #BFB297",
"h%	c #E4D3B0",
"i%	c #DCCBA6",
"j%	c #91856B",
"k%	c #706753",
"l%	c #80765F",
"m%	c #C9B892",
"n%	c #FDE7B5",
"o%	c #FFE7B2",
"p%	c #FFE4A6",
"q%	c #70664F",
"r%	c #484746",
"s%	c #6E6C69",
"t%	c #C1C1C1",
"u%	c #72706E",
"v%	c #F8EFE2",
"w%	c #E1D8C9",
"x%	c #CAC1B1",
"y%	c #B2AA99",
"z%	c #9B9382",
"A%	c #847C6C",
"B%	c #756D5F",
"C%	c #736C5F",
"D%	c #706B61",
"E%	c #6D6A64",
"F%	c #6C6A68",
"G%	c #727272",
"H%	c #868686",
"I%	c #9C9C9C",
"J%	c #A0A0A0",
"K%	c #6B6A68",
"L%	c #6E6961",
"M%	c #716A59",
"N%	c #6A614B",
"O%	c #433C2E",
"P%	c #342E23",
"Q%	c #665C46",
"R%	c #B3A178",
"S%	c #F6DCA1",
"T%	c #FBE0A1",
"U%	c #6B6964",
"V%	c #6F6F6E",
"W%	c #6C6B6A",
"X%	c #707070",
"Y%	c #9A9A9A",
"Z%	c #C4C4C4",
"`%	c #D9D9D9",
" &	c #808080",
".&	c #666666",
"+&	c #6E6C6A",
"@&	c #5B5444",
"#&	c #9E9E9E",
"                          . + @ # $ % & * = - ; > , ' ) ! ~ { ] ~ ^                             ",
"                  / ( _ : < [ } | 1 2 3 4 5 6 7 8 9 0 a b c d e f g h , i                       ",
"        j k l ] m n o p q r s t u u | u u u v w x y z A B C D u u u E F t G H I                 ",
") J K L M N O u P x Q R S T U V u W X Y u u Z E u ` u u u  .u u u u u u u u ..+.@.#./           ",
"$.%.u &.u u u u *.=.-.;.>.,.'.).!.~.{.].^.u /.u (._.:.u 5 <.u u u u u u u u u u [.}.|.1.2.3.    ",
"l u u 4.5.u u u 6.7.u 8.9.u 0.a.z {.{.{.b.u /.u c.d.e.u f.g.u u u u u u u u u [.h.i.j.k.l.m.n.o.",
"p.q.u r.s.t.u u Y u.u v.w.F x.y.z.A.B.C.D.E.F.G.H.d.I.u  .u u u u u u u u u [.J.q j.k.K.L.M.N.O.",
"P.Q.R.d.d.S.u u T.U.V.{.{.$ W.X.Y.o Z.| 0.`. +u .+d.++@+).u u u u u u u #+$+J.q %+&+K.L.M.*+=+-+",
";+>+,+'+d.)+u u !+~+{+{.{.{.]+f.u ^+/+3 u (+_+u :+<+u [+9.u u u u u }+|+1+2+3+4+&+5+6+7+*+8+9+0+",
"  g u a+b+c+u u q.d+e+f+g+h+i+j+u u u u u k+l+u m+n+u o+E u u u u p+q+{.{.{.{.r+s+6+7+t+u+v+w+  ",
"  l u u x+u u u E y+z+q.A+x.B+C+u u u u u Z E u u u E.y+u u u u E D+{.{.{.{.{.{.E+F+t+u+v+G+H+  ",
"  I+J+u u u u u u Z u q.K+L+M+N+u u u u u /.u u u u O+P+u u u u l+{.{.{.{.{.{.{.Q+R+S+T+U+V+W+  ",
"  X+Y+u u u u u Z+`+u u u u  @.@u u u u u /.u u u u +@@@u O 2 #@q.1+{.{.{.{.{.{.$@S+T+%@&@*@    ",
"    =@u u u u u Z+`+u u u u ^+-@u u u u ;@*.u u u u  .u >@B.{.1+,@'@{.{.{.{.{.{.)@!@%@&@~@{@    ",
"    ]@u u u u u [.^@u u u u ^./@u u u u (@>@u u u _@:@~+{.{.{.{.{.{.{.{.{.{.{.<@[@}@|@1@2@3@    ",
"    4@E u u u u 5@6@7@u u u 8@9@u u u Z+0@a@u u u y.>.b@{.{.{.{.{.{.{.{.{.{.c@d@e@|@f@g@h@.     ",
"    i@2 u u u u p j@ @u u u 2 <.u u u k@l@ @u u u m@n@{.{.{.{.{.{.{.{.{.{.{.{.{.o@p@g@q@r@      ",
"    s@t@u u u Z+h.u@v@u u u w@x@u u Z+J.y@E u u z@A@P q+{.{.{.{.{.{.{.{.{.{.{.{.{.B@C@D@H       ",
"      E@u u u [.F@G@H@u u u I@J@u u [.K@L@u u u M@N@u O@{.{.{.{.{.{.{.{.{.{.{.{.{.{.P@Q@R@      ",
"      ] u u u k@S@T@U@u u u V@~+u Z+p q W@u u Z+m@u u X@Y@{.{.{.{.{.{.{.{.{.{.{.{.{.Z@`@        ",
"       #O u u p q .#y.u u Z++#@#u [.F@##$#u u %#+@u [.h.&#*#=#-#;#{.A.{.{.{.{.{.{.{.>#,#        ",
"      - '#u Z+J.i.)#!#u u [.~#{#u p q ]#^#u [./#(#[.J.q j.k._#:#<#{.[#}#{.{.{.{.{.|#1#2#        ",
"      3#U@u Z+h.4#&+W@u u 5@5#6 [.h.4#6#7#Z+p 8#9#J.q %+&+K.0#a#{.{.b#c#d#{.{.{.e#f#g#          ",
"        h#u [.K@%+k.L@u Z+J.i#j#p S@j.k#l#k@m#n#p S@%+&+K.6+o#{.{.{.p#f@q#r#s#t#u#v#w#          ",
"        x#u 5@S@j.y#z#u [.h.A#B#h.C#D#E#F#J.G#H#S@4#D#5+6+I#J#{.{.{.K#L#M#N#O#P#Q#R#~           ",
"        J %.p q r 5+S#u 5@S@T#U#S@%+k.V#p S@W#X#4#D#5+Y#F+Z#`# $.${.+$M#@$O##$$$%$&$            ",
"        ) *$J.C#D#K.=$-$J.i.;$>$i.D#5+,$F@4#'$C#r y#Y#F+R+S+T+U+)$!$~${$]$^$/$($_$:$            ",
"        <$[$F@4#&+}$|$1$F@4#2$3$%+k.4$5$q 6$7$8$y#}$9$R+S+T+%@&@0$a${$]$b$c$d$e$f$g$            ",
"          h$S@j.y#Y#i$j$S@j.k$l$r 5+m$n$%+o$p$k._#9$q$N.!@%@&@0$r$s$t$b$c$u$v$w$x$y$            ",
"          z$q 8$5+L.A$B$i.D#C$D$&+_#E$F$D#G$H$I$J$M.N.!@}@|@1@r$s$t$K$u#u$v$w$L$M$              ",
"          N$O$D#K.9$P$Q$%+&+R$S$T$U$|$V$k.Y#W$X$Y$Z$`$ %|@1@g@q@.%K$u#Q#+%@%L$#%$%              ",
"          %%&%&+_#F+*%=%j.y#-%;%>%,%'%)%!%~%{%S+T+]%^%/%(%_%:%.%O#P#Q#+%@%<%[%}%|%              ",
"          1%2%k.3%4%5%6%D#K.L.R+u+7%8%9%0%a%b%c%d%e%f%g%h%i%j%k%l%m%n%o%<%[%p%q%                ",
"            r%s%K ; t%u%k.v%w%x%y%z%A%B%C%D%E%F%G%H%I%J%H K%L%M%N%O%P%Q%R%S%T%U%                ",
"                      V%W%X%g$Y%X+Z%`%                            0+%% &.&+&@&#&                "};
