/* XPM */
static char * btn_help_xpm[] = {
"46 40 512 2",
"  	c None",
". 	c #AEAEAE",
"+ 	c #6E6E6E",
"@ 	c #69696A",
"# 	c #6F6F6F",
"$ 	c #717171",
"% 	c #6E6E6F",
"& 	c #6A6A6A",
"* 	c #6B6B6B",
"= 	c #A2A2A2",
"- 	c #969696",
"; 	c #616161",
"> 	c #A6A6A6",
", 	c #F2F2F3",
"' 	c #FEFEFF",
") 	c #F5F5F6",
"! 	c #B5B5B6",
"~ 	c #6D6D6D",
"{ 	c #707070",
"] 	c #CDCDCD",
"^ 	c #CFCFCF",
"/ 	c #5D5D5D",
"( 	c #B4B4B5",
"_ 	c #E7E7E8",
": 	c #7A7A7B",
"< 	c #737373",
"[ 	c #BBBBBB",
"} 	c #626262",
"| 	c #EEEEEF",
"1 	c #DBDBDC",
"2 	c #606060",
"3 	c #ACACAC",
"4 	c #BFBFBF",
"5 	c #686869",
"6 	c #FAFAFB",
"7 	c #FDFDFE",
"8 	c #8E8E8E",
"9 	c #7F7F7F",
"0 	c #D6D6D6",
"a 	c #5D5D5E",
"b 	c #F8F8F9",
"c 	c #B9B9B9",
"d 	c #6C6C6C",
"e 	c #636363",
"f 	c #E6E6E7",
"g 	c #BFBFC0",
"h 	c #757575",
"i 	c #A8A8A8",
"j 	c #9F9FA0",
"k 	c #9C9C9C",
"l 	c #5E5E5E",
"m 	c #FCFCFD",
"n 	c #666667",
"o 	c #BCBCBC",
"p 	c #E0E0E1",
"q 	c #727272",
"r 	c #E9E9EA",
"s 	c #FDFEFF",
"t 	c #D9D9D9",
"u 	c #676768",
"v 	c #FBFDFF",
"w 	c #FAFDFF",
"x 	c #F8FCFF",
"y 	c #F7FCFF",
"z 	c #F6FBFF",
"A 	c #F5FBFF",
"B 	c #F7FBFF",
"C 	c #F9FCFF",
"D 	c #FCFDFF",
"E 	c #D0D0D1",
"F 	c #868686",
"G 	c #F4FAFF",
"H 	c #F2FAFF",
"I 	c #F0F9FF",
"J 	c #EFF8FF",
"K 	c #EEF8FF",
"L 	c #EDF8FF",
"M 	c #EDF7FF",
"N 	c #F2F9FF",
"O 	c #F3FAFF",
"P 	c #FCFEFF",
"Q 	c #FFFFFF",
"R 	c #F4FBFF",
"S 	c #F1F9FF",
"T 	c #ECF7FF",
"U 	c #EAF6FF",
"V 	c #E8F6FF",
"W 	c #E7F5FF",
"X 	c #E5F5FF",
"Y 	c #E5F4FF",
"Z 	c #E4F4FF",
"` 	c #E6F5FF",
" .	c #E9F6FF",
"..	c #EAF7FF",
"+.	c #828485",
"@.	c #CECECE",
"#.	c #E2F3FF",
"$.	c #E0F2FF",
"%.	c #DEF2FF",
"&.	c #DDF1FF",
"*.	c #DCF1FF",
"=.	c #DBF1FF",
"-.	c #DFF2FF",
";.	c #E1F3FF",
">.	c #E3F4FF",
",.	c #EBF7FF",
"'.	c #C9CFD4",
").	c #878787",
"!.	c #FEFFFF",
"~.	c #DAF0FF",
"{.	c #D8EFFF",
"].	c #D6EFFF",
"^.	c #D5EEFF",
"/.	c #D3EEFF",
"(.	c #D3EDFF",
"_.	c #D2EDFF",
":.	c #D4EEFF",
"<.	c #606264",
"[.	c #676868",
"}.	c #D7EFFF",
"|.	c #D0ECFF",
"1.	c #CEEBFF",
"2.	c #CCEBFF",
"3.	c #CBEAFF",
"4.	c #CAEAFF",
"5.	c #C9EAFF",
"6.	c #CDEBFF",
"7.	c #CFECFF",
"8.	c #D1EDFF",
"9.	c #E0F3FF",
"0.	c #6E767B",
"a.	c #D5D5D5",
"b.	c #E0E7EC",
"c.	c #C8E9FF",
"d.	c #C6E8FF",
"e.	c #C4E8FF",
"f.	c #C3E7FF",
"g.	c #C2E7FF",
"h.	c #C1E6FF",
"i.	c #D1ECFF",
"j.	c #B4C6D2",
"k.	c #858585",
"l.	c #B7B7B7",
"m.	c #90979C",
"n.	c #F6FCFF",
"o.	c #C0E6FF",
"p.	c #BEE5FF",
"q.	c #BCE4FF",
"r.	c #BAE4FF",
"s.	c #B9E3FF",
"t.	c #B8E3FF",
"u.	c #BBE4FF",
"v.	c #BDE5FF",
"w.	c #BFE6FF",
"x.	c #575E62",
"y.	c #5A5D5F",
"z.	c #E1F2FE",
"A.	c #F9FDFF",
"B.	c #B6E2FF",
"C.	c #B4E1FF",
"D.	c #B2E1FF",
"E.	c #B1E0FF",
"F.	c #B0E0FF",
"G.	c #AFDFFF",
"H.	c #BFE5FF",
"I.	c #99B0BF",
"J.	c #8C8C8C",
"K.	c #9D9D9D",
"L.	c #96A5AF",
"M.	c #AEDFFF",
"N.	c #ACDEFF",
"O.	c #AADDFF",
"P.	c #A8DDFF",
"Q.	c #A7DCFF",
"R.	c #A6DCFF",
"S.	c #A9DDFF",
"T.	c #ABDEFF",
"U.	c #ADDFFF",
"V.	c #5B6770",
"W.	c #C7C7C7",
"X.	c #585B5D",
"Y.	c #C7E1F3",
"Z.	c #C7E9FF",
"`.	c #A2DAFF",
" +	c #A0DAFF",
".+	c #9FD9FF",
"++	c #9ED9FF",
"@+	c #9ED8FF",
"#+	c #A4DBFF",
"$+	c #ADDEFF",
"%+	c #BADDF5",
"&+	c #4E565B",
"*+	c #D0D0D0",
"=+	c #C9C9C9",
"-+	c #5A656D",
";+	c #C1E7FF",
">+	c #B7E3FF",
",+	c #9AD7FF",
"'+	c #98D6FF",
")+	c #97D6FF",
"!+	c #96D5FF",
"~+	c #95D5FF",
"{+	c #96D6FF",
"]+	c #99D7FF",
"^+	c #9BD8FF",
"/+	c #A1DAFF",
"(+	c #A8DCFF",
"_+	c #B2D7EF",
":+	c #495257",
"<+	c #A3A3A3",
"[+	c #6C808E",
"}+	c #BCE5FF",
"|+	c #B7E2FF",
"1+	c #FBFEFF",
"2+	c #A0D9FF",
"3+	c #92D4FF",
"4+	c #90D3FF",
"5+	c #8ED3FF",
"6+	c #8DD2FF",
"7+	c #8CD2FF",
"8+	c #8ED2FF",
"9+	c #9BD7FF",
"0+	c #A3DBFF",
"a+	c #AED7F3",
"b+	c #525751",
"c+	c #7E7B65",
"d+	c #888787",
"e+	c #8E8F8F",
"f+	c #6E8899",
"g+	c #B2E0FF",
"h+	c #AADEFF",
"i+	c #8BD1FF",
"j+	c #88D0FF",
"k+	c #86CFFF",
"l+	c #85CFFF",
"m+	c #84CEFF",
"n+	c #83CEFF",
"o+	c #84CFFF",
"p+	c #87D0FF",
"q+	c #89D0FF",
"r+	c #8CD1FF",
"s+	c #8FD3FF",
"t+	c #4F5F66",
"u+	c #DED49F",
"v+	c #FFF6C1",
"w+	c #B7B290",
"x+	c #61615D",
"y+	c #D8D8D8",
"z+	c #929292",
"A+	c #5D7687",
"B+	c #A6DCFE",
"C+	c #9CD8FF",
"D+	c #93D4FF",
"E+	c #80CDFF",
"F+	c #7ECCFF",
"G+	c #7CCBFF",
"H+	c #7BCBFF",
"I+	c #89D1FF",
"J+	c #608297",
"K+	c #B1A56E",
"L+	c #FFF0A9",
"M+	c #FFF3B3",
"N+	c #FFF5BD",
"O+	c #E4DDB1",
"P+	c #5D5C51",
"Q+	c #B8B8B8",
"R+	c #ABABAB",
"S+	c #485B67",
"T+	c #92CAEE",
"U+	c #7FCDFF",
"V+	c #79CAFF",
"W+	c #76C9FF",
"X+	c #74C8FF",
"Y+	c #73C8FF",
"Z+	c #72C7FF",
"`+	c #75C9FF",
" @	c #77C9FF",
".@	c #7ACAFF",
"+@	c #7DCCFF",
"@@	c #81CDFF",
"#@	c #76AACC",
"$@	c #7A7146",
"%@	c #FFEA91",
"&@	c #FFEC9B",
"*@	c #FFEFA5",
"=@	c #FFF2B0",
"-@	c #FFF5BA",
";@	c #FBF4C1",
">@	c #434136",
",@	c #545B5F",
"'@	c #618DAA",
")@	c #8CD1FE",
"!@	c #82CEFF",
"~@	c #71C7FF",
"{@	c #6EC6FF",
"]@	c #6CC5FF",
"^@	c #6AC4FF",
"/@	c #69C4FF",
"(@	c #78CAFF",
"_@	c #7DC2EE",
":@	c #50513C",
"<@	c #FBDF77",
"[@	c #FFE683",
"}@	c #FFE98D",
"|@	c #FFEB98",
"1@	c #FFEEA2",
"2@	c #FFF1AC",
"3@	c #B1A97E",
"4@	c #979273",
"5@	c #ADA988",
"6@	c #4B4B4B",
"7@	c #A1A1A1",
"8@	c #48565F",
"9@	c #51809F",
"0@	c #75C0F1",
"a@	c #72C8FF",
"b@	c #67C3FF",
"c@	c #64C2FF",
"d@	c #62C1FF",
"e@	c #61C1FF",
"f@	c #60C0FF",
"g@	c #60C1FF",
"h@	c #63C1FF",
"i@	c #65C2FF",
"j@	c #68C3FF",
"k@	c #6BC5FF",
"l@	c #6FC6FF",
"m@	c #78C9FE",
"n@	c #3D5256",
"o@	c #E5C657",
"p@	c #FFDF6B",
"q@	c #FFE276",
"r@	c #FFE580",
"s@	c #FFE88A",
"t@	c #FFEA94",
"u@	c #DECE8A",
"v@	c #6B6547",
"w@	c #EFE3A8",
"x@	c #5E5A46",
"y@	c #C4BE98",
"z@	c #5A594E",
"A@	c #B6B6B6",
"B@	c #B4B4B4",
"C@	c #6B6D6E",
"D@	c #475C69",
"E@	c #355D76",
"F@	c #3D7194",
"G@	c #4483AC",
"H@	c #478DBA",
"I@	c #4791C2",
"J@	c #4795C8",
"K@	c #4899CE",
"L@	c #4AA0D7",
"M@	c #51ADEA",
"N@	c #58BCFE",
"O@	c #5ABEFF",
"P@	c #5CBFFF",
"Q@	c #5FC0FF",
"R@	c #66C3FF",
"S@	c #3F6E8B",
"T@	c #BC9E36",
"U@	c #FFD953",
"V@	c #FFDC5E",
"W@	c #FFDF68",
"X@	c #FFE172",
"Y@	c #FFE47C",
"Z@	c #F8E083",
"`@	c #5D5535",
" #	c #DDCD87",
".#	c #5C563C",
"+#	c #E5D99E",
"@#	c #DFD6A3",
"##	c #5E5B48",
"$#	c #B2B2B2",
"%#	c #A5A5A5",
"&#	c #9E9E9E",
"*#	c #989898",
"=#	c #939393",
"-#	c #8B8B8B",
";#	c #797979",
">#	c #606568",
",#	c #425A69",
"'#	c #2D6182",
")#	c #4BA3DD",
"!#	c #59BEFF",
"~#	c #5EBFFF",
"{#	c #4B94C3",
"]#	c #836D1E",
"^#	c #FFD33C",
"/#	c #FFD546",
"(#	c #FFD850",
"_#	c #FFDB5A",
":#	c #FFDE64",
"<#	c #FFE06F",
"[#	c #756837",
"}#	c #B7A55E",
"|#	c #5D5433",
"1#	c #ECDA8C",
"2#	c #D7C989",
"3#	c #615B41",
"4#	c #F3E9AE",
"5#	c #C9C399",
"6#	c #20201D",
"7#	c #78797A",
"8#	c #2F556E",
"9#	c #469AD0",
"0#	c #514C22",
"a#	c #FDCA23",
"b#	c #FFCF2E",
"c#	c #FFD238",
"d#	c #FFD442",
"e#	c #FFD74D",
"f#	c #FFDA57",
"g#	c #A6903F",
"h#	c #7E6E35",
"i#	c #5F542C",
"j#	c #F2D979",
"k#	c #CDBB70",
"l#	c #665E3B",
"m#	c #F8E69A",
"n#	c #BEB37F",
"o#	c #27251B",
"p#	c #53524C",
"q#	c #D4D4D4",
"r#	c #4A4A4B",
"s#	c #A37F09",
"t#	c #FFC916",
"u#	c #FFCB20",
"v#	c #FFCE2A",
"w#	c #FFD135",
"x#	c #FFD43F",
"y#	c #D6B43E",
"z#	c #443A17",
"A#	c #645624",
"B#	c #F6D764",
"C#	c #C3AC58",
"D#	c #6D6135",
"E#	c #FBE385",
"F#	c #B3A466",
"G#	c #12110B",
"H#	c #B8AC77",
"I#	c #6B6B6A",
"J#	c #888786",
"K#	c #80650D",
"L#	c #FBC512",
"M#	c #FFCA1D",
"N#	c #FFCD27",
"O#	c #F4C72F",
"P#	c #2D250B",
"Q#	c #62521A",
"R#	c #FAD44E",
"S#	c #B89E41",
"T#	c #76672E",
"U#	c #FDDF6E",
"V#	c #A6944F",
"W#	c #453E23",
"X#	c #8A7E4D",
"Y#	c #CBBC79",
"Z#	c #5D4F23",
"`#	c #E3B10E",
" $	c #FFC919",
".$	c #5D4B0D",
"+$	c #665312",
"@$	c #FDD038",
"#$	c #AB8F2D",
"$$	c #816D27",
"%$	c #9A853B",
"&$	c #7A6A33",
"*$	c #64592E",
"=$	c #FEE480",
"-$	c #847848",
";$	c #C3C3C3",
">$	c #625D4E",
",$	c #6B5306",
"'$	c #755C0A",
")$	c #FECB20",
"!$	c #9F801B",
"~$	c #8D741D",
"{$	c #8D7729",
"]$	c #9B8433",
"^$	c #5F5223",
"/$	c #EDCF61",
"($	c #C5AE58",
"_$	c #7A7A78",
":$	c #868685",
"<$	c #7F640D",
"[$	c #90710B",
"}$	c #9A7A11",
"|$	c #816919",
"1$	c #AC8E28",
"2$	c #7F6A23",
"3$	c #C9AB40",
"4$	c #EAC953",
"5$	c #5D594C",
"6$	c #463D22",
"7$	c #E1B00F",
"8$	c #765D0C",
"9$	c #B89319",
"0$	c #B49220",
"a$	c #957A21",
"b$	c #DCB83A",
"c$	c #5A502E",
"d$	c #53524D",
"e$	c #816507",
"f$	c #E0B013",
"g$	c #443609",
"h$	c #6E5C20",
"i$	c #787774",
"j$	c #D7D7D7",
"k$	c #898987",
"l$	c #342D19",
"m$	c #777777",
"                  . + @ # $ $ % & * =                                                       ",
"              - ; > , ' ' ' ' ' ' ) ! ~ { ]                                                 ",
"          ^ / ( ' ' ' ' ' ' ' ' ' ' ' ' _ : <                                               ",
"        [ } | ' ' ' ' ' ' ' ' ' ' ' ' ' ' ' 1 2 3                                           ",
"      4 5 6 ' ' ' ' ' ' ' ' ' ' ' ' ' ' ' ' ' 7 8 9                                         ",
"    0 a b ' ' ' ' ' ' ' ' ' ' ' ' ' ' ' ' ' ' ' ' c d                                       ",
"    e f ' ' ' ' ' ' ' ' ' ' ' ' ' ' ' ' ' ' ' ' ' ' g h                                     ",
"  i j ' ' ' ' ' ' ' ' ' ' ' ' ' ' ' ' ' ' ' ' ' ' ' ' j k                                   ",
"  l m ' ' ' ' ' ' ' ' ' ' ' ' ' ' ' ' ' ' ' ' ' ' ' ' ' n 0                                 ",
"o - ' ' ' ' ' ' ' ' ' ' ' ' ' ' ' ' ' ' ' ' ' ' ' ' ' ' p q                                 ",
"< r ' ' ' ' ' ' ' ' ' ' ' ' s s s s s s s ' ' ' ' ' ' ' ' $ t                               ",
"u ' ' ' ' ' ' ' ' s v w x y z z A A A z B x C w D s ' ' ' E F                               ",
"~ ' ' ' ' ' s v x z G H I J K L M M M L K J I N O z x w P ' e                               ",
"{ ' ' ' s s Q R S K T U V W X Y Z Z Z Z Y ` W  ...T J N R x +.@.                            ",
"{ ' s D Q Q Q G  .` Z #.$.%.&.*.=.=.=.=.*.&.%.-.;.>.`  .,.J '.).                            ",
"~ s C A !.Q Q v #.-.*.~.{.].^./.(._._._.(.:.^.].{.~.&.-.#.`  .<.                            ",
"[.y O K A Q Q Q  .}.^._.|.1.2.3.4.4.5.5.4.3.2.6.7.8.:.].~.&.9.0.a.                          ",
"q b.M V ` !.Q Q P }.6.4.c.d.e.f.g.h.h.h.h.g.f.e.d.c.3.6.i.:.}.j.k.                          ",
"l.m.W #.&.L Q Q Q n.4.f.o.p.q.r.s.t.t.t.t.s.r.u.v.w.g.e.c.3.7.(.x.                          ",
"  y.z.*.}.^.A.Q Q Q A e.t.B.C.D.E.F.G.G.G.F.E.D.C.B.s.u.H.g.d.4.I.J.                        ",
"  K.L.}._.6.^.!.Q Q Q A.c.M.N.O.P.Q.Q.R.R.Q.P.S.T.U.F.D.B.s.v.h.d.V.W.                      ",
"    X.Y.2.Z.g.~.Q Q Q Q Q ~.P.`. +.+++@+@+++.+ +`.#+Q.S.$+F.C.t.v.%+&+*+                    ",
"    =+-+Z.;+q.>+}.Q Q Q Q Q 7.,+'+)+!+~+~+~+{+)+]+^+++/+#+(+T.F.C.s._+:+l.                  ",
"      <+[+}+|+E.N.c.v Q Q 1+2+3+4+5+6+7+7+7+6+8+4+3+~+'+9+.+0+Q.N.E.a+b+c+d+                ",
"        e+f+g+N.Q.`.h+%.!.7.8+i+j+k+l+m+n+n+o+l+p+q+r+s+3+{+,+.+#+P.t+u+v+w+x+y+            ",
"          z+A+B+`.C+)+3+++D+k+n+E+F+G+H+H+H+H+G+F+E+n+k+I+6+3+{+^+J+K+L+M+N+O+P+Q+          ",
"            R+S+T+)+3+7+j+n+U+G+V+W+X+Y+Z+Z+Z+Y+`+ @.@+@@@l+q+8+#@$@%@&@*@=@-@;@>@F         ",
"              ^ ,@'@)@p+!@+@V+`+~@{@]@^@/@/@/@^@]@{@~@X+(@G+@@_@:@<@[@}@|@1@2@3@4@5@6@y+    ",
"                  7@8@9@0@ @a@{@^@b@c@d@e@f@g@e@h@i@j@k@l@Y+m@n@o@p@q@r@s@t@u@v@w@x@y@z@A@  ",
"                      B@C@D@E@F@G@H@I@J@K@L@M@N@O@P@Q@d@R@k@S@T@U@V@W@X@Y@Z@`@ #.#+#@###c+F ",
"                              W.$#%#&#*#=#-#;#>#,#'#)#!#~#{#]#^#/#(#_#:#<#[#}#|#1#2#3#4#5#6#",
"                                                  *+7#8#9#0#a#b#c#d#e#f#g#h#i#j#k#l#m#n#o#p#",
"                                                      q#r#s#t#u#v#w#x#y#z#A#B#C#D#E#F#G#H#I#",
"                                                          J#K#L#M#N#O#P#Q#R#S#T#U#V#W#X#Y#z+",
"                                                            c Z#`# $.$+$@$#$$$f#%$&$*$=$-$;$",
"                                                              t >$,$'$)$!$~$x#{$]$^$/$($_$  ",
"                                                                  :$<$[$}$N#|$1$2$3$4$5$    ",
"                                                                    c 6$7$8$9$0$a$b$c$q#    ",
"                                                                      t d$e$f$g$h$i$j$      ",
"                                                                          k$l$m$t           "};
