/* XPM */
static char * btn_addfilt32_xpm[] = {
"32 32 449 2",
"  	c None",
". 	c #BDBDBD",
"+ 	c #989898",
"@ 	c #D7D7D7",
"# 	c #636363",
"$ 	c #181C1C",
"% 	c #374040",
"& 	c #030303",
"* 	c #C6C6C6",
"= 	c #B3B3B3",
"- 	c #8C8C8C",
"; 	c #6B6B6B",
"> 	c #4B4B4B",
", 	c #303030",
"' 	c #171717",
") 	c #050505",
"! 	c #000000",
"~ 	c #020202",
"{ 	c #5F6F6F",
"] 	c #DBFFFF",
"^ 	c #DAFEFF",
"/ 	c #D4FBFF",
"( 	c #0A0C0D",
"_ 	c #C8C8C8",
": 	c #8A8A8A",
"< 	c #535353",
"[ 	c #212121",
"} 	c #1E1E1E",
"| 	c #4A494A",
"1 	c #6F6E6F",
"2 	c #939192",
"3 	c #B2B0AF",
"4 	c #CDCAC8",
"5 	c #E6E1DD",
"6 	c #F9F3EC",
"7 	c #797672",
"8 	c #D9FEFF",
"9 	c #D2FAFF",
"0 	c #C9F5FF",
"a 	c #CDCDCD",
"b 	c #767676",
"c 	c #282828",
"d 	c #0A0A0A",
"e 	c #464646",
"f 	c #858384",
"g 	c #BEBBBD",
"h 	c #EFECEE",
"i 	c #FFFCFE",
"j 	c #FFFCFB",
"k 	c #FFFBF8",
"l 	c #FFFAF5",
"m 	c #FFF9F2",
"n 	c #FFF8EE",
"o 	c #7A7671",
"p 	c #5D6D6F",
"q 	c #D0F9FF",
"r 	c #C8F4FF",
"s 	c #BFF0FF",
"t 	c #090C0D",
"u 	c #5B5B5B",
"v 	c #2A2A2A",
"w 	c #AFADAE",
"x 	c #F5F2F4",
"y 	c #FFFCFD",
"z 	c #FFFBFB",
"A 	c #FFFAF4",
"B 	c #FFF9F1",
"C 	c #FFF7EB",
"D 	c #7A766F",
"E 	c #586B6F",
"F 	c #C6F3FF",
"G 	c #BEEFFF",
"H 	c #B5EAFF",
"I 	c #333333",
"J 	c #433C2D",
"K 	c #96896D",
"L 	c #0D0D0C",
"M 	c #D0CDCF",
"N 	c #FFFBFA",
"O 	c #FFFAF7",
"P 	c #FAF3E9",
"Q 	c #E1DACF",
"R 	c #C5BEB3",
"S 	c #56534D",
"T 	c #54696F",
"U 	c #BCEEFF",
"V 	c #B3E9FF",
"W 	c #ABE5FF",
"X 	c #080B0D",
"Y 	c #7D7D7D",
"Z 	c #322D21",
"` 	c #F8E1AF",
" .	c #FFEDC8",
"..	c #80796C",
"+.	c #444343",
"@.	c #E4E1E0",
"#.	c #A3A09E",
"$.	c #777472",
"%.	c #4C4A48",
"&.	c #252422",
"*.	c #50666F",
"=.	c #B2E8FF",
"-.	c #A9E4FF",
";.	c #A1E0FF",
">.	c #656565",
",.	c #757575",
"'.	c #A39473",
").	c #BFB191",
"!.	c #7A7365",
"~.	c #2F2D2A",
"{.	c #D1CED0",
"].	c #CECCCD",
"^.	c #747374",
"/.	c #282827",
"(.	c #070707",
"_.	c #1B1A1A",
":.	c #1A1E1E",
"<.	c #586666",
"[.	c #556566",
"}.	c #526366",
"|.	c #4F6166",
"1.	c #4C6066",
"2.	c #485E66",
"3.	c #7398A9",
"4.	c #A7E3FF",
"5.	c #9FDFFF",
"6.	c #97DAFF",
"7.	c #3D5C6E",
"8.	c #355366",
"9.	c #325266",
"0.	c #2F5066",
"a.	c #2B4E66",
"b.	c #284C66",
"c.	c #22445D",
"d.	c #060604",
"e.	c #1C1C1C",
"f.	c #999999",
"g.	c #515151",
"h.	c #757474",
"i.	c #D8D5D7",
"j.	c #111010",
"k.	c #656362",
"l.	c #B5B2AF",
"m.	c #F4EEE8",
"n.	c #928E8A",
"o.	c #404B4B",
"p.	c #D6FCFF",
"q.	c #CEF8FF",
"r.	c #B6EBFF",
"s.	c #AEE6FF",
"t.	c #A5E2FF",
"u.	c #9DDEFF",
"v.	c #95D9FF",
"w.	c #8DD5FF",
"x.	c #85D1FF",
"y.	c #7DCCFF",
"z.	c #75C8FF",
"A.	c #6DC3FF",
"B.	c #65BFFF",
"C.	c #5DBBFF",
"D.	c #4DA6E8",
"E.	c #858585",
"F.	c #C3C3C3",
"G.	c #A8A8A8",
"H.	c #212020",
"I.	c #FEFBFC",
"J.	c #F5F1EF",
"K.	c #C2BEBB",
"L.	c #6C6A67",
"M.	c #232221",
"N.	c #010101",
"O.	c #3E4A4B",
"P.	c #CCF7FF",
"Q.	c #C4F2FF",
"R.	c #B4EAFF",
"S.	c #ACE5FF",
"T.	c #A4E1FF",
"U.	c #9BDDFF",
"V.	c #93D8FF",
"W.	c #8BD4FF",
"X.	c #83CFFF",
"Y.	c #7BCBFF",
"Z.	c #73C7FF",
"`.	c #6BC2FF",
" +	c #63BEFF",
".+	c #5BBAFF",
"++	c #53B5FF",
"@+	c #44A1E8",
"#+	c #0D0D0D",
"$+	c #D6D2D0",
"%+	c #8D8B88",
"&+	c #191817",
"*+	c #6F6C67",
"=+	c #BBB6AD",
"-+	c #948F87",
";+	c #3B484B",
">+	c #C2F1FF",
",+	c #BAEDFF",
"'+	c #B2E9FF",
")+	c #AAE4FF",
"!+	c #A2E0FF",
"~+	c #99DBFF",
"{+	c #91D7FF",
"]+	c #89D3FF",
"^+	c #81CEFF",
"/+	c #79CAFF",
"(+	c #71C6FF",
"_+	c #69C1FF",
":+	c #61BDFF",
"<+	c #59B9FF",
"[+	c #51B4FF",
"}+	c #49B0FF",
"|+	c #3B9CE8",
"1+	c #474747",
"2+	c #908D8A",
"3+	c #F3EEE7",
"4+	c #FAF3EA",
"5+	c #FDF6EA",
"6+	c #CCC5BA",
"7+	c #5A5751",
"8+	c #040606",
"9+	c #0F1214",
"0+	c #0E1214",
"a+	c #0D1214",
"b+	c #0D1114",
"c+	c #0C1114",
"d+	c #0B1114",
"e+	c #40647A",
"f+	c #7FCDFF",
"g+	c #77C9FF",
"h+	c #6FC5FF",
"i+	c #0D1820",
"j+	c #080F14",
"k+	c #070E14",
"l+	c #060E14",
"m+	c #050D14",
"n+	c #040C12",
"o+	c #808080",
"p+	c #52504E",
"q+	c #88837E",
"r+	c #201F1D",
"s+	c #141312",
"t+	c #59554E",
"u+	c #989184",
"v+	c #C9BFAD",
"w+	c #D5C9B4",
"x+	c #D5C9B1",
"y+	c #D5C8AF",
"z+	c #D5C7AC",
"A+	c #655F51",
"B+	c #35586F",
"C+	c #6DC4FF",
"D+	c #05090D",
"E+	c #15130F",
"F+	c #797979",
"G+	c #C0C0C0",
"H+	c #B7B7B7",
"I+	c #171716",
"J+	c #FEF6EA",
"K+	c #98928A",
"L+	c #B9B2A5",
"M+	c #FBF1DE",
"N+	c #FFF3DE",
"O+	c #FFF3DB",
"P+	c #FFF2D8",
"Q+	c #FFF1D5",
"R+	c #FFF0D1",
"S+	c #FFEFCE",
"T+	c #FFEECB",
"U+	c #7A7160",
"V+	c #31566F",
"W+	c #04090D",
"X+	c #5C5341",
"Y+	c #565656",
"Z+	c #080808",
"`+	c #E0D8CB",
" @	c #FFF5E4",
".@	c #FFF4E1",
"+@	c #FFF2D7",
"@@	c #FFF1D4",
"#@	c #7A715E",
"$@	c #2D536F",
"%@	c #A19270",
"&@	c #181818",
"*@	c #323232",
"=@	c #ABA499",
"-@	c #FFF3DD",
";@	c #FFF2DA",
">@	c #FFEECA",
",@	c #FFEDC7",
"'@	c #FFECC4",
")@	c #7A705C",
"!@	c #28516F",
"~@	c #57B8FF",
"{@	c #4FB3FF",
"]@	c #47AFFF",
"^@	c #03090D",
"/@	c #D7C293",
"(@	c #0E0D0A",
"_@	c #C1C1C1",
":@	c #5F5F5F",
"<@	c #7A756B",
"[@	c #FFF1D7",
"}@	c #FFF0D0",
"|@	c #FFEFCD",
"1@	c #FFEBC0",
"2@	c #7A705B",
"3@	c #244F6F",
"4@	c #4DB2FF",
"5@	c #45AEFF",
"6@	c #3DA9FF",
"7@	c #03080D",
"8@	c #DCC592",
"9@	c #4B4331",
"0@	c #868686",
"a@	c #898989",
"b@	c #4C4841",
"c@	c #FFF1D6",
"d@	c #FFF0D3",
"e@	c #FFECC3",
"f@	c #FFEABD",
"g@	c #7A6F59",
"h@	c #1D4767",
"i@	c #3EA1ED",
"j@	c #379DED",
"k@	c #2F98ED",
"l@	c #02080C",
"m@	c #DCC48F",
"n@	c #8A7B59",
"o@	c #4F4F4F",
"p@	c #B2B2B2",
"q@	c #1F1D1A",
"r@	c #FFEFD0",
"s@	c #FFEEC9",
"t@	c #FFEDC6",
"u@	c #FFE9B9",
"v@	c #7A6F57",
"w@	c #DCC48C",
"x@	c #C4AE7B",
"y@	c #1A1A1A",
"z@	c #030302",
"A@	c #F2E4C8",
"B@	c #FFEFCF",
"C@	c #FFEECC",
"D@	c #FFEBBF",
"E@	c #FFEABC",
"F@	c #FFE8B6",
"G@	c #FDE5B1",
"H@	c #FBE3AC",
"I@	c #FBE2A9",
"J@	c #FBE1A6",
"K@	c #FBE0A3",
"L@	c #FBDFA0",
"M@	c #FEE29F",
"N@	c #F7DB99",
"O@	c #080705",
"P@	c #CBCBCB",
"Q@	c #CCBFA5",
"R@	c #FFEDC5",
"S@	c #FFECC2",
"T@	c #FFE7B2",
"U@	c #FFE6AF",
"V@	c #FFE6AC",
"W@	c #FFE5A9",
"X@	c #FFE4A6",
"Y@	c #FFE3A3",
"Z@	c #FFE29F",
"`@	c #FFE29E",
" #	c #3A3324",
".#	c #979797",
"+#	c #393939",
"@#	c #A79C85",
"##	c #FFE9B8",
"$#	c #FFE8B5",
"%#	c #FFE5AC",
"&#	c #FFE5A8",
"*#	c #FFE4A5",
"=#	c #FFE3A2",
"-#	c #716446",
";#	c #676767",
">#	c #5A5A5A",
",#	c #827965",
"'#	c #FFECC5",
")#	c #FFEBBE",
"!#	c #FFEABB",
"~#	c #FFE6AE",
"{#	c #FFE5AB",
"]#	c #FFE4A8",
"^#	c #A59266",
"/#	c #373737",
"(#	c #7B7B7B",
"_#	c #5D5647",
":#	c #FFEBC1",
"<#	c #FFE8B4",
"[#	c #FFE7B1",
"}#	c #FFE3A5",
"|#	c #FFE3A1",
"1#	c #D9C086",
"2#	c #0C0C0C",
"3#	c #9B9B9B",
"4#	c #3B362C",
"5#	c #FFEABE",
"6#	c #FFEABA",
"7#	c #FFE9B7",
"8#	c #FFE4A7",
"9#	c #FFE3A4",
"0#	c #FADD9B",
"a#	c #D5BD84",
"b#	c #A99568",
"c#	c #7C6E4D",
"d#	c #504732",
"e#	c #231F16",
"f#	c #C5C5C5",
"g#	c #B8B8B8",
"h#	c #1B1914",
"i#	c #FFE9BA",
"j#	c #FFE6AD",
"k#	c #FFE5AA",
"l#	c #FEE3A6",
"m#	c #DFC790",
"n#	c #B39F71",
"o#	c #877854",
"p#	c #5B5038",
"q#	c #2E291D",
"r#	c #0F0F0F",
"s#	c #363636",
"t#	c #5E5E5E",
"u#	c #AEAEAE",
"v#	c #D5D5D5",
"w#	c #D4D4D4",
"x#	c #F7E1B1",
"y#	c #EAD4A4",
"z#	c #BEAC84",
"A#	c #928363",
"B#	c #655B44",
"C#	c #393326",
"D#	c #0E0D09",
"E#	c #2C2C2C",
"F#	c #545454",
"G#	c #7C7C7C",
"H#	c #A4A4A4",
"I#	c #CCCCCC",
"J#	c #14120E",
"K#	c #040403",
"L#	c #232323",
"M#	c #737373",
"N#	c #C2C2C2",
"O#	c #A3A3A3",
"P#	c #B9B9B9",
"                                                                ",
"                                      . + + + + +               ",
"                                    @ # $ % % % & *             ",
"                      = - ; > , ' ) ! ~ { ] ^ / ( *             ",
"            _ : < [ & } | 1 2 3 4 5 6 7 { 8 9 0 ( *             ",
"      a b c d e f g h i i i j k l m n o p q r s t *             ",
"    u ) v w x i i i i i y z k A B n C D E F G H t *             ",
"  I J K L M i i i i i y N O A B P Q R S T U V W X *             ",
"Y Z `  ...+.i i i i y @.#.$.%.&.) ! ! ! *.=.-.;.X >.,.,.,.,.,.,.",
"c '.).!.~.! {.i ].^./.(._.:.<.[.}.|.1.2.3.4.5.6.7.8.9.0.a.b.c.! ",
"& d.e.u f.g.h.i.j.k.l.m.n.o.p.q.F G r.s.t.u.v.w.x.y.z.A.B.C.D.! ",
"E.F.      G.H.I.J.K.L.M.N.O.P.Q.U R.S.T.U.V.W.X.Y.Z.`. +.+++@+! ",
"            #+$+%+&+*+=+-+;+>+,+'+)+!+~+{+]+^+/+(+_+:+<+[+}+|+! ",
"            1+2+3+4+5+6+7+8+9+0+a+b+c+d+e+f+g+h+i+j+k+l+l+m+n+! ",
"            o+p+n q+r+s+t+u+v+w+x+y+z+A+B+z.C+B.D+E+F+G+G+G+G+G+",
"            H+I+J+K+L+M+N+O+P+Q+R+S+T+U+V+`. +.+W+X+Y+          ",
"              Z+`+ @.@N+O++@@@R+S+T+ .#@$@:+<+[+W+%@&@          ",
"              *@=@.@-@;@+@@@R+S+>@,@'@)@!@~@{@]@^@/@(@_@        ",
"              :@<@-@;@[@@@}@|@>@,@'@1@2@3@4@5@6@7@8@9@0@        ",
"              a@b@;@c@d@}@|@>@,@e@1@f@g@h@i@j@k@l@m@n@o@        ",
"              p@q@c@d@r@|@s@t@e@1@f@u@v@! ! ! ! ! w@x@y@        ",
"              @ z@A@B@C@s@t@e@D@E@u@F@G@H@I@J@K@L@M@N@O@P@      ",
"                ' Q@C@s@R@S@D@E@u@F@T@U@V@W@X@Y@Z@`@`@ #.#      ",
"                +#@# .R@S@D@E@##$#T@U@%#&#*#=#Z@`@`@`@-#;#      ",
"                >#,#'#S@)#!###$#T@~#{#]#*#=#Z@`@`@`@`@^#/#      ",
"                (#_#:#)#!###<#[#~#{#]#}#|#Z@`@`@`@`@`@1#2#      ",
"                3#4#5#6#7#<#[#~#{#8#9#|#`@`@0#a#b#c#d#e#N.f#    ",
"                g#h#i#7#<#[#j#k#l#m#n#o#p#q#O@r#s#t#0@u#v#      ",
"                w#z@x#y#z#A#B#C#D#Z+E#F#G#H#I#                  ",
"                  d J#K#L#> M#3#N#                              ",
"                  O#P#                                          ",
"                                                                "};
