/* XPM */
static char * btn_ok32_xpm[] = {
"32 32 238 2",
"  	c None",
". 	c #D2D2D2",
"+ 	c #C7C7C7",
"@ 	c #D9D9D9",
"# 	c #717171",
"$ 	c #0B0B0B",
"% 	c #575757",
"& 	c #8D8D8D",
"* 	c #151515",
"= 	c #000000",
"- 	c #353535",
"; 	c #BDBDBD",
"> 	c #333333",
", 	c #202212",
"' 	c #15170C",
") 	c #2E2E2E",
"! 	c #727272",
"~ 	c #0B0C08",
"{ 	c #717A41",
"] 	c #5D6435",
"^ 	c #252525",
"/ 	c #D3D3D3",
"( 	c #C1C1C1",
"_ 	c #2C2C2C",
": 	c #2E331B",
"< 	c #BACB6B",
"[ 	c #798546",
"} 	c #191919",
"| 	c #CBCBCB",
"1 	c #8C8C8C",
"2 	c #0C0D0B",
"3 	c #6E7A40",
"4 	c #D7EF7D",
"5 	c #90A154",
"6 	c #0F100F",
"7 	c #BEBEBE",
"8 	c #555555",
"9 	c #181A0E",
"0 	c #A5B960",
"a 	c #D6F27E",
"b 	c #A6BE62",
"c 	c #0C0D09",
"d 	c #A7A7A7",
"e 	c #CECECE",
"f 	c #2F2F2F",
"g 	c #363D20",
"h 	c #C2DE72",
"i 	c #D1F17C",
"j 	c #B9D76E",
"k 	c #15180D",
"l 	c #888888",
"m 	c #1A1A1A",
"n 	c #566333",
"o 	c #CCEC79",
"p 	c #CCF07A",
"q 	c #C4E976",
"r 	c #2C341B",
"s 	c #5D5D5D",
"t 	c #444444",
"u 	c #C0C0C0",
"v 	c #B2B2B2",
"w 	c #111110",
"x 	c #6F8242",
"y 	c #CAEF7A",
"z 	c #C7EE79",
"A 	c #C3ED78",
"B 	c #526432",
"C 	c #343434",
"D 	c #BCBCBC",
"E 	c #111111",
"F 	c #030303",
"G 	c #4F4F4F",
"H 	c #BBBBBB",
"I 	c #B1B1B1",
"J 	c #0E0E0D",
"K 	c #7B924A",
"L 	c #C6EE78",
"M 	c #C2ED77",
"N 	c #BEEC76",
"O 	c #7D9C4E",
"P 	c #131313",
"Q 	c #CCCCCC",
"R 	c #B4B4B4",
"S 	c #0A0A0A",
"T 	c #272916",
"U 	c #0C0D07",
"V 	c #464646",
"W 	c #BABABA",
"X 	c #0F0F0E",
"Y 	c #7A944A",
"Z 	c #C1ED77",
"` 	c #BDEC76",
" .	c #BAEB74",
"..	c #9FCD65",
"+.	c #0D1008",
"@.	c #A3A3A3",
"#.	c #A0A0A0",
"$.	c #0E0F09",
"%.	c #AAB560",
"&.	c #6A733D",
"*.	c #0B0C07",
"=.	c #595959",
"-.	c #D5D5D5",
";.	c #161616",
">.	c #6C8643",
",.	c #BCEC75",
"'.	c #B8EB74",
").	c #B5EA73",
"!.	c #AFE671",
"~.	c #2A381B",
"{.	c #656565",
"].	c #7E7E7E",
"^.	c #1D1F11",
"/.	c #CAE176",
"(.	c #BFD870",
"_.	c #455029",
":.	c #161615",
"<.	c #A5A5A5",
"[.	c #2D2D2D",
"}.	c #506632",
"|.	c #B7EA74",
"1.	c #B3E972",
"2.	c #B0E871",
"3.	c #ACE870",
"4.	c #5D7E3D",
"5.	c #262626",
"6.	c #3E4724",
"7.	c #CDEF7A",
"8.	c #CBEF7A",
"9.	c #829C4F",
"0.	c #0D0F08",
"a.	c #747474",
"b.	c #606060",
"c.	c #2C391C",
"d.	c #AFE670",
"e.	c #AEE871",
"f.	c #ABE770",
"g.	c #A7E66F",
"h.	c #8CC45E",
"i.	c #090C07",
"j.	c #B6B6B6",
"k.	c #222222",
"l.	c #6E8543",
"m.	c #BFEC76",
"n.	c #9EC763",
"o.	c #1A2211",
"p.	c #3D3D3D",
"q.	c #0C0F08",
"r.	c #99CE64",
"s.	c #A9E76F",
"t.	c #A6E66E",
"u.	c #A2E56D",
"v.	c #9EE36C",
"w.	c #283A1B",
"x.	c #686868",
"y.	c #B7B7B7",
"z.	c #0A0C08",
"A.	c #9BC461",
"B.	c #B6EA73",
"C.	c #A0D568",
"D.	c #222F16",
"E.	c #648A42",
"F.	c #A4E66E",
"G.	c #A1E56D",
"H.	c #9DE46B",
"I.	c #9AE36A",
"J.	c #629244",
"K.	c #1C1C1C",
"L.	c #263118",
"M.	c #ABE56F",
"N.	c #AAE76F",
"O.	c #9BDB68",
"P.	c #9EE36B",
"Q.	c #9CE36B",
"R.	c #98E36A",
"S.	c #95E269",
"T.	c #8AD663",
"U.	c #0F170B",
"V.	c #9D9D9D",
"W.	c #272727",
"X.	c #5E823E",
"Y.	c #9EE46C",
"Z.	c #97E269",
"`.	c #93E168",
" +	c #90E067",
".+	c #8CDF66",
"++	c #446E32",
"@+	c #3B3B3B",
"#+	c #AEAEAE",
"$+	c #0A0F07",
"%+	c #8BCE60",
"&+	c #92E168",
"*+	c #8EE067",
"=+	c #8BDF65",
"-+	c #87DE64",
";+	c #78C95A",
">+	c #070B06",
",+	c #B9B9B9",
"'+	c #525252",
")+	c #365427",
"!+	c #8DE066",
"~+	c #89DF65",
"{+	c #86DE64",
"]+	c #82DD63",
"^+	c #7FDC62",
"/+	c #36602A",
"(+	c #4D4D4D",
"_+	c #0B0C0B",
":+	c #6BB350",
"<+	c #81DD62",
"[+	c #7DDC61",
"}+	c #7ADB60",
"|+	c #6CC656",
"1+	c #060A05",
"2+	c #213B1A",
"3+	c #78DA5F",
"4+	c #75DA5E",
"5+	c #71D95D",
"6+	c #34662C",
"7+	c #4A4A4A",
"8+	c #141414",
"9+	c #529E44",
"0+	c #6CD75C",
"a+	c #64CE57",
"b+	c #081007",
"c+	c #B3B3B3",
"d+	c #808080",
"e+	c #162F14",
"f+	c #63D559",
"g+	c #3B8135",
"h+	c #313131",
"i+	c #40943C",
"j+	c #132C12",
"k+	c #8E8E8E",
"l+	c #868686",
"m+	c #0A1A0A",
"n+	c #535353",
"o+	c #AAAAAA",
"                                                                ",
"                                                            . + ",
"                                                        @ # $ % ",
"                                                      & * = -   ",
"                                                  ; > , ' ) @   ",
"                                                ! ~ { ] ^ /     ",
"                                            ( _ : < [ } |       ",
"                                          1 2 3 4 5 6 7         ",
"                                        8 9 0 a b c d           ",
"                                    e f g h i j k l             ",
"                                  7 m n o p q r s               ",
"s t u                           v w x y z A B C                 ",
"D E F G H                     I J K L M N O P Q                 ",
"  R S T U V D               W X Y Z `  ...+.@.                  ",
"    #.$.%.&.*.=.-.        | ;.>.,.'.).!.~.{.                    ",
"      ].^./.(._.:.<.      [.}.|.1.2.3.4.5.                      ",
"        G 6.7.8.9.0.a.  b.c.d.e.f.g.h.i.j.                      ",
"          k.l.M m.n.o.p.q.r.s.t.u.v.w.x.                        ",
"          y.z.A.B.1.C.D.E.F.G.H.I.J.K.                          ",
"            ! L.M.N.t.O.P.Q.R.S.T.U.V.                          ",
"              W.X.u.Y.I.Z.`. +.+++@+                            ",
"              #+$+%+S.&+*+=+-+;+>+,+                            ",
"                '+)+!+~+{+]+^+/+(+                              ",
"                e _+:+<+[+}+|+1+u                               ",
"                  # 2+3+4+5+6+7+                                ",
"                    8+9+0+a+b+c+                                ",
"                    d+e+f+g+h+                                  ",
"                      } i+j+k+                                  ",
"                      l+m+$                                     ",
"                        m n+                                    ",
"                        o+D                                     ",
"                                                                "};
