/* XPM */
static char * btn_add20_xpm[] = {
"20 20 107 2",
"  	c None",
". 	c #000000",
"+ 	c #DBFFFF",
"@ 	c #D6FCFF",
"# 	c #D4FBFF",
"$ 	c #CCF7FF",
"% 	c #D3FAFF",
"& 	c #CBF6FF",
"* 	c #C3F2FF",
"= 	c #D0F9FF",
"- 	c #C9F5FF",
"; 	c #C0F0FF",
"> 	c #B9ECFF",
", 	c #C7F4FF",
"' 	c #BFF0FF",
") 	c #B7EBFF",
"! 	c #AFE7FF",
"~ 	c #BDEFFF",
"{ 	c #B6EBFF",
"] 	c #AEE6FF",
"^ 	c #A6E2FF",
"/ 	c #B3E9FF",
"( 	c #ABE5FF",
"_ 	c #A3E1FF",
": 	c #9CDDFF",
"< 	c #D9FDFF",
"[ 	c #D1F9FF",
"} 	c #C1F1FF",
"| 	c #BAEDFF",
"1 	c #B1E8FF",
"2 	c #AAE4FF",
"3 	c #A2E0FF",
"4 	c #9ADCFF",
"5 	c #92D8FF",
"6 	c #8BD3FF",
"7 	c #82CFFF",
"8 	c #7BCBFF",
"9 	c #73C7FF",
"0 	c #6BC2FF",
"a 	c #63BEFF",
"b 	c #5CBAFF",
"c 	c #D7FCFF",
"d 	c #CFF8FF",
"e 	c #B8ECFF",
"f 	c #B0E8FF",
"g 	c #A8E3FF",
"h 	c #A0DFFF",
"i 	c #99DBFF",
"j 	c #90D6FF",
"k 	c #89D2FF",
"l 	c #81CEFF",
"m 	c #79CAFF",
"n 	c #71C6FF",
"o 	c #6AC2FF",
"p 	c #61BDFF",
"q 	c #5AB9FF",
"r 	c #52B5FF",
"s 	c #C5F3FF",
"t 	c #B5EAFF",
"u 	c #ADE6FF",
"v 	c #9DDEFF",
"w 	c #96DAFF",
"x 	c #8ED5FF",
"y 	c #86D1FF",
"z 	c #7ECDFF",
"A 	c #77C9FF",
"B 	c #6FC4FF",
"C 	c #67C0FF",
"D 	c #5FBCFF",
"E 	c #57B8FF",
"F 	c #50B4FF",
"G 	c #48AFFF",
"H 	c #BBEEFF",
"I 	c #B4EAFF",
"J 	c #ACE5FF",
"K 	c #A4E1FF",
"L 	c #94D9FF",
"M 	c #8CD4FF",
"N 	c #85D0FF",
"O 	c #7DCCFF",
"P 	c #75C8FF",
"Q 	c #6DC4FF",
"R 	c #65BFFF",
"S 	c #5DBBFF",
"T 	c #56B7FF",
"U 	c #4EB3FF",
"V 	c #46AFFF",
"W 	c #3EAAFF",
"X 	c #83CFFF",
"Y 	c #6CC3FF",
"Z 	c #69C1FF",
"` 	c #6FC5FF",
" .	c #68C1FF",
"..	c #58B8FF",
"+.	c #66C0FF",
"@.	c #5EBCFF",
"#.	c #4FB3FF",
"$.	c #54B6FF",
"%.	c #4CB2FF",
"&.	c #44ADFF",
"*.	c #4BB1FF",
"=.	c #42ACFF",
"-.	c #3BA8FF",
";.	c #49B0FF",
">.	c #41ACFF",
",.	c #39A7FF",
"'.	c #31A3FF",
"              . . . . . .               ",
"              . + + + @ .               ",
"              . + + # $ .               ",
"              . + % & * .               ",
"              . = - ; > .               ",
"              . , ' ) ! .               ",
"              . ~ { ] ^ .               ",
". . . . . . . . / ( _ : . . . . . . . . ",
". + < [ - } | 1 2 3 4 5 6 7 8 9 0 a b . ",
". c d , ' e f g h i j k l m n o p q r . ",
". $ s ~ t u ^ v w x y z A B C D E F G . ",
". * H I J K : L M N O P Q R S T U V W . ",
". . . . . . . . X 8 9 Y . . . . . . . . ",
"              . m n Z p .               ",
"              . `  .D ...               ",
"              . +.@.T #..               ",
"              . b $.%.&..               ",
"              . r *.=.-..               ",
"              . ;.>.,.'..               ",
"              . . . . . .               "};
