/* XPM */
static char * btn_trash20_xpm[] = {
"20 20 221 2",
"  	c None",
". 	c #848484",
"+ 	c #414141",
"@ 	c #1A1A1A",
"# 	c #0F100B",
"$ 	c #1A1A19",
"% 	c #B2B2B2",
"& 	c #242423",
"* 	c #53572F",
"= 	c #A9B35F",
"- 	c #D4E579",
"; 	c #DCF47F",
"> 	c #D4F27D",
", 	c #BFE072",
"' 	c #8DAD57",
") 	c #405329",
"! 	c #232423",
"~ 	c #97A757",
"{ 	c #D9F37F",
"] 	c #D2F17C",
"^ 	c #CAEF7A",
"/ 	c #C3ED77",
"( 	c #BBEB75",
"_ 	c #B3E972",
": 	c #ACE870",
"< 	c #A4E66E",
"[ 	c #6A9B49",
"} 	c #969696",
"| 	c #636363",
"1 	c #555555",
"2 	c #2F371C",
"3 	c #C7EE79",
"4 	c #BFEC76",
"5 	c #B8EB74",
"6 	c #B0E971",
"7 	c #A9E76F",
"8 	c #A1E56D",
"9 	c #9AE36A",
"0 	c #92E168",
"a 	c #8ADF65",
"b 	c #83DD63",
"c 	c #1D3316",
"d 	c #606060",
"e 	c #45562B",
"f 	c #6D8B45",
"g 	c #81A953",
"h 	c #ADE870",
"i 	c #A6E66E",
"j 	c #9EE46C",
"k 	c #96E269",
"l 	c #8FE067",
"m 	c #87DE64",
"n 	c #80DC62",
"o 	c #78DA60",
"p 	c #71D85D",
"q 	c #69D75B",
"r 	c #459A3F",
"s 	c #327C32",
"t 	c #1C4C1E",
"u 	c #537036",
"v 	c #83B657",
"w 	c #7DB455",
"x 	c #77B353",
"y 	c #71B151",
"z 	c #6BB04F",
"A 	c #65AE4D",
"B 	c #5FAD4B",
"C 	c #59AB4A",
"D 	c #53AA48",
"E 	c #4DA846",
"F 	c #47A744",
"G 	c #41A542",
"H 	c #3BA440",
"I 	c #35A23E",
"J 	c #1E6325",
"K 	c #808080",
"L 	c #3B3B3B",
"M 	c #030403",
"N 	c #31331B",
"O 	c #31341B",
"P 	c #2F341B",
"Q 	c #2E331B",
"R 	c #2C331A",
"S 	c #2B321A",
"T 	c #293219",
"U 	c #283219",
"V 	c #273118",
"W 	c #253118",
"X 	c #243117",
"Y 	c #222F17",
"Z 	c #030303",
"` 	c #252525",
" .	c #C9D772",
"..	c #E0F581",
"+.	c #DAF37F",
"@.	c #D3F17D",
"#.	c #CCF07A",
"$.	c #C5EE78",
"%.	c #B1E972",
"&.	c #AAE770",
"*.	c #A4E56D",
"=.	c #8AC75E",
"-.	c #4F4F4F",
";.	c #94A556",
">.	c #D6F27D",
",.	c #CFF07B",
"'.	c #A9C866",
").	c #C0EA76",
"!.	c #B4EA73",
"~.	c #AAE36E",
"{.	c #8EC35E",
"].	c #A0E56C",
"^.	c #99E36A",
"/.	c #649846",
"(.	c #787878",
"_.	c #63733B",
":.	c #CBEF7A",
"<.	c #232B16",
"[.	c #A1CE66",
"}.	c #B0E972",
"|.	c #AAE76F",
"1.	c #88BF5B",
"2.	c #233418",
"3.	c #426A30",
"4.	c #A2A2A2",
"5.	c #374221",
"6.	c #C1ED77",
"7.	c #BAEB75",
"8.	c #3A4B25",
"9.	c #7FAB53",
"0.	c #9FE46C",
"a.	c #6B9F4A",
"b.	c #345125",
"c.	c #8BDF66",
"d.	c #84DD63",
"e.	c #243D1B",
"f.	c #13170D",
"g.	c #B5E973",
"h.	c #B0E871",
"i.	c #4F6B33",
"j.	c #608941",
"k.	c #9BE36B",
"l.	c #95E269",
"m.	c #517F3A",
"n.	c #426E31",
"o.	c #80DD62",
"p.	c #79D95F",
"q.	c #0E160C",
"r.	c #242424",
"s.	c #97CB62",
"t.	c #A5E66E",
"u.	c #456830",
"v.	c #91E167",
"w.	c #3A602B",
"x.	c #4D8A3D",
"y.	c #76DA5F",
"z.	c #62BE51",
"A.	c #4E4E4E",
"B.	c #6D9B4A",
"C.	c #6EA74D",
"D.	c #2D4721",
"E.	c #86DE64",
"F.	c #25421D",
"G.	c #56A547",
"H.	c #6BD75B",
"I.	c #45913D",
"J.	c #486C32",
"K.	c #90E067",
"L.	c #79C459",
"M.	c #172812",
"N.	c #7CDB61",
"O.	c #75DA5F",
"P.	c #13240F",
"Q.	c #5CC051",
"R.	c #61D458",
"S.	c #2C652A",
"T.	c #273F1D",
"U.	c #85DE64",
"V.	c #7CD860",
"W.	c #0A1308",
"X.	c #70D65C",
"Y.	c #69D45A",
"Z.	c #091208",
"`.	c #5CD056",
" +	c #56D255",
".+	c #173B17",
"++	c #0F170C",
"@+	c #7ADA60",
"#+	c #74D95E",
"$+	c #193215",
"%+	c #5FC653",
"&+	c #59C451",
"*+	c #143214",
"=+	c #53D154",
"-+	c #4BCE51",
";+	c #0A160B",
">+	c #232323",
",+	c #63BF52",
"'+	c #6AD75B",
")+	c #63D559",
"!+	c #5CD357",
"~+	c #55D254",
"{+	c #4FD052",
"]+	c #48CE50",
"^+	c #3AB545",
"/+	c #4D4D4D",
"(+	c #45923D",
"_+	c #5FD458",
":+	c #58D255",
"<+	c #52D153",
"[+	c #4BCF51",
"}+	c #44CD4F",
"|+	c #3ECC4D",
"1+	c #288B34",
"2+	c #777777",
"3+	c #040803",
"4+	c #060E06",
"5+	c #050E06",
"6+	c #050E05",
"7+	c #040E05",
"8+	c #020803",
"            . + @ # # $ + .             ",
"        % & * = - ; > , ' ) ! %         ",
"        & ~ { ] ^ / ( _ : < [ &         ",
"  } | 1 2 3 4 5 6 7 8 9 0 a b c 1 | }   ",
"  d e f g h i j k l m n o p q r s t d   ",
"  d u v w x y z A B C D E F G H I J d   ",
"  K L M N O P Q R S T U V W X Y Z L K   ",
"      `  ...+.@.#.$.4 5 %.&.*.=.`       ",
"      -.;.>.,.'.).( !.~.{.].^./.-.      ",
"      (._.:.$.<.[.}.|.1.2.k l 3.(.      ",
"      4.5.6.7.8.9.i 0.a.b.c.d.e.4.      ",
"        f.g.h.i.j.k.l.m.n.o.p.q.        ",
"        r.s.t.j.u.v.a w.x.y.z.r.        ",
"        A.B.9 C.D.E.n F.G.H.I.A.        ",
"        (.J.K.L.M.N.O.P.Q.R.S.(.        ",
"        4.T.U.V.W.X.Y.Z.`. +.+4.        ",
"          ++@+#+$+%+&+*+=+-+;+          ",
"          >+,+'+)+!+~+{+]+^+>+          ",
"          /+(+_+:+<+[+}+|+1+/+          ",
"          2+3+4+4+5+6+7+7+8+2+          "};
