/* XPM */
static char * btn_monitor_xpm[] = {
"48 35 524 2",
"  	c None",
". 	c #C7C7C7",
"+ 	c #A0A0A0",
"@ 	c #838383",
"# 	c #787878",
"$ 	c #797979",
"% 	c #7F7F7F",
"& 	c #999999",
"* 	c #BEBEBE",
"= 	c #9D9D9D",
"- 	c #757575",
"; 	c #A3A3A3",
"> 	c #CECECE",
", 	c #F0F0F0",
"' 	c #FDFDFD",
") 	c #FEFEFE",
"! 	c #F4F4F4",
"~ 	c #D6D6D6",
"{ 	c #ADADAD",
"] 	c #777777",
"^ 	c #8D8D8D",
"/ 	c #D9D9D9",
"( 	c #979797",
"_ 	c #C8C8C8",
": 	c #FBFBFB",
"< 	c #FCFCFC",
"[ 	c #DEDEDE",
"} 	c #828282",
"| 	c #767676",
"1 	c #BBBBBB",
"2 	c #F5F5F5",
"3 	c #F6F6F6",
"4 	c #F7F7F7",
"5 	c #F8F8F8",
"6 	c #F9F9F9",
"7 	c #FAFAFA",
"8 	c #DBDBDB",
"9 	c #696969",
"0 	c #DDDDDD",
"a 	c #B5B5B5",
"b 	c #EFEFEF",
"c 	c #F1F1F1",
"d 	c #F2F2F2",
"e 	c #F3F3F3",
"f 	c #E0E0E0",
"g 	c #7E7E7E",
"h 	c #747474",
"i 	c #E9E9E9",
"j 	c #EAEAEA",
"k 	c #EBEBEB",
"l 	c #ECECEC",
"m 	c #EDEDED",
"n 	c #EEEEEE",
"o 	c #4D4D4D",
"p 	c #A5A5A5",
"q 	c #E5E5E5",
"r 	c #E6E6E6",
"s 	c #E7E7E7",
"t 	c #E8E8E8",
"u 	c #D1D1D1",
"v 	c #575757",
"w 	c #878787",
"x 	c #939393",
"y 	c #6A6864",
"z 	c #D0C8BB",
"A 	c #353331",
"B 	c #9F9F9F",
"C 	c #E1E1E1",
"D 	c #E2E2E2",
"E 	c #E3E3E3",
"F 	c #E4E4E4",
"G 	c #BFBFBF",
"H 	c #2D2D2D",
"I 	c #C6C6C6",
"J 	c #D2D2D2",
"K 	c #6D6A64",
"L 	c #E7DED0",
"M 	c #D4CEC5",
"N 	c #6F6E6E",
"O 	c #7E7D7C",
"P 	c #C2B9A8",
"Q 	c #74716C",
"R 	c #454442",
"S 	c #3D3D3D",
"T 	c #5D5D5D",
"U 	c #A1A1A1",
"V 	c #DCDCDC",
"W 	c #DFDFDF",
"X 	c #B7B7B7",
"Y 	c #5E5E5E",
"Z 	c #161616",
"` 	c #706E6A",
" .	c #BEB5A5",
"..	c #74726F",
"+.	c #7B7875",
"@.	c #B4B0AD",
"#.	c #AAAAAA",
"$.	c #827B6F",
"%.	c #6B6966",
"&.	c #262626",
"*.	c #989898",
"=.	c #7A7A7A",
"-.	c #545454",
";.	c #636363",
">.	c #7D7D7D",
",.	c #BDBDBD",
"'.	c #D8D8D8",
").	c #D5D5D5",
"!.	c #C4C4C4",
"~.	c #606060",
"{.	c #373737",
"].	c #292929",
"^.	c #333333",
"/.	c #3F3F3F",
"(.	c #B0B0B0",
"_.	c #8F8778",
":.	c #797877",
"<.	c #CACACA",
"[.	c #93918F",
"}.	c #757470",
"|.	c #7C7669",
"1.	c #D3D3D3",
"2.	c #6D6D6D",
"3.	c #5B5B5A",
"4.	c #A7A7A7",
"5.	c #9B9B9B",
"6.	c #8A8A8A",
"7.	c #474747",
"8.	c #424242",
"9.	c #414141",
"0.	c #383838",
"a.	c #3C3C3C",
"b.	c #434343",
"c.	c #4C4C4C",
"d.	c #4E4E4E",
"e.	c #484848",
"f.	c #212121",
"g.	c #8B8B8B",
"h.	c #6F6C65",
"i.	c #736F66",
"j.	c #7C7B7A",
"k.	c #7D7D7C",
"l.	c #857D6D",
"m.	c #7E7E7C",
"n.	c #6A6868",
"o.	c #949494",
"p.	c #8E8E8E",
"q.	c #818181",
"r.	c #7B7B7B",
"s.	c #6E6E6E",
"t.	c #686868",
"u.	c #616161",
"v.	c #5B5B5B",
"w.	c #A2A2A2",
"x.	c #8C8371",
"y.	c #7C7B7B",
"z.	c #7D7C7C",
"A.	c #716F6A",
"B.	c #817969",
"C.	c #D7D7D7",
"D.	c #7A7979",
"E.	c #9A9A9A",
"F.	c #676767",
"G.	c #6C6C6C",
"H.	c #726D63",
"I.	c #757065",
"J.	c #B8B8B8",
"K.	c #948A74",
"L.	c #7D7C7A",
"M.	c #585756",
"N.	c #3A3A3A",
"O.	c #6A6A6A",
"P.	c #959595",
"Q.	c #9E927B",
"R.	c #979796",
"S.	c #403F3E",
"T.	c #B2B2B2",
"U.	c #6F6C64",
"V.	c #867D6A",
"W.	c #8C8C8B",
"X.	c #464543",
"Y.	c #A6A6A6",
"Z.	c #808080",
"`.	c #595959",
" +	c #777061",
".+	c #767063",
"++	c #717170",
"@+	c #585857",
"#+	c #ABABAB",
"$+	c #A5987B",
"%+	c #7C7A78",
"&+	c #4B4B4A",
"*+	c #A8A8A8",
"=+	c #868686",
"-+	c #737373",
";+	c #8A8A89",
">+	c #AD9F81",
",+	c #313030",
"'+	c #706B5F",
")+	c #8A7F68",
"!+	c #D0D0D0",
"~+	c #B3B3B3",
"{+	c #ACACAC",
"]+	c #BABABA",
"^+	c #5F5F5F",
"/+	c #7E7561",
"(+	c #777060",
"_+	c #B6A682",
":+	c #7A7976",
"<+	c #8C8C8C",
"[+	c #919191",
"}+	c #CBCBCB",
"|+	c #81807E",
"1+	c #BBAA86",
"2+	c #929191",
"3+	c #746C5C",
"4+	c #8C8066",
"5+	c #AFAFAF",
"6+	c #929292",
"7+	c #4F4F4F",
"8+	c #867A61",
"9+	c #78705E",
"0+	c #919190",
"a+	c #C6B287",
"b+	c #797773",
"c+	c #D4D4D4",
"d+	c #626262",
"e+	c #909090",
"f+	c #7A7874",
"g+	c #C7B388",
"h+	c #8F8F8E",
"i+	c #796F59",
"j+	c #8E8162",
"k+	c #787774",
"l+	c #7A766E",
"m+	c #7B776C",
"n+	c #7A776F",
"o+	c #787775",
"p+	c #C3C3C3",
"q+	c #848484",
"r+	c #484746",
"s+	c #7C7A77",
"t+	c #7A7977",
"u+	c #3F3E3E",
"v+	c #3E3E3E",
"w+	c #CDCDCD",
"x+	c #908262",
"y+	c #79705B",
"z+	c #635840",
"A+	c #6E6247",
"B+	c #A5936B",
"C+	c #AB9971",
"D+	c #908161",
"E+	c #686159",
"F+	c #53505A",
"G+	c #534F5A",
"H+	c #68605C",
"I+	c #908369",
"J+	c #AB9D7E",
"K+	c #A4977B",
"L+	c #7C7464",
"M+	c #787673",
"N+	c #74726D",
"O+	c #7F786B",
"P+	c #7E786B",
"Q+	c #4D4B48",
"R+	c #62615F",
"S+	c #787369",
"T+	c #A9A192",
"U+	c #AAA395",
"V+	c #8C867E",
"W+	c #65656F",
"X+	c #52536C",
"Y+	c #54546C",
"Z+	c #6B6973",
"`+	c #95918D",
" @	c #B6B2AE",
".@	c #ACA9A6",
"+@	c #7E7C7B",
"@@	c #615E57",
"#@	c #D0BA88",
"$@	c #8D8D8C",
"%@	c #726C60",
"&@	c #CEB782",
"*@	c #6E6856",
"=@	c #19335F",
"-@	c #002B86",
";@	c #0030AE",
">@	c #002BB6",
",@	c #0023B2",
"'@	c #001BAD",
")@	c #0013A9",
"!@	c #000B9A",
"~@	c #000472",
"{@	c #191853",
"]@	c #6F6660",
"^@	c #CEBF9F",
"/@	c #CBBC9E",
"(@	c #FEEDC9",
"_@	c #FFEFCD",
":@	c #FFEFD0",
"<@	c #FBEDCF",
"[@	c #CABFA9",
"}@	c #C7BDA9",
"|@	c #66686B",
"1@	c #132F64",
"2@	c #002888",
"3@	c #002CAE",
"4@	c #0026B3",
"5@	c #001FAF",
"6@	c #0017AB",
"7@	c #000FA7",
"8@	c #000796",
"9@	c #00026D",
"0@	c #201F5A",
"a@	c #78767E",
"b@	c #DBD8D8",
"c@	c #80755D",
"d@	c #7A7058",
"e@	c #7C7566",
"f@	c #4A5456",
"g@	c #005BCA",
"h@	c #0055CB",
"i@	c #004DC7",
"j@	c #0045C3",
"k@	c #003CBE",
"l@	c #0034BA",
"m@	c #002CB6",
"n@	c #0024B2",
"o@	c #001CAE",
"p@	c #0014AA",
"q@	c #000CA6",
"r@	c #00059E",
"s@	c #4B4658",
"t@	c #FFEDC7",
"u@	c #B4A88F",
"v@	c #C1B59F",
"w@	c #FFF1D5",
"x@	c #324862",
"y@	c #0055C8",
"z@	c #004EC7",
"A@	c #0046C3",
"B@	c #003FC0",
"C@	c #0037BC",
"D@	c #002FB8",
"E@	c #0027B4",
"F@	c #0020B0",
"G@	c #0018AC",
"H@	c #0010A8",
"I@	c #0009A4",
"J@	c #00039B",
"K@	c #636273",
"L@	c #625B4B",
"M@	c #8B8A89",
"N@	c #4A5C61",
"O@	c #006ED8",
"P@	c #0066D4",
"Q@	c #005ECF",
"R@	c #0056CB",
"S@	c #003DBF",
"T@	c #0035BB",
"U@	c #002DB7",
"V@	c #0025B3",
"W@	c #001DAF",
"X@	c #0015AA",
"Y@	c #4B4960",
"Z@	c #9A907A",
"`@	c #484847",
" #	c #ACA390",
".#	c #325270",
"+#	c #005FD0",
"@#	c #0057CC",
"##	c #004FC8",
"$#	c #0047C4",
"%#	c #0040C0",
"&#	c #0038BC",
"*#	c #0030B8",
"=#	c #0029B4",
"-#	c #0021B0",
";#	c #0019AD",
">#	c #0011A9",
",#	c #636378",
"'#	c #3B3A3A",
")#	c #516260",
"!#	c #007FE0",
"~#	c #0077DC",
"{#	c #006FD8",
"]#	c #0067D4",
"^#	c #003EBF",
"/#	c #0036BB",
"(#	c #002EB7",
"_#	c #525362",
":#	c #7B7770",
"<#	c #7B766F",
"[#	c #395A72",
"}#	c #0060D0",
"|#	c #0058CC",
"1#	c #0050C9",
"2#	c #0049C5",
"3#	c #0041C1",
"4#	c #0039BD",
"5#	c #0031B9",
"6#	c #002AB5",
"7#	c #0022B1",
"8#	c #6A6C7B",
"9#	c #797879",
"0#	c #7A7875",
"a#	c #787156",
"b#	c #008BE1",
"c#	c #0088E5",
"d#	c #0080E1",
"e#	c #0078DD",
"f#	c #0070D9",
"g#	c #0068D5",
"h#	c #0050C8",
"i#	c #0048C4",
"j#	c #0035B5",
"k#	c #787165",
"l#	c #7B7A78",
"m#	c #757370",
"n#	c #646E6E",
"o#	c #0087E3",
"p#	c #0069D5",
"q#	c #0061D1",
"r#	c #0059CD",
"s#	c #0051C9",
"t#	c #004AC5",
"u#	c #0042C1",
"v#	c #003ABD",
"w#	c #002EA8",
"x#	c #848283",
"y#	c #858485",
"z#	c #847654",
"A#	c #065E8A",
"B#	c #009AEE",
"C#	c #0091EA",
"D#	c #0089E6",
"E#	c #0081E1",
"F#	c #0079DD",
"G#	c #0071D9",
"H#	c #072E72",
"I#	c #847A66",
"J#	c #A4A4A4",
"K#	c #898274",
"L#	c #01639B",
"M#	c #0090E9",
"N#	c #0089E5",
"O#	c #0072D9",
"P#	c #006AD5",
"Q#	c #0062D2",
"R#	c #005ACE",
"S#	c #0053CA",
"T#	c #004BC6",
"U#	c #0F2E68",
"V#	c #807E7E",
"W#	c #CCCCCC",
"X#	c #76736C",
"Y#	c #797154",
"Z#	c #0174A9",
"`#	c #00A3F2",
" $	c #009BEE",
".$	c #0092EA",
"+$	c #008AE6",
"@$	c #0082E2",
"#$	c #007ADE",
"$$	c #0072DA",
"%$	c #006AD6",
"&$	c #01438F",
"*$	c #7A7362",
"=$	c #767470",
"-$	c #6D6B68",
";$	c #6D706B",
">$	c #0077B5",
",$	c #0099EE",
"'$	c #0073DA",
")$	c #006BD6",
"!$	c #0063D2",
"~$	c #043B81",
"{$	c #818080",
"]$	c #726F68",
"^$	c #6E6348",
"/$	c #23596A",
"($	c #007EB7",
"_$	c #009FEC",
":$	c #009CEF",
"<$	c #0093EB",
"[$	c #0088E0",
"}$	c #0060A8",
"|$	c #244863",
"1$	c #6E6653",
"2$	c #72706B",
"3$	c #888888",
"4$	c #6C6A67",
"5$	c #6C6860",
"6$	c #1B5874",
"7$	c #007CBB",
"8$	c #0098EA",
"9$	c #0093EA",
"0$	c #008BE6",
"a$	c #007EDA",
"b$	c #00579E",
"c$	c #2D4C68",
"d$	c #6F6D6B",
"e$	c #7B7B7A",
"f$	c #716C5F",
"g$	c #514937",
"h$	c #484436",
"i$	c #46514B",
"j$	c #46514C",
"k$	c #484538",
"l$	c #514A3C",
"m$	c #716D63",
"n$	c #464646",
"o$	c #706D69",
"p$	c #4F4C46",
"q$	c #484947",
"r$	c #46555B",
"s$	c #465359",
"t$	c #494947",
"u$	c #54524F",
"v$	c #727170",
"w$	c #AEAEAE",
"x$	c #C9C9C9",
"y$	c #727272",
"                                . + @ # $ $ $ # % & *                                           ",
"                          = - % ; > , ' ) ) ) ) ! ~ { @ ] ^ /                                   ",
"                      ( - _ : : : < < < ' ' ' ' ' ) ) ) ) [ @ }                                 ",
"                    | 1 2 2 3 3 3 4 4 4 4 5 5 5 6 6 6 7 7 7 : 8 9 0                             ",
"                  + a b , , , c c c d d d e e e ! ! ! ! 2 2 2 3 f g                             ",
"                  h i j k k k k l l l m m m n n n b b b , , , c c |                             ",
"                  o p q q r r r s s s t t t t i i i j j j k k k u v                   / w x     ",
"                y z A B f f C C C D D D E E E F F F q q q q r G H I                 J K L M N   ",
"              O P Q R S T U / V V V 0 0 0 [ [ [ W W W f f X Y Z }                   `  ...+.@.#.",
"            > $.%.  0 &.*.=.-.;.>.U ,.u '.'./ ).!.#.w ~.{.].^./.                  (._.:.  <.[.# ",
"            }.|.1.    2.3.4.U 5.6.2.v 7.8.9.S 0.a.b.c.d.e.8.f.g.                  h.i.      j.k.",
"          !.l.m.      # n.| 4.U 5.o.p.w q.r.h s.t.u.v.-.d.S 0.v.t.              w.x.&       y.z.",
"          A.B.C.      # D.2.+ 4.U E.o.p.w q.=.h s.F.u.v.-.b.  = G.>.            H.I.        :.D.",
"        J.K.L.        M.p./ v.{ 4.+ E.o.^ w q.=.h 2.F.u.N.*     s.O.          P.Q.R.      / S.T.",
"        U.V.).      W.X.[   p g { Y.+ E.x ^ w Z.=.h 2.`.=.      h O.           +.+        ++@+  ",
"      #+$+%+        &+#+      O.*+{ Y.+ E.x ^ =+Z.=.-+e.        G.s.        ;+>+o.        ,+I   ",
"      '+)+1.        !+        C.Y ~+{+Y.+ & x ^ =+Z.o ]+      '.^+w       V /+(+          !+    ",
"    = _+:+                      + =+T.{+Y.+ & x <+] |         [+^+}+      |+1+2+                ",
"    3+4+J                         t.5+T.{+Y.B & 6+7+          9 9       ).8+9+                  ",
"  0+a+b+                          c+d+J.T.{+p B ;.F.        1 9 e+      f+g+h+                  ",
"W i+j+{ 6+k+l+m+m+n+o+6+p+          5.e+J.T.#.q+Z r+:+s+s+t+u+v+X     w+x+y+                    ",
"Z.z+A+B+C+D+E+F+G+H+I+J+K+L+M+= N+O+P+Q+} R+S+T+U+V+W+X+Y+Z+`+ @.@+@- @@#@$@                    ",
"%@&@*@=@-@;@>@,@'@)@!@~@{@]@^@/@(@_@:@<@[@}@|@1@2@3@4@5@6@7@8@9@0@a@b@c@d@                      ",
"e@f@g@h@i@j@k@l@m@n@o@p@q@r@s@t@u@P+P+v@w@x@y@z@A@B@C@D@E@F@G@H@I@J@K@L@M@                      ",
"e@N@O@P@Q@R@z@A@S@T@U@V@W@X@Y@Z@p     `@ #.#P@+#@###$#%#&#*#=#-#;#>#,#'#W                       ",
"|.)#!#~#{#]#+#@###$#^#/#(#4@_#:#      - <#[#~#{#]#}#|#1#2#3#4#5#6#7#8#9#                        ",
"0#a#b#c#d#e#f#g#}#|#h#i#B@j#k#l#      ] m#n#o#d#e#f#p#q#r#s#t#u#v#w#x#y#                        ",
"]+z#A#B#C#D#E#F#G#p#q#r#s#H#I#1       # J#K#L#M#N#E#F#O#P#Q#R#S#T#U#V#W#                        ",
"  X#Y#Z#`# $.$+$@$#$$$%$&$*$=$        r.r -$;$>$,$.$+$@$#$'$)$!$~${$q.                          ",
"    ]$^$/$($_$:$<$[$}$|$1$2$          3$W W 4$5$6$7$8$9$0$a$b$c$d$e$                            ",
"      J#f$g$h$i$j$k$l$m$J#            *.1.b t n$o$p$q$r$s$t$u$v$(.                              ",
"          ~ #.o.o.#.~                 *+I 2 l =.  u 4.x P.w$/                                   ",
"                                      J.X : F 3$                                                ",
"                                      x$p ) '.*.                                                ",
"                                      0 O.r.y$*                                                 "};
