/* XPM */
static char * btn_undo32_xpm[] = {
"32 32 221 2",
"  	c None",
". 	c #454545",
"+ 	c #565656",
"@ 	c #000000",
"# 	c #464646",
"$ 	c #230404",
"% 	c #4E0909",
"& 	c #230202",
"* 	c #E11717",
"= 	c #6B0E0E",
"- 	c #272727",
"; 	c #6F6F6F",
"> 	c #878787",
", 	c #ADADAD",
"' 	c #220101",
") 	c #E11010",
"! 	c #FF1D1D",
"~ 	c #A31919",
"{ 	c #5B1313",
"] 	c #4E1414",
"^ 	c #310F0F",
"/ 	c #0A0303",
"( 	c #060606",
"_ 	c #424242",
": 	c #9C9C9C",
"< 	c #474747",
"[ 	c #220000",
"} 	c #E10A0A",
"| 	c #FF1616",
"1 	c #FF2121",
"2 	c #FF2D2D",
"3 	c #FF3838",
"4 	c #FF4343",
"5 	c #FF4F4F",
"6 	c #FA5858",
"7 	c #C44E4E",
"8 	c #6E3131",
"9 	c #0F0707",
"0 	c #2B2B2B",
"a 	c #B4B4B4",
"b 	c #E00303",
"c 	c #FF0E0E",
"d 	c #FF1A1A",
"e 	c #FF2525",
"f 	c #FF3131",
"g 	c #FF3C3C",
"h 	c #FF4747",
"i 	c #FF5353",
"j 	c #FF5E5E",
"k 	c #FF6A6A",
"l 	c #FF7575",
"m 	c #ED7777",
"n 	c #6A3A3A",
"o 	c #060505",
"p 	c #979797",
"q 	c #B30000",
"r 	c #FF0707",
"s 	c #FF1212",
"t 	c #FF1E1E",
"u 	c #FF2929",
"v 	c #FF3535",
"w 	c #FF4040",
"x 	c #FF4B4B",
"y 	c #FF5757",
"z 	c #FF6262",
"A 	c #FF6D6D",
"B 	c #FF7979",
"C 	c #FF8484",
"D 	c #FF9090",
"E 	c #AC6868",
"F 	c #090606",
"G 	c #858585",
"H 	c #5B5B5B",
"I 	c #150000",
"J 	c #D20909",
"K 	c #FF2222",
"L 	c #FF3939",
"M 	c #FF4444",
"N 	c #FF5B5B",
"O 	c #FF6666",
"P 	c #FF7171",
"Q 	c #FF7D7D",
"R 	c #FF8888",
"S 	c #FF9494",
"T 	c #FF9F9F",
"U 	c #AE7373",
"V 	c #B2B2B2",
"W 	c #160101",
"X 	c #D21616",
"Y 	c #FF2626",
"Z 	c #FF3D3D",
"` 	c #FF4848",
" .	c #FF5F5F",
"..	c #FF8181",
"+.	c #FF8C8C",
"@.	c #FF9898",
"#.	c #FFA3A3",
"$.	c #FFAEAE",
"%.	c #6D4F4F",
"&.	c #292929",
"*.	c #160303",
"=.	c #D22323",
"-.	c #902323",
";.	c #481515",
">.	c #5F2020",
",.	c #903737",
"'.	c #DD6060",
").	c #FF8585",
"!.	c #FF9C9C",
"~.	c #FFA7A7",
"{.	c #FFB2B2",
"].	c #EEB1B1",
"^.	c #0F0C0C",
"/.	c #9B9B9B",
"(.	c #5A5A5A",
"_.	c #160404",
":.	c #D32F2F",
"<.	c #6B1B1B",
"[.	c #5E5E5E",
"}.	c #030202",
"|.	c #562A2A",
"1.	c #E57B7B",
"2.	c #FFA0A0",
"3.	c #FFABAB",
"4.	c #FFB6B6",
"5.	c #FFC2C2",
"6.	c #6D5757",
"7.	c #444444",
"8.	c #160505",
"9.	c #421212",
"0.	c #BBBBBB",
"a.	c #3B3B3B",
"b.	c #170D0D",
"c.	c #CE7C7C",
"d.	c #FFA4A4",
"e.	c #FFAFAF",
"f.	c #FFBABA",
"g.	c #FFC6C6",
"h.	c #BF9B9B",
"i.	c #080808",
"j.	c #170E0E",
"k.	c #E49696",
"l.	c #FFB3B3",
"m.	c #FFBEBE",
"n.	c #FFCACA",
"o.	c #F4CCCC",
"p.	c #040404",
"q.	c #B8B8B8",
"r.	c #595959",
"s.	c #3D3D3D",
"t.	c #4E3535",
"u.	c #FFB7B7",
"v.	c #FFCECE",
"w.	c #FFD9D9",
"x.	c #1E1A1A",
"y.	c #9A9A9A",
"z.	c #A8A8A8",
"A.	c #C4C4C4",
"B.	c #050404",
"C.	c #C89393",
"D.	c #FFD2D2",
"E.	c #FFDDDD",
"F.	c #302B2B",
"G.	c #8B8B8B",
"H.	c #4B4B4B",
"I.	c #624B4B",
"J.	c #FFD6D6",
"K.	c #FFE1E1",
"L.	c #312C2C",
"M.	c #161111",
"N.	c #FDCDCD",
"O.	c #FFDADA",
"P.	c #FFE5E5",
"Q.	c #221F1F",
"R.	c #D3D3D3",
"S.	c #010101",
"T.	c #D8B2B2",
"U.	c #FFDEDE",
"V.	c #FBE5E5",
"W.	c #B1B1B1",
"X.	c #181818",
"Y.	c #AD9393",
"Z.	c #FFE2E2",
"`.	c #D7C7C7",
" +	c #D4D4D4",
".+	c #313131",
"++	c #948080",
"@+	c #FFE6E6",
"#+	c #9E9494",
"$+	c #202020",
"%+	c #3E3E3E",
"&+	c #867676",
"*+	c #FFEAEA",
"=+	c #595454",
"-+	c #3F3F3F",
";+	c #857777",
">+	c #F6E5E5",
",+	c #0F0F0F",
"'+	c #A2A2A2",
")+	c #363636",
"!+	c #8D8181",
"~+	c #A79D9D",
"{+	c #121212",
"]+	c #212121",
"^+	c #A49898",
"/+	c #3D3939",
"(+	c #686868",
"_+	c #887F7F",
":+	c #050505",
"<+	c #C8C8C8",
"[+	c #C0C0C0",
"}+	c #322E2E",
"|+	c #575757",
"1+	c #8C8C8C",
"2+	c #070707",
"3+	c #CACACA",
"4+	c #4D4D4D",
"5+	c #0A0A0A",
"6+	c #030303",
"7+	c #AEAEAE",
"8+	c #848484",
"                        . +                                     ",
"                      . @ +                                     ",
"                    # $ % +                                     ",
"                  # & * = - ; > ,                               ",
"                # ' ) ! ~ { ] ^ / ( _ :                         ",
"              < [ } | 1 2 3 4 5 6 7 8 9 0 a                     ",
"            < [ b c d e f g h i j k l m n o >                   ",
"          p @ q r s t u v w x y z A B C D E F G                 ",
"            H I J | K 2 L M 5 N O P Q R S T U o V               ",
"              H W X Y f Z ` i  .k l ..+.@.#.$.%.&.              ",
"                H *.=.v -.;.>.,.'.B ).D !.~.{.].^./.            ",
"                  (._.:.<.0 [.0 }.|.1.S 2.3.4.5.6.7.            ",
"                    (.8.9.+     0.a.b.c.d.e.f.g.h.i.            ",
"                      (.@ +         [.j.k.l.m.n.o.p.q.          ",
"                        r.+           s.t.u.5.v.w.x.y.          ",
"                          z.          A.B.C.g.D.E.F.G.          ",
"                                        H.I.n.J.K.L.G.          ",
"                                        y.M.N.O.P.Q.p           ",
"                                        R.S.T.U.V.i.W.          ",
"                                          X.Y.Z.`.S. +          ",
"                                          .+++@+#+$+            ",
"                                          %+&+*+=+H             ",
"                                          -+;+>+,+'+            ",
"                                          )+!+~+{+              ",
"                                          ]+^+/+(+              ",
"                                          i._+:+<+              ",
"                                        [+S.}+|+                ",
"                                        1+@ 2+3+                ",
"                                        4+@ ;                   ",
"                                        5+]+                    ",
"                                      > 6+7+                    ",
"                                      7+8+                      "};
