/* XPM */
static char * btn_onoff32_xpm[] = {
"32 32 74 1",
" 	c None",
".	c #000000",
"+	c #FFFFFF",
"@	c #717171",
"#	c #AEAEAE",
"$	c #060606",
"%	c #B8B8B8",
"&	c #CECECE",
"*	c #979797",
"=	c #777777",
"-	c #737373",
";	c #8F8F8F",
">	c #CACACA",
",	c #545454",
"'	c #989898",
")	c #171717",
"!	c #4E4E4E",
"~	c #919191",
"{	c #B7B7B7",
"]	c #BCBCBC",
"^	c #9A9A9A",
"/	c #515151",
"(	c #D8D8D8",
"_	c #3C3C3C",
":	c #EDEDED",
"<	c #C8C8C8",
"[	c #353535",
"}	c #BFBFBF",
"|	c #858585",
"1	c #E2E2E2",
"2	c #373737",
"3	c #F1F1F1",
"4	c #E4E4E4",
"5	c #FCFCFC",
"6	c #B5B5B5",
"7	c #626262",
"8	c #D2D2D2",
"9	c #212121",
"0	c #929292",
"a	c #EFEFEF",
"b	c #C2C2C2",
"c	c #393939",
"d	c #444444",
"e	c #505050",
"f	c #363636",
"g	c #707070",
"h	c #F0F0F0",
"i	c #3F3F3F",
"j	c #D4D4D4",
"k	c #8C8C8C",
"l	c #ACACAC",
"m	c #404040",
"n	c #A0A0A0",
"o	c #9F9F9F",
"p	c #888888",
"q	c #595959",
"r	c #0C0C0C",
"s	c #BDBDBD",
"t	c #F7F7F7",
"u	c #E7E7E7",
"v	c #4C4C4C",
"w	c #C5C5C5",
"x	c #939393",
"y	c #7B7B7B",
"z	c #3B3B3B",
"A	c #ECECEC",
"B	c #424242",
"C	c #8B8B8B",
"D	c #4B4B4B",
"E	c #696969",
"F	c #464646",
"G	c #313131",
"H	c #3D3D3D",
"I	c #1B1B1B",
"............                    ",
".+++++++++..   @                ",
".++++++++...  #$%&*=-;>         ",
".+++++++....  ,')!~{]^/!&       ",
".++++++..... (_+:++++++<[}      ",
"..++++....+. |*+++++++++12(     ",
"...++....++. 23++++:45+++67     ",
"........+++.890a+bcdefgh++ij    ",
".......++++.  kc7lm   nc1+op    ",
".+....+++++.    {qr}   s_tuv    ",
".++..++++++.      (w    xy+z    ",
"............             zAB    ",
"                         'CD    ",
"                          iD    ",
"    E'                    FG    ",
"    H;                    -I    ",
"    I-                    ;H    ",
"    GF                    'E    ",
"    Di                          ",
"    DC'                         ",
"    BAz             ............",
"    z+yx    w(      .++++++++++.",
"    vut_s   }rq{    .++++++++++.",
"    po+1cn   ml7ck  .++++++++++.",
"    ji++hgfedcb+a098.++++++++++.",
"     76+++54:++++32 .++++++++++.",
"     (21+++++++++*| .++++++++++.",
"      }[<++++++:+_( .++++++++++.",
"       &!/^]{~!)',  .++++++++++.",
"         >;-=*&%$#  .++++++++++.",
"                @   .++++++++++.",
"                    ............"};
