/* XPM */
static char * btn_trash32_xpm[] = {
"32 32 408 2",
"  	c None",
". 	c #D1D1D1",
"+ 	c #8B8B8B",
"@ 	c #535353",
"# 	c #2D2D2D",
"$ 	c #121212",
"% 	c #050505",
"& 	c #CDCDCD",
"* 	c #555555",
"= 	c #060606",
"- 	c #000000",
"; 	c #1B1C0F",
"> 	c #454827",
", 	c #636938",
"' 	c #6E763F",
") 	c #6B763E",
"! 	c #5D6736",
"~ 	c #3E4624",
"{ 	c #171B0E",
"] 	c #AAAAAA",
"^ 	c #101010",
"/ 	c #0A0A06",
"( 	c #6A6F3B",
"_ 	c #C3CE6E",
": 	c #E6F683",
"< 	c #E1F581",
"[ 	c #DDF480",
"} 	c #D8F37E",
"| 	c #D3F27D",
"1 	c #CFF07B",
"2 	c #CAEF7A",
"3 	c #C5EE78",
"4 	c #9FC563",
"5 	c #536934",
"6 	c #070A05",
"7 	c #C3C3C3",
"8 	c #0B0B0B",
"9 	c #2A2D18",
"0 	c #C5D571",
"a 	c #DFF581",
"b 	c #DBF37F",
"c 	c #D6F27E",
"d 	c #D1F17C",
"e 	c #CDF07B",
"f 	c #C8EF79",
"g 	c #C3ED77",
"h 	c #BEEC76",
"i 	c #BAEB74",
"j 	c #B5EA73",
"k 	c #B0E971",
"l 	c #ACE770",
"m 	c #90C860",
"n 	c #1D2A14",
"o 	c #4F4F4F",
"p 	c #0F1009",
"q 	c #C3DB72",
"r 	c #D4F27D",
"s 	c #CFF17B",
"t 	c #CBEF7A",
"u 	c #C6EE78",
"v 	c #C1ED77",
"w 	c #BCEC75",
"x 	c #B8EB74",
"y 	c #B3E972",
"z 	c #AEE871",
"A 	c #AAE76F",
"B 	c #A5E66E",
"C 	c #A0E56C",
"D 	c #9BE36B",
"E 	c #97E269",
"F 	c #83CB5E",
"G 	c #090F07",
"H 	c #9C9C9C",
"I 	c #818181",
"J 	c #808080",
"K 	c #0D0D0D",
"L 	c #536232",
"M 	c #C9EF79",
"N 	c #C4EE78",
"O 	c #BFEC76",
"P 	c #BAEB75",
"Q 	c #B6EA73",
"R 	c #B1E972",
"S 	c #ACE870",
"T 	c #A8E66F",
"U 	c #A3E56D",
"V 	c #9EE46C",
"W 	c #99E36A",
"X 	c #95E269",
"Y 	c #90E067",
"Z 	c #8BDF66",
"` 	c #87DE64",
" .	c #82DD63",
"..	c #335A28",
"+.	c #3F3F3F",
"@.	c #657F3F",
"#.	c #B4EA73",
"$.	c #AFE871",
"%.	c #AAE770",
"&.	c #A6E66E",
"*.	c #A1E56D",
"=.	c #9CE46B",
"-.	c #97E26A",
";.	c #93E168",
">.	c #8EE066",
",.	c #89DF65",
"'.	c #85DE63",
").	c #80DC62",
"!.	c #7BDB60",
"~.	c #76DA5F",
"{.	c #72D95D",
"].	c #3B7432",
"^.	c #2A341A",
"/.	c #B1DF6F",
"(.	c #ADDE6D",
"_.	c #A8DD6C",
":.	c #A9E36E",
"<.	c #A8E76F",
"[.	c #9FE46C",
"}.	c #9AE36A",
"|.	c #91E167",
"1.	c #8CDF66",
"2.	c #7EDC61",
"3.	c #79DB60",
"4.	c #74D95E",
"5.	c #70D85D",
"6.	c #6BD75B",
"7.	c #66D65A",
"8.	c #61D558",
"9.	c #5BCF55",
"0.	c #53C851",
"a.	c #4FC64F",
"b.	c #4AC54E",
"c.	c #112E12",
"d.	c #29361A",
"e.	c #ABE770",
"f.	c #A2E56D",
"g.	c #9DE46B",
"h.	c #98E36A",
"i.	c #8FE067",
"j.	c #8ADF65",
"k.	c #85DE64",
"l.	c #81DD62",
"m.	c #7CDB61",
"n.	c #77DA5F",
"o.	c #72D95E",
"p.	c #6ED85C",
"q.	c #69D75B",
"r.	c #64D559",
"s.	c #60D458",
"t.	c #5BD356",
"u.	c #56D255",
"v.	c #51D153",
"w.	c #4DCF52",
"x.	c #48CE50",
"y.	c #43CD4F",
"z.	c #3FCC4D",
"A.	c #0E2F12",
"B.	c #0A0E07",
"C.	c #2A3C1D",
"D.	c #293C1C",
"E.	c #283C1C",
"F.	c #273B1B",
"G.	c #253B1B",
"H.	c #243B1B",
"I.	c #233A1A",
"J.	c #223A1A",
"K.	c #203A19",
"L.	c #1F3919",
"M.	c #1E3919",
"N.	c #1D3918",
"O.	c #1B3818",
"P.	c #1A3817",
"Q.	c #193817",
"R.	c #183717",
"S.	c #163716",
"T.	c #153716",
"U.	c #143615",
"V.	c #133615",
"W.	c #113615",
"X.	c #103614",
"Y.	c #0F3514",
"Z.	c #040C05",
"`.	c #686868",
" +	c #383838",
".+	c #2E2E2E",
"++	c #16170C",
"@+	c #222313",
"#+	c #212313",
"$+	c #202312",
"%+	c #1F2212",
"&+	c #1E2212",
"*+	c #1D2211",
"=+	c #1C2211",
"-+	c #1B2111",
";+	c #1A2111",
">+	c #1A2110",
",+	c #192110",
"'+	c #182110",
")+	c #172110",
"!+	c #0F150A",
"~+	c #D5D5D5",
"{+	c #020202",
"]+	c #808748",
"^+	c #E9F784",
"/+	c #E5F682",
"(+	c #DCF480",
"_+	c #D0F17C",
":+	c #CCF07A",
"<+	c #C7EF79",
"[+	c #C3ED78",
"}+	c #BBEB75",
"|+	c #B7EA74",
"1+	c #567C3B",
"2+	c #1F1F1F",
"3+	c #4F542D",
"4+	c #E2F581",
"5+	c #DEF480",
"6+	c #DAF37F",
"7+	c #D6F27D",
"8+	c #D2F17C",
"9+	c #BDEC75",
"0+	c #B9EB74",
"a+	c #A4E56D",
"b+	c #344E24",
"c+	c #4D4D4D",
"d+	c #DCF47F",
"e+	c #C7EE79",
"f+	c #B2E972",
"g+	c #15200F",
"h+	c #7B7B7B",
"i+	c #010101",
"j+	c #C8E375",
"k+	c #60733A",
"l+	c #202714",
"m+	c #B0E871",
"n+	c #A6E56E",
"o+	c #12190C",
"p+	c #577E3B",
"q+	c #96E269",
"r+	c #92E168",
"s+	c #85D260",
"t+	c #A9A9A9",
"u+	c #99B25B",
"v+	c #C6EE79",
"w+	c #C2ED77",
"x+	c #627A3D",
"y+	c #030402",
"z+	c #AFE16F",
"A+	c #ADE871",
"B+	c #A9E76F",
"C+	c #92CF62",
"D+	c #58843E",
"E+	c #94E168",
"F+	c #65A54B",
"G+	c #6C8141",
"H+	c #C0ED76",
"I+	c #BCEB75",
"J+	c #799A4C",
"K+	c #92C35F",
"L+	c #A7E66E",
"M+	c #78B052",
"N+	c #68A24A",
"O+	c #8DE066",
"P+	c #467735",
"Q+	c #425128",
"R+	c #BDEC76",
"S+	c #8DB95A",
"T+	c #75A14D",
"U+	c #A4E66E",
"V+	c #9CE36B",
"W+	c #98E26A",
"X+	c #5F9043",
"Y+	c #76BE57",
"Z+	c #83DD63",
"`+	c #7FDC62",
" @	c #2A4B21",
".@	c #9ED768",
"+@	c #5A803D",
"@@	c #487134",
"#@	c #020402",
"$@	c #80D760",
"%@	c #78DA5F",
"&@	c #111E0D",
"*@	c #020201",
"=@	c #A4D869",
"-@	c #0C1208",
";@	c #405F2C",
">@	c #325325",
",@	c #0F1B0C",
"'@	c #7ADB60",
")@	c #6ACA57",
"!@	c #010201",
"~@	c #7DAB52",
"{@	c #213117",
"]@	c #293E1D",
"^@	c #90E167",
"/@	c #8CE066",
"(@	c #88DE65",
"_@	c #84DD63",
":@	c #1F3517",
"<@	c #1F3819",
"[@	c #73D95E",
"}@	c #6FD85D",
"|@	c #4F9F44",
"1@	c #D6D6D6",
"2@	c #577B3B",
"3@	c #345025",
"4@	c #131F0E",
"5@	c #86DE64",
"6@	c #7DDB61",
"7@	c #0D170A",
"8@	c #2D5525",
"9@	c #71D95D",
"0@	c #6DD75C",
"a@	c #68D65A",
"b@	c #377330",
"c@	c #202020",
"d@	c #354D24",
"e@	c #466F33",
"f@	c #80D861",
"g@	c #72D25B",
"h@	c #397130",
"i@	c #6AD75B",
"j@	c #62D558",
"k@	c #20481E",
"l@	c #4E4E4E",
"m@	c #151F0E",
"n@	c #558D40",
"o@	c #6ABC53",
"p@	c #5EB54E",
"q@	c #448D3B",
"r@	c #5FD458",
"s@	c #0C1D0C",
"t@	c #7C7C7C",
"u@	c #82D05F",
"v@	c #62AB4C",
"w@	c #549C44",
"x@	c #4B9740",
"y@	c #4DA846",
"z@	c #5DD357",
"A@	c #59D256",
"B@	c #4FC34F",
"C@	c #000100",
"D@	c #61A349",
"E@	c #6EC857",
"F@	c #407C35",
"G@	c #67D65A",
"H@	c #397932",
"I@	c #54C350",
"J@	c #52D153",
"K@	c #3A993D",
"L@	c #437634",
"M@	c #71D75D",
"N@	c #070E06",
"O@	c #306229",
"P@	c #65D559",
"Q@	c #61D458",
"R@	c #2B6028",
"S@	c #060F06",
"T@	c #53D053",
"U@	c #50D053",
"V@	c #4CCF51",
"W@	c #276F2B",
"X@	c #284920",
"Y@	c #60C854",
"Z@	c #62D458",
"`@	c #5ED457",
" #	c #5AD356",
".#	c #56D154",
"+#	c #4CC44E",
"@#	c #4DD052",
"##	c #49CF51",
"$#	c #45CD4F",
"%#	c #16451A",
"&#	c #0F1E0D",
"*#	c #5CD356",
"=#	c #58D255",
"-#	c #53D154",
";#	c #4FD052",
">#	c #4BCF51",
",#	c #47CE50",
"'#	c #43CD4E",
")#	c #3ECC4D",
"!#	c #081C0A",
"~#	c #5FC653",
"{#	c #59D356",
"]#	c #55D254",
"^#	c #51D053",
"/#	c #49CE50",
"(#	c #44CD4F",
"_#	c #40CC4E",
":#	c #3CCB4C",
"<#	c #36BC46",
"[#	c #000201",
"}#	c #275523",
"|#	c #2F6C2C",
"1#	c #2D6B2B",
"2#	c #2B6A2B",
"3#	c #296A2A",
"4#	c #276929",
"5#	c #256929",
"6#	c #226828",
"7#	c #206827",
"8#	c #1E6727",
"9#	c #1D6727",
"0#	c #17511E",
"a#	c #D7D7D7",
"                    . + @ # $ % % $ # @ + .                     ",
"                & * = - ; > , ' ) ! ~ { - = * &                 ",
"              ] ^ / ( _ : < [ } | 1 2 3 4 5 6 ^ ]               ",
"            7 8 9 0 a b c d e f g h i j k l m n 8 7             ",
"            o p q r s t u v w x y z A B C D E F G o             ",
"    H I I J K L M N O P Q R S T U V W X Y Z `  ...K J I I H     ",
"    +.- - - - @.x #.$.%.&.*.=.-.;.>.,.'.).!.~.{.].- - - - +.    ",
"    +.^./.(._.:.<.U [.}.X |.1.`  .2.3.4.5.6.7.8.9.0.a.b.c.+.    ",
"    +.d.e.&.f.g.h.;.i.j.k.l.m.n.o.p.q.r.s.t.u.v.w.x.y.z.A.+.    ",
"    +.B.C.D.E.F.G.H.I.J.K.L.M.N.O.P.Q.R.S.T.U.V.W.X.Y.Y.Z.+.    ",
"    `. +.+- ++@+#+$+$+%+%+&+*+*+=+=+-+;+>+,+,+'+)+!+- .+ +`.    ",
"        ~+{+]+^+/+< (+} r _+:+<+[+O }+|+y z %.&.f.1+{+~+        ",
"          2+3+4+5+6+7+8+e M 3 v 9+0+#.k S T a+[.D b+2+          ",
"          c+$+d+} | s t e+g O P Q f+z A B *.g.W X g+c+          ",
"          h+i+j+d e M k+l+w x #.m+e.n+o+p+D q+r+s+i+h+          ",
"          t+- u+t v+w+x+y+z+R A+B+B C+- D+E+Y 1.F+- t+          ",
"          ~+{+G+N H+I+J+- K+e.L+f.V M+- N+O+,.k.P+{+~+          ",
"            2+Q+R+0+j S+- T+U+C V+W+X+- Y+` Z+`+ @2+            ",
"            c+>+|+y z .@i++@V W X |.@@#@$@).m.%@&@c+            ",
"            h+*@=@S <.U -@;@E ;.i.j.>@,@2.'@~.)@!@h+            ",
"            ] - ~@B *.g.{@]@^@/@(@_@:@<@n.[@}@|@- ]             ",
"            1@i+2@[.D q+3@4@j.5@ .6@7@8@9@0@a@b@i+1@            ",
"              c@d@h.E+Y e@y+f@`+!.g@!@h@i@7.j@k@c@              ",
"              l@m@r+O+,.n@- o@3.4.p@- q@r.r@t.s@l@              ",
"              t@i+u@` Z+v@- w@o.p.x@- y@z@A@B@C@t@              ",
"              ] - D@).m.E@- F@6.G@H@- I@u.J@K@- ]               ",
"              1@{+L@'@~.M@N@O@P@Q@R@S@T@U@V@W@{+1@              ",
"                c@X@[@}@6.Y@Z@`@ #.#+#@###$#%#c@                ",
"                l@&#0@a@r.s.*#=#-#;#>#,#'#)#!#l@                ",
"                t@!@~#j@`@{#]#^#w./#(#_#:#<#[#t@                ",
"                ] - }#|#1#2#3#4#5#6#7#8#9#0#- ]                 ",
"                a#i+- - - - - - - - - - - - i+a#                "};
