/* XPM */
static char * btn_left_xpm[] = {
"24 24 197 2",
"  	c None",
". 	c #6F6F6F",
"+ 	c #A4A4A4",
"@ 	c #8D8D8D",
"# 	c #1C1C1C",
"$ 	c #050505",
"% 	c #A9A9A9",
"& 	c #343434",
"* 	c #1A2C38",
"= 	c #3F6E8D",
"- 	c #2F2F2F",
"; 	c #BEBEBE",
"> 	c #515151",
", 	c #10191F",
"' 	c #4D81A3",
") 	c #73C6FD",
"! 	c #3B6886",
"~ 	c #646464",
"{ 	c #111416",
"] 	c #3E657F",
"^ 	c #74C1F4",
"/ 	c #74C7FF",
"( 	c #6EC4FF",
"_ 	c #1E3647",
": 	c #989898",
"< 	c #8E8E8E",
"[ 	c #1D1E1E",
"} 	c #2F495A",
"| 	c #71B6E1",
"1 	c #7BCBFF",
"2 	c #75C8FF",
"3 	c #6FC5FF",
"4 	c #67BDF9",
"5 	c #0A0F12",
"6 	c #1E2E37",
"7 	c #68A2C6",
"8 	c #81CEFF",
"9 	c #76C8FF",
"0 	c #70C5FF",
"a 	c #6AC2FF",
"b 	c #4E95C6",
"c 	c #525252",
"d 	c #121A1F",
"e 	c #5987A3",
"f 	c #87D0FD",
"g 	c #82CFFF",
"h 	c #7CCCFF",
"i 	c #76C9FF",
"j 	c #71C5FF",
"k 	c #6BC2FF",
"l 	c #65BFFF",
"m 	c #336486",
"n 	c #707070",
"o 	c #121516",
"p 	c #486B7E",
"q 	c #88CCF4",
"r 	c #89D2FF",
"s 	c #83CFFF",
"t 	c #7DCCFF",
"u 	c #77C9FF",
"v 	c #71C6FF",
"w 	c #6CC3FF",
"x 	c #66C0FF",
"y 	c #60BCFF",
"z 	c #1A3447",
"A 	c #354D5A",
"B 	c #83BFE1",
"C 	c #8FD6FF",
"D 	c #89D3FF",
"E 	c #83D0FF",
"F 	c #7ECCFF",
"G 	c #78C9FF",
"H 	c #72C6FF",
"I 	c #67C0FF",
"J 	c #61BDFF",
"K 	c #59B5F9",
"L 	c #AAAAAA",
"M 	c #353535",
"N 	c #223037",
"O 	c #77AAC5",
"P 	c #96D9FF",
"Q 	c #90D6FF",
"R 	c #8AD3FF",
"S 	c #84D0FF",
"T 	c #7ECDFF",
"U 	c #79CAFF",
"V 	c #73C7FF",
"W 	c #6DC4FF",
"X 	c #5CBAFF",
"Y 	c #438FC6",
"Z 	c #BFBFBF",
"` 	c #141A1E",
" .	c #668EA2",
"..	c #9BDBFD",
"+.	c #96DAFF",
"@.	c #90D7FF",
"#.	c #8BD4FF",
"$.	c #85D0FF",
"%.	c #7FCDFF",
"&.	c #68C1FF",
"*.	c #62BEFF",
"=.	c #5CBBFF",
"-.	c #57B7FF",
";.	c #2B6087",
">.	c #C4C4C4",
",.	c #5C5C5C",
"'.	c #111619",
").	c #5C8295",
"!.	c #95D7FB",
"~.	c #91D7FF",
"{.	c #86D1FF",
"].	c #80CEFF",
"^.	c #7ACBFF",
"/.	c #6FC4FF",
"(.	c #69C1FF",
"_.	c #63BEFF",
":.	c #5DBBFF",
"<.	c #57B8FF",
"[.	c #52B5FF",
"}.	c #29608A",
"|.	c #616161",
"1.	c #B2B2B2",
"2.	c #3E3E3E",
"3.	c #1A262D",
"4.	c #669BBA",
"5.	c #69C2FF",
"6.	c #64BEFF",
"7.	c #5EBBFF",
"8.	c #58B8FF",
"9.	c #4DB2FF",
"0.	c #388AC9",
"a.	c #2D2D2D",
"b.	c #242424",
"c.	c #273E4D",
"d.	c #69ADD9",
"e.	c #64BFFF",
"f.	c #5FBCFF",
"g.	c #59B9FF",
"h.	c #53B6FF",
"i.	c #48AFFF",
"j.	c #40A9FA",
"k.	c #080E13",
"l.	c #7A7A7A",
"m.	c #141617",
"n.	c #325872",
"o.	c #64B6EE",
"p.	c #5AB9FF",
"q.	c #54B6FF",
"r.	c #4EB3FF",
"s.	c #48B0FF",
"t.	c #42ADFF",
"u.	c #3DA9FF",
"v.	c #10304A",
"w.	c #969696",
"x.	c #0D151A",
"y.	c #396F96",
"z.	c #59B7FB",
"A.	c #55B6FF",
"B.	c #4FB3FF",
"C.	c #49B0FF",
"D.	c #43ADFF",
"E.	c #3DAAFF",
"F.	c #38A7FF",
"G.	c #1B5889",
"H.	c #B1B1B1",
"I.	c #10212E",
"J.	c #3A83BB",
"K.	c #4AB0FF",
"L.	c #44ADFF",
"M.	c #3EAAFF",
"N.	c #33A4FF",
"O.	c #247FC9",
"P.	c #15354E",
"Q.	c #3691D9",
"R.	c #39A8FF",
"S.	c #2EA1FF",
"T.	c #279BFA",
"U.	c #060D13",
"V.	c #121517",
"W.	c #184A73",
"X.	c #2B97EF",
"Y.	c #299FFF",
"Z.	c #239BFF",
"`.	c #092C49",
" +	c #C3C3C3",
".+	c #08121B",
"++	c #155D98",
"@+	c #1D96FB",
"#+	c #0D5189",
"$+	c #626262",
"%+	c #051B2F",
"&+	c #0A4D86",
"*+	c #979797",
"=+	c #232323",
"-+	c #040404",
";+	c #797979",
">+	c #A5A5A5",
"                                          . +   ",
"                                      @ # $     ",
"                                  % & * = -     ",
"                              ; > , ' ) ! ~     ",
"                            . { ] ^ / ( _ :     ",
"                        < [ } | 1 2 3 4 5       ",
"                    % & 6 7 8 1 9 0 a b -       ",
"                ; c d e f g h i j k l m ~       ",
"              n o p q r s t u v w x y z :       ",
"          < [ A B C D E F G H w I J K 5         ",
"      L M N O P Q R S T U V W I J X Y -         ",
"  Z c `  ...+.@.#.$.%.U / ( &.*.=.-.;.~         ",
"  >.,.'.).!.~.#.{.].^./ /.(._.:.<.[.}.|.        ",
"      1.2.3.4.{.8 1 2 3 5.6.7.8.[.9.0.a.        ",
"          : b.c.d.9 0 a e.f.g.h.9.i.j.k.        ",
"              l.m.n.o.l f.p.q.r.s.t.u.v.w.      ",
"                >.,.x.y.z.A.B.C.D.E.F.G.|.      ",
"                    H.2.I.J.K.L.M.F.N.O.a.      ",
"                        : b.P.Q.R.N.S.T.U.      ",
"                            l.V.W.X.Y.Z.`.w.    ",
"                               +,..+++@+#+$+    ",
"                                  H.2.%+&+a.    ",
"                                      *+=+-+    ",
"                                          ;+>+  "};
