/* XPM */
static char * btn_addfold32_xpm[] = {
"32 32 271 2",
"  	c None",
". 	c #000000",
"+ 	c #FFFCD7",
"@ 	c #DBFFFF",
"# 	c #D8FDFF",
"$ 	c #D1F9FF",
"% 	c #D6FCFF",
"& 	c #CEF8FF",
"* 	c #C7F4FF",
"= 	c #D4FBFF",
"- 	c #CCF7FF",
"; 	c #C5F3FF",
"> 	c #BDEFFF",
", 	c #FFFBD3",
"' 	c #FFFACE",
") 	c #FFF9C9",
"! 	c #FFF8C4",
"~ 	c #FFF6C0",
"{ 	c #CBF6FF",
"] 	c #C3F2FF",
"^ 	c #BBEEFF",
"/ 	c #B4EAFF",
"( 	c #FFEE9E",
"_ 	c #FFED99",
": 	c #FFFCD4",
"< 	c #FFFACF",
"[ 	c #FFF9CA",
"} 	c #FFF8C5",
"| 	c #FFF7C0",
"1 	c #FFF6BC",
"2 	c #FFF4B7",
"3 	c #C1F1FF",
"4 	c #BAEDFF",
"5 	c #B2E9FF",
"6 	c #ABE5FF",
"7 	c #FFEC95",
"8 	c #FFEB91",
"9 	c #FFFCD5",
"0 	c #FFFBD0",
"a 	c #FFF9CB",
"b 	c #FFF8C6",
"c 	c #FFF7C1",
"d 	c #FFF6BD",
"e 	c #FFF4B8",
"f 	c #FFF3B3",
"g 	c #FFF2AF",
"h 	c #B8ECFF",
"i 	c #B0E8FF",
"j 	c #A8E3FF",
"k 	c #A1DFFF",
"l 	c #FFEA8D",
"m 	c #FFE888",
"n 	c #FFFCD6",
"o 	c #FFFBD2",
"p 	c #FFFACD",
"q 	c #AFE7FF",
"r 	c #A7E3FF",
"s 	c #9FDEFF",
"t 	c #98DBFF",
"u 	c #DAFEFF",
"v 	c #D2FAFF",
"w 	c #BCEEFF",
"x 	c #ACE6FF",
"y 	c #A5E2FF",
"z 	c #9DDEFF",
"A 	c #95D9FF",
"B 	c #8ED5FF",
"C 	c #86D1FF",
"D 	c #7ECDFF",
"E 	c #77C9FF",
"F 	c #6FC5FF",
"G 	c #68C1FF",
"H 	c #60BDFF",
"I 	c #58B8FF",
"J 	c #FFF5BB",
"K 	c #D0F9FF",
"L 	c #C9F5FF",
"M 	c #AAE5FF",
"N 	c #A3E0FF",
"O 	c #9BDCFF",
"P 	c #93D8FF",
"Q 	c #8CD4FF",
"R 	c #84D0FF",
"S 	c #7DCCFF",
"T 	c #75C8FF",
"U 	c #6EC4FF",
"V 	c #66C0FF",
"W 	c #5EBBFF",
"X 	c #57B7FF",
"Y 	c #4FB3FF",
"Z 	c #FFF8C7",
"` 	c #FFF7C2",
" .	c #FFF5B8",
"..	c #C0F0FF",
"+.	c #B1E8FF",
"@.	c #A9E4FF",
"#.	c #A1E0FF",
"$.	c #9ADCFF",
"%.	c #92D8FF",
"&.	c #8AD3FF",
"*.	c #83CFFF",
"=.	c #7BCBFF",
"-.	c #74C7FF",
";.	c #6CC3FF",
">.	c #64BFFF",
",.	c #5DBBFF",
"'.	c #55B6FF",
").	c #4DB2FF",
"!.	c #46AEFF",
"~.	c #FFFBD1",
"{.	c #FFF7C3",
"].	c #FFF6BE",
"^.	c #FFF5B9",
"/.	c #FFF4B4",
"(.	c #FFF2B0",
"_.	c #FFF1AB",
":.	c #BEEFFF",
"<.	c #B6EBFF",
"[.	c #9FDFFF",
"}.	c #90D6FF",
"|.	c #89D2FF",
"1.	c #81CEFF",
"2.	c #79CAFF",
"3.	c #72C6FF",
"4.	c #6AC2FF",
"5.	c #62BEFF",
"6.	c #5BBAFF",
"7.	c #53B5FF",
"8.	c #4BB1FF",
"9.	c #44ADFF",
"0.	c #3CA9FF",
"a.	c #FFF4B6",
"b.	c #FFF3B1",
"c.	c #FFF2AC",
"d.	c #FFF0A8",
"e.	c #FFEFA3",
"f.	c #80CDFF",
"g.	c #78C9FF",
"h.	c #70C5FF",
"i.	c #69C1FF",
"j.	c #FFF5BC",
"k.	c #FFF3B2",
"l.	c #FFF2AD",
"m.	c #FFF1A9",
"n.	c #FFEFA4",
"o.	c #FFEE9F",
"p.	c #FFED9A",
"q.	c #FFEA91",
"r.	c #FFE98C",
"s.	c #FFE887",
"t.	c #FFE782",
"u.	c #FFE67E",
"v.	c #FFE479",
"w.	c #FFE374",
"x.	c #76C8FF",
"y.	c #5FBCFF",
"z.	c #FFDB52",
"A.	c #FFD94E",
"B.	c #FFF2AE",
"C.	c #FFF0A5",
"D.	c #FFEEA0",
"E.	c #FFED9B",
"F.	c #FFEC97",
"G.	c #FFEB92",
"H.	c #FFE98D",
"I.	c #FFE783",
"J.	c #FFE57A",
"K.	c #FFE375",
"L.	c #FFE270",
"M.	c #FFE16C",
"N.	c #5CBBFF",
"O.	c #55B7FF",
"P.	c #FFD84A",
"Q.	c #FFD745",
"R.	c #FFF4B5",
"S.	c #FFF0A6",
"T.	c #FFEFA1",
"U.	c #FFEE9D",
"V.	c #FFEC98",
"W.	c #FFEB93",
"X.	c #FFEA8F",
"Y.	c #FFE98A",
"Z.	c #FFE785",
"`.	c #FFE680",
" +	c #FFE57B",
".+	c #FFE477",
"++	c #FFE372",
"@+	c #FFE16D",
"#+	c #FFE068",
"$+	c #FFDF64",
"%+	c #63BEFF",
"&+	c #53B6FF",
"*+	c #4CB2FF",
"=+	c #FFD642",
"-+	c #FFD53D",
";+	c #FFF1AC",
">+	c #FFF0A7",
",+	c #FFEB94",
"'+	c #FFE98B",
")+	c #FFE886",
"!+	c #FFE781",
"~+	c #FFE57C",
"{+	c #FFE478",
"]+	c #FFE373",
"^+	c #FFE26E",
"/+	c #FFE069",
"(+	c #FFDE60",
"_+	c #FFDD5B",
":+	c #59B9FF",
"<+	c #51B5FF",
"[+	c #4AB1FF",
"}+	c #43ADFF",
"|+	c #FFD439",
"1+	c #FFD335",
"2+	c #FFEA90",
"3+	c #FFE67D",
"4+	c #FFE26F",
"5+	c #FFE16A",
"6+	c #FFDF65",
"7+	c #FFDE61",
"8+	c #FFDD5C",
"9+	c #FFDC57",
"0+	c #50B4FF",
"a+	c #48AFFF",
"b+	c #40ABFF",
"c+	c #39A7FF",
"d+	c #FFD231",
"e+	c #FFD12C",
"f+	c #FFED9C",
"g+	c #FFE784",
"h+	c #FFE67F",
"i+	c #FFE476",
"j+	c #FFE067",
"k+	c #FFDF62",
"l+	c #FFDD5D",
"m+	c #FFDC59",
"n+	c #FFDB54",
"o+	c #FFDA4F",
"p+	c #FFD94A",
"q+	c #47AFFF",
"r+	c #3FABFF",
"s+	c #37A6FF",
"t+	c #30A2FF",
"u+	c #FFD029",
"v+	c #FFCF24",
"w+	c #FFEA8E",
"x+	c #FFE271",
"y+	c #FFDF63",
"z+	c #FFDE5F",
"A+	c #FFDC5A",
"B+	c #FFDB55",
"C+	c #FFDA50",
"D+	c #FFD94B",
"E+	c #FFD847",
"F+	c #FFCE20",
"G+	c #FFCD1C",
"H+	c #FFE681",
"I+	c #FFDD5A",
"J+	c #FFDB56",
"K+	c #FFDA51",
"L+	c #FFD94C",
"M+	c #FFD743",
"N+	c #FFD53E",
"O+	c #FFD334",
"P+	c #FFD230",
"Q+	c #FFD12B",
"R+	c #FFCF26",
"S+	c #FFCE21",
"T+	c #FFCD1D",
"U+	c #FFCC18",
"V+	c #FFCA13",
"                                                                ",
"                                                                ",
"                                                                ",
"                                                                ",
"                                                                ",
"    . . . . . .                       . . . . . .               ",
"  . + + + + + + .                     . @ @ # $ .               ",
"  . + + + + + + .                     . @ % & * .               ",
". . + + + + + + + . . . . . . . . . . . = - ; > . . . .         ",
". + + + + + + + + + + + + + , ' ) ! ~ . { ] ^ / . ( _ .         ",
". + + + + + + + + + + + : < [ } | 1 2 . 3 4 5 6 . 7 8 .         ",
". + + + + + + + + + 9 0 a b c d e f g . h i j k . l m .         ",
". + + + + + + + n o p p . . . . . . . . q r s t . . . . . . . . ",
". + + + + + + o ' ) ! ! . u v { ] w / x y z A B C D E F G H I . ",
". + + + + , < [ } | J J . K L 3 4 5 M N O P Q R S T U V W X Y . ",
". + + 9 0 a Z ` d  .f f . * ..h +.@.#.$.%.&.*.=.-.;.>.,.'.).!.. ",
". n ~.p Z {.].^./.(._._.. :.<.q r [.t }.|.1.2.3.4.5.6.7.8.9.0.. ",
". ' ) ! ~ J a.b.c.d.e.e.. . . . . . . . f.g.h.i.. . . . . . . . ",
". } | j.2 k.l.m.n.o.p.7 q.r.s.t.u.v.w.. x.U V y.. z.A..         ",
". d e f B.m.C.D.E.F.G.H.m I.u.J.K.L.M.. ;.>.N.O.. P.Q..         ",
". R.(._.S.T.U.V.W.X.Y.Z.`. +.+++@+#+$+. %+6.&+*+. =+-+.         ",
". ;+>+e.( _ ,+X.'+)+!+~+{+]+^+/+$+(+_+. :+<+[+}+. |+1+.         ",
". n.o.p.7 2+r.s.t.3+{+w.4+5+6+7+8+9+z.. 0+a+b+c+. d+e+.         ",
". f+F.G.l m g+h+J.i+L.M.j+k+l+m+n+o+p+. q+r+s+t+. u+v+.         ",
". W.w+Y.Z.`. +i+x+@+#+y+z+A+B+C+D+E+=+. . . . . . F+G+.         ",
". Y.)+H+~+.+]+^+/+$+z+I+J+K+L+E+M+N+|+O+P+Q+R+S+T+U+V+.         ",
". . . . . . . . . . . . . . . . . . . . . . . . . . . .         ",
"                                                                ",
"                                                                ",
"                                                                ",
"                                                                ",
"                                                                "};
