/* XPM */
static char * btn_quit_xpm[] = {
"28 40 306 2",
"  	c None",
". 	c #5B5B5B",
"+ 	c #808080",
"@ 	c #7E7E7F",
"# 	c #A5A5A5",
"$ 	c #D8D8D8",
"% 	c #878787",
"& 	c #FEFEFF",
"* 	c #FBFBFC",
"= 	c #CECECF",
"- 	c #949495",
"; 	c #828282",
"> 	c #7D7D7D",
", 	c #979797",
"' 	c #CCCCCC",
") 	c #878788",
"! 	c #FDFDFE",
"~ 	c #DEDEDF",
"{ 	c #A3A3A3",
"] 	c #838384",
"^ 	c #7D7D7E",
"/ 	c #8A8A8A",
"( 	c #BFBFBF",
"_ 	c #8F8E8C",
": 	c #85837E",
"< 	c #AAAAAB",
"[ 	c #E3E3E4",
"} 	c #ECECED",
"| 	c #B2B2B3",
"1 	c #868687",
"2 	c #7F7F7F",
"3 	c #B0B0B0",
"4 	c #888378",
"5 	c #FDE2A4",
"6 	c #D8C292",
"7 	c #9D8F6F",
"8 	c #827A68",
"9 	c #817E78",
"0 	c #CDCDCD",
"a 	c #FAFAFB",
"b 	c #F4F5F6",
"c 	c #BCBFC2",
"d 	c #868B8E",
"e 	c #7B7E81",
"f 	c #7C7D7E",
"g 	c #A2A2A2",
"h 	c #D9D9D9",
"i 	c #FFE4A5",
"j 	c #FFE6AC",
"k 	c #FFE8B4",
"l 	c #FFEABB",
"m 	c #FFECC2",
"n 	c #EBDBB9",
"o 	c #B1A791",
"p 	c #837D71",
"q 	c #7E7B76",
"r 	c #838383",
"s 	c #B3B4B5",
"t 	c #E5EAED",
"u 	c #F0F9FF",
"v 	c #EAF7FF",
"w 	c #E4F4FF",
"x 	c #DCEFFD",
"y 	c #B0C3D0",
"z 	c #808081",
"A 	c #FFEECA",
"B 	c #FFF0D1",
"C 	c #FFF2D8",
"D 	c #FFF4E0",
"E 	c #F8EFE1",
"F 	c #C6C0B9",
"G 	c #8D8A88",
"H 	c #535556",
"I 	c #777E82",
"J 	c #C3D5E1",
"K 	c #D7EFFF",
"L 	c #CFEAFC",
"M 	c #818282",
"N 	c #FFF6E7",
"O 	c #FFF8EE",
"P 	c #FFFAF6",
"Q 	c #848383",
"R 	c #B8B8B8",
"S 	c #A0B3C0",
"T 	c #D0ECFF",
"U 	c #C8E7FC",
"V 	c #818182",
"W 	c #9BB1C0",
"X 	c #C9EAFF",
"Y 	c #C1E5FC",
"Z 	c #96AFC0",
"` 	c #C2E7FF",
" .	c #BAE2FC",
"..	c #90ADC0",
"+.	c #BBE4FF",
"@.	c #B3DFFC",
"#.	c #808182",
"$.	c #8BABC0",
"%.	c #B4E1FF",
"&.	c #ACDCFC",
"*.	c #86A9C0",
"=.	c #ADDFFF",
"-.	c #A5DAFC",
";.	c #80A7C0",
">.	c #A6DCFF",
",.	c #9ED7FC",
"'.	c #878378",
").	c #7BA5C0",
"!.	c #9FD9FF",
"~.	c #97D4FC",
"{.	c #FCFEFF",
"].	c #868278",
"^.	c #76A2C0",
"/.	c #98D6FF",
"(.	c #90D1FC",
"_.	c #868686",
":.	c #FBFDFF",
"<.	c #F6FBFF",
"[.	c #838178",
"}.	c #71A0C0",
"|.	c #91D3FF",
"1.	c #89CFFC",
"2.	c #858687",
"3.	c #F5FBFF",
"4.	c #EFF8FF",
"5.	c #818078",
"6.	c #6B9EC0",
"7.	c #8AD1FF",
"8.	c #82CCFC",
"9.	c #828587",
"0.	c #EEF8FF",
"a.	c #E8F6FF",
"b.	c #7E7F78",
"c.	c #EAE2D4",
"d.	c #74716C",
"e.	c #CAC6C3",
"f.	c #669CC0",
"g.	c #83CEFF",
"h.	c #7BC9FC",
"i.	c #808487",
"j.	c #E7F5FF",
"k.	c #E1F3FF",
"l.	c #7B7E78",
"m.	c #F3E7CE",
"n.	c #888278",
"o.	c #9D988F",
"p.	c #D0CAC2",
"q.	c #FAF5F1",
"r.	c #619AC0",
"s.	c #7CCBFF",
"t.	c #74C7FC",
"u.	c #7D8387",
"v.	c #E0F2FF",
"w.	c #DAF0FF",
"x.	c #797D78",
"y.	c #5B98C0",
"z.	c #74C8FF",
"A.	c #6DC4FC",
"B.	c #7B8286",
"C.	c #D8F0FF",
"D.	c #D3EDFF",
"E.	c #767C78",
"F.	c #5696C0",
"G.	c #6DC6FF",
"H.	c #66C1FC",
"I.	c #788186",
"J.	c #D1EDFF",
"K.	c #CBEAFF",
"L.	c #747B78",
"M.	c #5194C0",
"N.	c #66C3FF",
"O.	c #5FBEFC",
"P.	c #7F8182",
"Q.	c #768187",
"R.	c #CAEAFF",
"S.	c #C4E8FF",
"T.	c #717A78",
"U.	c #4B92C0",
"V.	c #5FC0FF",
"W.	c #58BCFC",
"X.	c #747F86",
"Y.	c #C3E7FF",
"Z.	c #BDE5FF",
"`.	c #6E7978",
" +	c #4690C0",
".+	c #58BDFF",
"++	c #51B9FC",
"@+	c #727F86",
"#+	c #BCE5FF",
"$+	c #B6E2FF",
"%+	c #6C7878",
"&+	c #418EC0",
"*+	c #51BBFF",
"=+	c #4BB6FC",
"-+	c #6F7D86",
";+	c #B5E2FF",
">+	c #AFDFFF",
",+	c #697778",
"'+	c #3C8CC0",
")+	c #4AB8FF",
"!+	c #44B3FC",
"~+	c #6D7C86",
"{+	c #AEDFFF",
"]+	c #A8DDFF",
"^+	c #677678",
"/+	c #368AC0",
"(+	c #43B5FF",
"_+	c #3DB1FC",
":+	c #7F8082",
"<+	c #6B7B86",
"[+	c #A7DCFF",
"}+	c #A1DAFF",
"|+	c #647578",
"1+	c #3187C0",
"2+	c #3CB2FF",
"3+	c #36AEFC",
"4+	c #697B86",
"5+	c #A0D9FF",
"6+	c #9AD7FF",
"7+	c #627478",
"8+	c #2C85C0",
"9+	c #35B0FF",
"0+	c #2FABFC",
"a+	c #A0A0A0",
"b+	c #777777",
"c+	c #5C6E7B",
"d+	c #99D7FF",
"e+	c #93D4FF",
"f+	c #5F7378",
"g+	c #2683C0",
"h+	c #2EADFF",
"i+	c #28A8FC",
"j+	c #7E8082",
"k+	c #E3E3E3",
"l+	c #E6E6E6",
"m+	c #D3D3D3",
"n+	c #566A77",
"o+	c #92D4FF",
"p+	c #8CD2FF",
"q+	c #5C7278",
"r+	c #EBE0CE",
"s+	c #ACA69C",
"t+	c #84817C",
"u+	c #7D7D7C",
"v+	c #A7A7A7",
"w+	c #2181C0",
"x+	c #27AAFF",
"y+	c #21A6FC",
"z+	c #939393",
"A+	c #9E9E9E",
"B+	c #5E7381",
"C+	c #8BD1FF",
"D+	c #85CFFF",
"E+	c #5A7178",
"F+	c #EEDCB5",
"G+	c #B0A48B",
"H+	c #857F71",
"I+	c #7E7B77",
"J+	c #8C8C8B",
"K+	c #C4C4C4",
"L+	c #1C7FC0",
"M+	c #20A7FF",
"N+	c #1AA3FC",
"O+	c #BEBEBE",
"P+	c #6F7476",
"Q+	c #4F7085",
"R+	c #64A1CA",
"S+	c #576F78",
"T+	c #F1D79C",
"U+	c #B4A27A",
"V+	c #867B64",
"W+	c #7E7A70",
"X+	c #898988",
"Y+	c #C1C1C1",
"Z+	c #177DC0",
"`+	c #19A4FF",
" @	c #13A0FC",
".@	c #A6A6A6",
"+@	c #606060",
"@@	c #878685",
"#@	c #BDBDBD",
"$@	c #117BC0",
"%@	c #12A2FF",
"&@	c #0C9EFC",
"*@	c #0C79C0",
"=@	c #0B9FFF",
"-@	c #059BFC",
";@	c #0777C0",
">@	c #049CFF",
",@	c #0099FC",
"'@	c #484A4C",
")@	c #969696",
"!@	c #044A77",
"~@	c #0083D7",
"{@	c #0099FB",
"]@	c #C7C7C7",
"^@	c #818181",
"/@	c #909090",
"(@	c #D7D7D7",
"_@	c #9D9D9D",
":@	c #5E707C",
"<@	c #5C5C5D",
"[@	c #AEAEAE",
"}@	c #E4E4E4",
"|@	c #787878",
"1@	c #949494",
"      . + @ # $                                         ",
"      % & * = - ; > , '                                 ",
"      ) & & & & & ! ~ { ] ^ / (                         ",
"      ) & & _ : < [ & & & & } | 1 2 ; 3                 ",
"      % & & 4 5 6 7 8 9 - 0 a & & & b c d e f g h       ",
"      % & & 4 i j k l m n o p q r s t u v w x y z       ",
"      ) & & 4 i j k l m A B C D E F G H I J K L M       ",
"      % & & 4 i j k l m A B C D N O P Q R S T U V       ",
"      % & & 4 i j k l m A B C D N O P Q R W X Y V       ",
"      % & & 4 i j k l m A B C D N O P Q R Z `  .V       ",
"      % & & 4 i j k l m A B C D N O P Q R ..+.@.#.      ",
"      1 & & 4 i j k l m A B C D N O P Q R $.%.&.#.      ",
"      ) & & 4 i j k l m A B C D N O P Q R *.=.-.#.      ",
"      % & & 4 i j k l m A B C D N O P Q R ;.>.,.#.      ",
"      1 & & '.i j k l m A B C D N O P Q R ).!.~.#.      ",
"      1 & {.].i j k l m A B C D N O P Q R ^./.(.#.      ",
"      _.:.<.[.i j k l m A B C D N O P Q R }.|.1.#.      ",
"      2.3.4.5.i j k l m A B C D N O P Q R 6.7.8.#.      ",
"      9.0.a.b.i j k l m A B C D c.d.e.Q R f.g.h.#.      ",
"      i.j.k.l.i j k l m A B m.n.o.p.q.Q R r.s.t.#.      ",
"      u.v.w.x.i j k l m A B C D N O P Q R y.z.A.#.      ",
"      B.C.D.E.i j k l m A B C D N O P Q R F.G.H.#.      ",
"      I.J.K.L.i j k l m A B C D N O P Q R M.N.O.P.      ",
"      Q.R.S.T.i j k l m A B C D N O P Q R U.V.W.P.      ",
"      X.Y.Z.`.i j k l m A B C D N O P Q R  +.+++P.      ",
"      @+#+$+%+i j k l m A B C D N O P Q R &+*+=+P.      ",
"      -+;+>+,+i j k l m A B C D N O P Q R '+)+!+P.      ",
"      ~+{+]+^+i j k l m A B C D N O P Q R /+(+_+:+      ",
"      <+[+}+|+i j k l m A B C D N O P Q R 1+2+3+:+      ",
"      4+5+6+7+i j k l m A B C D N O P Q R 8+9+0+:+      ",
"a+b+/ c+d+e+f+i j k l m A B C D N O P r R g+h+i+j+      ",
"k+l+m+n+o+p+q+i j k l m A B C r+s+t+u+v+R w+x+y+j+      ",
"z+b+A+B+C+D+E+i j k l F+G+H+I+J+K+      R L+M+N+j+      ",
"    O+P+Q+R+S+T+U+V+W+X+Y+              R Z+`+ @j+      ",
"          .@+@@@#@                      R $@%@&@j+      ",
"                                        R *@=@-@j+      ",
"                                        R ;@>@,@'@)@    ",
"                                        #@!@~@{@j+]@^@/@",
"                                          (@_@:@<@[@}@l+",
"                                                  [@|@1@"};
