/* XPM */
static char * btn_settings_xpm[] = {
"48 34 565 2",
"  	c None",
". 	c #BABABA",
"+ 	c #666A6D",
"@ 	c #5B6A74",
"# 	c #5C6D78",
"$ 	c #485157",
"% 	c #CBCBCB",
"& 	c #48555E",
"* 	c #AEDAF8",
"= 	c #B9E3FF",
"- 	c #C0E6FF",
"; 	c #AECCE0",
"> 	c #838484",
", 	c #BDBDBD",
"' 	c #CCCCCC",
") 	c #5A6B76",
"! 	c #AFDFFF",
"~ 	c #B6E2FF",
"{ 	c #BDE5FF",
"] 	c #C3E7FF",
"^ 	c #61686D",
"/ 	c #BBBBBB",
"( 	c #6E7173",
"_ 	c #888A8C",
": 	c #696969",
"< 	c #D1D1D1",
"[ 	c #5C6B75",
"} 	c #ACDEFF",
"| 	c #B2E1FF",
"1 	c #839AA9",
"2 	c #656D73",
"3 	c #686B6E",
"4 	c #888888",
"5 	c #B3B3B3",
"6 	c #64696C",
"7 	c #EBF5FC",
"8 	c #F4FAFF",
"9 	c #ECEFF0",
"0 	c #646464",
"a 	c #CFCFCF",
"b 	c #A7A7A7",
"c 	c #838485",
"d 	c #597385",
"e 	c #A8DDFF",
"f 	c #B5E2FF",
"g 	c #BCE4FF",
"h 	c #C9EAFF",
"i 	c #D0ECFF",
"j 	c #B8CEDC",
"k 	c #808C95",
"l 	c #DDEDF8",
"m 	c #EAF6FF",
"n 	c #F1F9FF",
"o 	c #F7FCFF",
"p 	c #EFF0F1",
"q 	c #616161",
"r 	c #676C70",
"s 	c #4B7FA1",
"t 	c #435D6E",
"u 	c #898A8A",
"v 	c #4B5962",
"w 	c #7DB1D2",
"x 	c #9ED9FF",
"y 	c #A5DBFF",
"z 	c #ABDEFF",
"A 	c #BFE6FF",
"B 	c #C6E8FF",
"C 	c #CCEBFF",
"D 	c #D3EDFF",
"E 	c #D9F0FF",
"F 	c #E0F3FF",
"G 	c #E7F5FF",
"H 	c #EDF8FF",
"I 	c #AAACAD",
"J 	c #A8A8A8",
"K 	c #88898A",
"L 	c #5397C3",
"M 	c #73C8FF",
"N 	c #7ACBFF",
"O 	c #68A6CF",
"P 	c #486F88",
"Q 	c #8BCEFA",
"R 	c #94D5FF",
"S 	c #9BD7FF",
"T 	c #A2DAFF",
"U 	c #AEDFFF",
"V 	c #C2E7FF",
"W 	c #C9E9FF",
"X 	c #CFECFF",
"Y 	c #D6EFFF",
"Z 	c #DDF1FF",
"` 	c #E3F4FF",
" .	c #EFF7FD",
"..	c #636465",
"+.	c #395B71",
"@.	c #69C4FF",
"#.	c #70C7FF",
"$.	c #76C9FF",
"%.	c #7DCCFF",
"&.	c #84CEFF",
"*.	c #8AD1FF",
"=.	c #91D3FF",
"-.	c #97D6FF",
";.	c #B2E0FF",
">.	c #B8E3FF",
",.	c #BFE5FF",
"'.	c #C5E8FF",
").	c #D2EDFF",
"!.	c #E0F2FF",
"~.	c #E6F5FF",
"{.	c #D0DAE1",
"].	c #6D6D6E",
"^.	c #387094",
"/.	c #66C3FF",
"(.	c #6CC5FF",
"_.	c #7ACAFF",
":.	c #80CDFF",
"<.	c #87D0FF",
"[.	c #8DD2FF",
"}.	c #A1DAFF",
"|.	c #A8DCFF",
"1.	c #BBE4FF",
"2.	c #C8E9FF",
"3.	c #D6EEFF",
"4.	c #DCF1FF",
"5.	c #E9F6FF",
"6.	c #8F9599",
"7.	c #AFAFAF",
"8.	c #7B7E80",
"9.	c #4382AB",
"0.	c #6FC6FF",
"a.	c #83CEFF",
"b.	c #90D3FF",
"c.	c #9ED8FF",
"d.	c #A4DBFF",
"e.	c #B1E0FF",
"f.	c #BEE5FF",
"g.	c #CBEAFF",
"h.	c #DFF2FF",
"i.	c #EBF6FE",
"j.	c #626466",
"k.	c #888A8A",
"l.	c #4685AE",
"m.	c #79CAFF",
"n.	c #86CFFF",
"o.	c #94D4FF",
"p.	c #9AD7FF",
"q.	c #82B0CE",
"r.	c #5C798B",
"s.	c #597181",
"t.	c #7C9AAF",
"u.	c #B5DDF8",
"v.	c #C1E7FF",
"w.	c #D5EEFF",
"x.	c #E2F3FF",
"y.	c #B5BDC2",
"z.	c #696A6B",
"A.	c #737374",
"B.	c #747475",
"C.	c #7F7F7F",
"D.	c #A3A3A3",
"E.	c #498FBD",
"F.	c #68C4FF",
"G.	c #7CCBFF",
"H.	c #89D1FF",
"I.	c #8ACAF5",
"J.	c #4B6170",
"K.	c #8F8F8F",
"L.	c #D3D3D3",
"M.	c #B0B0B0",
"N.	c #5A5F63",
"O.	c #97B5CA",
"P.	c #C4E8FF",
"Q.	c #D8EFFF",
"R.	c #E5F5FF",
"S.	c #ECF7FF",
"T.	c #F3FAFF",
"U.	c #F9FCFF",
"V.	c #FEFEFF",
"W.	c #888989",
"X.	c #62696E",
"Y.	c #5F6C74",
"Z.	c #626D73",
"`.	c #6F7173",
" +	c #676D70",
".+	c #5CBCFA",
"++	c #65C2FF",
"@+	c #72C7FF",
"#+	c #7FCDFF",
"$+	c #485F6F",
"%+	c #676A6C",
"&+	c #A9C9DE",
"*+	c #CEECFF",
"=+	c #DBF1FF",
"-+	c #E8F6FF",
";+	c #EFF8FF",
">+	c #F6FBFF",
",+	c #FCFDFF",
"'+	c #B0B0B1",
")+	c #B2B2B2",
"!+	c #C1C1C1",
"~+	c #618195",
"{+	c #6B7C87",
"]+	c #D7D7D7",
"^+	c #4B6372",
"/+	c #5BBEFF",
"(+	c #61C1FF",
"_+	c #75C9FF",
":+	c #66A2C9",
"<+	c #939394",
"[+	c #5D6B75",
"}+	c #D1EDFF",
"|+	c #DEF2FF",
"1+	c #E5F4FF",
"2+	c #F2FAFF",
"3+	c #C8C9CA",
"4+	c #9E9E9E",
"5+	c #B5B5B5",
"6+	c #6F96B0",
"7+	c #AADDFF",
"8+	c #B3E1FF",
"9+	c #8EA7B7",
"0+	c #ACACAC",
"a+	c #31576F",
"b+	c #57BDFF",
"c+	c #5EC0FF",
"d+	c #6BC5FF",
"e+	c #78CAFF",
"f+	c #416882",
"g+	c #676B6E",
"h+	c #C7E9FF",
"i+	c #CEEBFF",
"j+	c #D4EEFF",
"k+	c #E1F3FF",
"l+	c #EEF3F7",
"m+	c #8B8C8D",
"n+	c #7A7A7A",
"o+	c #77A4C1",
"p+	c #A5DCFF",
"q+	c #B4D6EC",
"r+	c #596268",
"s+	c #7F8080",
"t+	c #D9D9D9",
"u+	c #7D7D7D",
"v+	c #C7C7C7",
"w+	c #626B71",
"x+	c #295877",
"y+	c #3487BC",
"z+	c #4CB6FB",
"A+	c #54BCFF",
"B+	c #5ABEFF",
"C+	c #68C3FF",
"D+	c #6EC6FF",
"E+	c #3F6279",
"F+	c #6C6E6F",
"G+	c #BCE4FE",
"H+	c #C4E7FF",
"I+	c #CAEAFF",
"J+	c #D7EFFF",
"K+	c #CCDBE4",
"L+	c #6A6E71",
"M+	c #242525",
"N+	c #919191",
"O+	c #C8C8C8",
"P+	c #4A5962",
"Q+	c #6CA1C3",
"R+	c #B6CDDD",
"S+	c #5F666B",
"T+	c #6E6E6E",
"U+	c #6F7275",
"V+	c #D3D6D8",
"W+	c #6A6A6A",
"X+	c #205678",
"Y+	c #3DB3FF",
"Z+	c #43B5FF",
"`+	c #4AB8FF",
" @	c #51BAFF",
".@	c #5DBFFF",
"+@	c #64C2FF",
"@@	c #71C7FF",
"#@	c #467696",
"$@	c #5F686E",
"%@	c #CDEBFF",
"&@	c #DAF0FF",
"*@	c #9DA9B2",
"=@	c #464A4C",
"-@	c #3C82B0",
";@	c #366B8E",
">@	c #4C5F6B",
",@	c #3E5B6E",
"'@	c #7BC7F8",
")@	c #89D0FF",
"!@	c #93D4FF",
"~@	c #9DD8FF",
"{@	c #A7DCFF",
"]@	c #B0E0FF",
"^@	c #BAE4FF",
"/@	c #CFDEE9",
"(@	c #F6F7F8",
"_@	c #636363",
":@	c #1F5578",
"<@	c #39B1FF",
"[@	c #40B4FF",
"}@	c #46B6FF",
"|@	c #4DB9FF",
"1@	c #53BBFF",
"2@	c #67C3FF",
"3@	c #6BB8EB",
"4@	c #666B6E",
"5@	c #B6B6B6",
"6@	c #6B8799",
"7@	c #79858D",
"8@	c #255B7E",
"9@	c #70C6FE",
"0@	c #7BCBFF",
"a@	c #85CFFF",
"b@	c #8FD3FF",
"c@	c #99D6FF",
"d@	c #F2F9FF",
"e@	c #FBFDFF",
"f@	c #B5B5B6",
"g@	c #A6A6A6",
"h@	c #3C5B6F",
"i@	c #36B0FF",
"j@	c #3CB2FF",
"k@	c #50BAFF",
"l@	c #56BDFF",
"m@	c #6AC4FF",
"n@	c #5088AD",
"o@	c #808283",
"p@	c #4F606B",
"q@	c #AADCFC",
"r@	c #D3EEFF",
"s@	c #444C52",
"t@	c #3FA4E7",
"u@	c #4FBAFF",
"v@	c #59BDFF",
"w@	c #63C1FF",
"x@	c #6C9BB9",
"y@	c #50697A",
"z@	c #546977",
"A@	c #708DA0",
"B@	c #B6DDF7",
"C@	c #B8B8B9",
"D@	c #858687",
"E@	c #2683BF",
"F@	c #2F92D3",
"G@	c #328DC8",
"H@	c #3D9DDB",
"I@	c #60C0FF",
"J@	c #6DC6FF",
"K@	c #74C8FF",
"L@	c #5E9CC5",
"M@	c #4A5E6B",
"N@	c #717273",
"O@	c #7B7B7B",
"P@	c #5E666B",
"Q@	c #58788D",
"R@	c #A0D7FB",
"S@	c #C5E0F1",
"T@	c #0F1F2A",
"U@	c #40B3FD",
"V@	c #4BB8FF",
"W@	c #79C7FA",
"X@	c #455E6F",
"Y@	c #9E9F9F",
"Z@	c #555C60",
"`@	c #ADCEE3",
" #	c #9DA2A5",
".#	c #828282",
"+#	c #8B8B8B",
"@#	c #959595",
"##	c #9F9F9F",
"$#	c #435560",
"%#	c #48B5FB",
"&#	c #56BCFF",
"*#	c #63C2FF",
"=#	c #77C9FF",
"-#	c #7ECCFF",
";#	c #80C8F6",
">#	c #82C4EF",
",#	c #98D6FF",
"'#	c #CBEAFE",
")#	c #616E77",
"!#	c #102D3F",
"~#	c #3D9CDB",
"{#	c #446E8A",
"]#	c #C0C0C0",
"^#	c #576066",
"/#	c #C7E8FF",
"(#	c #DBF0FF",
"_#	c #E3F3FD",
":#	c #606162",
"<#	c #B7B7B7",
"[#	c #2C6C96",
"}#	c #4CB9FF",
"|#	c #59BEFF",
"1#	c #6DC5FF",
"2#	c #81CDFF",
"3#	c #8ED2FF",
"4#	c #74828B",
"5#	c #0C1216",
"6#	c #4BB7FC",
"7#	c #5FC0FF",
"8#	c #69C3FE",
"9#	c #909090",
"0#	c #A2C0D4",
"a#	c #6D7073",
"b#	c #6F7478",
"c#	c #3D98D3",
"d#	c #5CBFFF",
"e#	c #B9D1E1",
"f#	c #0E1419",
"g#	c #48B7FF",
"h#	c #51BBFF",
"i#	c #5FB7F1",
"j#	c #839DAE",
"k#	c #6D7276",
"l#	c #B9B9B9",
"m#	c #2A6D98",
"n#	c #4CB8FF",
"o#	c #52BBFF",
"p#	c #ADDDFD",
"q#	c #B3DFFD",
"r#	c #66737B",
"s#	c #595B5D",
"t#	c #42B2FB",
"u#	c #5FBEFC",
"v#	c #9D9D9D",
"w#	c #91B1C6",
"x#	c #5E6468",
"y#	c #515F68",
"z#	c #40B0F8",
"A#	c #55BCFF",
"B#	c #62C1FF",
"C#	c #70C6FF",
"D#	c #99CCEE",
"E#	c #4E5E68",
"F#	c #575F64",
"G#	c #7D9AAD",
"H#	c #BDE4FE",
"I#	c #859DAD",
"J#	c #8A8A8A",
"K#	c #3697D6",
"L#	c #49B7FF",
"M#	c #395F77",
"N#	c #D5D5D5",
"O#	c #575E63",
"P#	c #B3DFFB",
"Q#	c #BCCEDA",
"R#	c #5E6264",
"S#	c #236A99",
"T#	c #3EB3FF",
"U#	c #45B6FF",
"V#	c #58BCFE",
"W#	c #90D0FA",
"X#	c #60869F",
"Y#	c #606569",
"Z#	c #D4D4D4",
"`#	c #555B5F",
" $	c #8C8D8D",
".$	c #28506B",
"+$	c #39ABF6",
"@$	c #4EB9FF",
"#$	c #58BDFF",
"$$	c #5AB3EC",
"%$	c #455560",
"&$	c #C9C9C9",
"*$	c #83ADC8",
"=$	c #E1F2FD",
"-$	c #55595C",
";$	c #C2C2C2",
">$	c #255676",
",$	c #3AB1FE",
"'$	c #41B4FF",
")$	c #49AEEF",
"!$	c #384D5B",
"~$	c #3A7296",
"{$	c #529AC8",
"]$	c #65B5E8",
"^$	c #557E98",
"/$	c #A5A5A5",
"($	c #C3C3C3",
"_$	c #1B5072",
":$	c #2CAAFC",
"<$	c #63BAF3",
"[$	c #3F6C89",
"}$	c #516471",
"|$	c #586771",
"1$	c #4A6679",
"2$	c #86BBDE",
"3$	c #A3DBFF",
"4$	c #ADDFFF",
"5$	c #B7E2FF",
"6$	c #C1E6FF",
"7$	c #696C6E",
"8$	c #B1B1B1",
"9$	c #29526E",
"0$	c #38A1E6",
"a$	c #42AFF6",
"b$	c #375163",
"c$	c #494F53",
"d$	c #70C3F9",
"e$	c #5885A1",
"f$	c #155985",
"g$	c #28AAFF",
"h$	c #32AEFF",
"i$	c #8BD1FF",
"j$	c #95D5FF",
"k$	c #9FD9FF",
"l$	c #A9DDFF",
"m$	c #B1C3CF",
"n$	c #8C8C8C",
"o$	c #76797A",
"p$	c #40505B",
"q$	c #5190B9",
"r$	c #82CEFF",
"s$	c #5C8DAD",
"t$	c #B8B8B8",
"u$	c #606A70",
"v$	c #2198E6",
"w$	c #2EADFF",
"x$	c #38B0FF",
"y$	c #41B2FC",
"z$	c #83A8C0",
"A$	c #515E66",
"B$	c #7B92A1",
"C$	c #B9D5E7",
"D$	c #595E62",
"E$	c #3A5B71",
"F$	c #6DBEF4",
"G$	c #70BCED",
"H$	c #5A90B4",
"I$	c #445661",
"J$	c #324F61",
"K$	c #269EEC",
"L$	c #2170A3",
"M$	c #475863",
"N$	c #2E566F",
"O$	c #4BABEA",
"P$	c #8CD2FF",
"Q$	c #93D1FA",
"R$	c #5C7B90",
"S$	c #7E8081",
"T$	c #727273",
"U$	c #A0A0A0",
"V$	c #767777",
"W$	c #7C7C7C",
"X$	c #ABABAB",
"Y$	c #606466",
"Z$	c #6B7074",
"`$	c #335B75",
" %	c #54A6DB",
".%	c #87CEFC",
"+%	c #D8D8D8",
"@%	c #326484",
"#%	c #7CC2F0",
"$%	c #405F73",
"%%	c #70B4E0",
"&%	c #767B7F",
"*%	c #365C75",
"=%	c #335D78",
"-%	c #436074",
";%	c #60686D",
">%	c #C5C5C5",
"                    . + @ # $ %                                                                 ",
"                    & * = - ; >           , '                                                   ",
"                    ) ! ~ { ] ^         / ( _ : <                                               ",
"                    [ } | = - 1 2 3 4 5 6 7 8 9 0 a                                             ",
"        b         c d e ! f g ] h i j k l m n o p q                                             ",
"      r s t u , v w x y z | = A B C D E F G H 8 I J                                             ",
"    K L M N O P Q R S T e U f g V W X Y Z ` m  ...                                              ",
"    +.@.#.$.%.&.*.=.-.x y z ;.>.,.'.C ).E !.~.{.].                                              ",
"  5 ^./.(.M _.:.<.[.R S }.|.U f 1.V 2.X 3.4.` 5.6.7.                                            ",
"    8.9.@.0.$.%.a.*.b.-.c.d.z e.>.f.'.g.).E h.~.i.j.                                            ",
"      k.l.(.M m.:.n.[.o.p.q.r.s.t.u.v.2.X w.4.x.5.y.z.A.B.C.                                    ",
"      D.E.F.0.$.G.a.H.I.J.K.L.  M.N.O.P.g.).Q.h.R.S.T.U.V.B.        W.X.Y.Z.`.                  ",
"       +.+++(.@+m.#+n.$+'           %+&+2.*+w.=+x.-+;+>+,+'+)+    !+~+U >.V {+]+                ",
"      ^+/+(+F.0._+G.:+<+              [+P.g.}+Q.|+1+S.2+U.3+4+    5+6+7+8+{ 9+0+                ",
"    D.a+b+c+++d+@+e+f+                g+- h+i+j+=+k+-+;+l+m+0+    n+o+p+! = q+r+s+    t+u+v+    ",
"w+x+y+z+A+B+(+C+D+_+E+                F+G+H+I+}+J+|+K+L+M+N+  O+P+Q+-.}.z f ,.W R+S+T+U+V+W+O+  ",
"X+Y+Z+`+ @b+.@+@d+@@#@O+              $@= - h+%@j+&@*@=@-@;@>@,@'@)@!@~@{@]@^@P.*+Q./@S.>+(@_@  ",
":@<@[@}@|@1@B+(+2@D+3@4@            5@6@~ { ] I+i J+7@8@1@.@2@9@0@a@b@c@T } ~ - I+j+|+-+d@e@f@g@",
"h@i@j@Z+`+k@l@.@+@m@@@n@o@        , p@q@| = - B %@r@s@t@u@v@w@(.$.:.*.x@y@z@A@B@B i &@` H o C@4 ",
"D@E@F@G@H@|@1@B+I@2@J@K@L@M@N@O@P@Q@R@e ! ~ g ] h S@T@U@V@A+c+F.@+W@X@Y@    . Z@`@g.w.h.5. #.#  ",
"  +#@###$#%#k@&#.@*#m@#.=#-#;#>#=.,#x y z | = A B '#)#!#~#k@B++@D+{#]#          ^#/#}+(#_#:#    ",
"        <#[#}#1@|#I@/.1#M N 2#<.3#R S T e ! f g V W X 4#5#6#&#7#8#P@            9#0#%@J+F a#    ",
"          b#c#u@&#d#w@@.#.=#%.&.*.=.-.x y z ;.>.,.'.C e#f#g#h#/+i#n+            5@j#2.).4.k#    ",
"          l#m#n#o#|#7#/.(.M _.:.<.[.R S }.|.p#q#1.V 2.r#s#t#|@b+u#4@            v#w#P.i+Q.x#    ",
"          y#z#g#u@A#d#B#@.C#$.%.a.*.b.-.c.D#E#F#G#H#I#K.J#K#L#1@.@M#N#          O#P#- I+j+Q#R#5 ",
"        . S#T#U#V@o#V#7#++(.M m.:.n.[.W#X#Y#Z#  J `# $/ .$+$U#@$#$$$%$&$      %+*$e.1.'.X E =$-$",
"        ;$>$,$'$g#)$!$,@~${$]$$.G.a.H.^$/$          ($_$:$i@[@`+A+c+<$[$}$|$1$2$3$4$5$6$g.w.h.7$",
"          8$9$0$a$b$Z#  O+v#c$d$m.#+n.e$;$          L.f$g$h$j@}@k@|#*#J@=#2#i$j$k$l$8+{ h+i m$n$",
"            N#o$p$%         b q$_+G.r$s$t$            u$v$w$x$y$V@A#7#@.M %.<.=.S y z$A$B$C$D$  ",
"                              E$F$G$H$I$O+              J$K$L$M$N$O$/+++0.m.a.P$Q$R$S$  / T$%   ",
"                              U$V$W$X$                  Z#Y$)+  Z#Z$`$ %m@K@-#.%s@/             ",
"                                                                    +%@%/.#.N #%O@              ",
"                                                                      $%B#(.$.%%4               ",
"                                                                      &%*%=%-%;%>%              "};
