/* XPM */
static char * btn_down_xpm[] = {
"24 24 196 2",
"  	c None",
". 	c #949494",
"+ 	c #B1B1B1",
"@ 	c #B3B3B3",
"# 	c #929292",
"$ 	c #878787",
"% 	c #000000",
"& 	c #161616",
"* 	c #494949",
"= 	c #7D7D7D",
"- 	c #7E7E7E",
"; 	c #4A4A4A",
"> 	c #161717",
", 	c #828282",
"' 	c #2E2E2E",
") 	c #799092",
"! 	c #88A3A8",
"~ 	c #526468",
"{ 	c #1F2629",
"] 	c #7F7F7F",
"^ 	c #171718",
"/ 	c #142027",
"( 	c #325266",
"_ 	c #4E83A6",
": 	c #457697",
"< 	c #2A2A2A",
"[ 	c #A3A3A3",
"} 	c #1C2223",
"| 	c #C3EDF7",
"1 	c #C4F3FF",
"2 	c #BFF0FF",
"3 	c #A8D6E6",
"4 	c #769AA7",
"5 	c #475E68",
"6 	c #1B2428",
"7 	c #171818",
"8 	c #162127",
"9 	c #375566",
"0 	c #5788A6",
"a 	c #74B9E5",
"b 	c #7DCCFF",
"c 	c #78C9FF",
"d 	c #70C2F9",
"e 	c #121E27",
"f 	c #9F9F9F",
"g 	c #678087",
"h 	c #BAEDFF",
"i 	c #B4EAFF",
"j 	c #AFE7FF",
"k 	c #AAE5FF",
"l 	c #A5E2FF",
"m 	c #90C9E5",
"n 	c #6590A7",
"o 	c #618DA6",
"p 	c #81C0E4",
"q 	c #8CD4FF",
"r 	c #87D1FF",
"s 	c #82CFFF",
"t 	c #7CCCFF",
"u 	c #77C9FF",
"v 	c #72C6FF",
"w 	c #3D6D8D",
"x 	c #464646",
"y 	c #BABABA",
"z 	c #131616",
"A 	c #A7D5E6",
"B 	c #AAE4FF",
"C 	c #A5E1FF",
"D 	c #9FDFFF",
"E 	c #9ADCFF",
"F 	c #95D9FF",
"G 	c #90D6FF",
"H 	c #8BD4FF",
"I 	c #86D1FF",
"J 	c #81CEFF",
"K 	c #7CCBFF",
"L 	c #64B3EA",
"M 	c #0E1418",
"N 	c #B7B7B7",
"O 	c #686868",
"P 	c #455A63",
"Q 	c #AEE7FF",
"R 	c #A9E4FF",
"S 	c #A4E1FF",
"T 	c #9FDEFF",
"U 	c #8AD3FF",
"V 	c #85D1FF",
"W 	c #80CEFF",
"X 	c #7BCBFF",
"Y 	c #76C8FF",
"Z 	c #71C6FF",
"` 	c #6CC3FF",
" .	c #2B5069",
"..	c #636363",
"+.	c #191A1A",
"@.	c #87B7CD",
"#.	c #A3E1FF",
"$.	c #9EDEFF",
"%.	c #99DBFF",
"&.	c #94D9FF",
"*.	c #8FD6FF",
"=.	c #85D0FF",
"-.	c #75C8FF",
";.	c #70C5FF",
">.	c #6BC3FF",
",.	c #559ED2",
"'.	c #161819",
").	c #868686",
"!.	c #28383F",
"~.	c #9DDDFE",
"{.	c #98DBFF",
"].	c #93D8FF",
"^.	c #8ED5FF",
"/.	c #89D3FF",
"(.	c #84D0FF",
"_.	c #7FCDFF",
":.	c #7ACAFF",
"<.	c #6BC2FF",
"[.	c #65BFFE",
"}.	c #1B3445",
"|.	c #818181",
"1.	c #2D2D2D",
"2.	c #6693AC",
"3.	c #89D2FF",
"4.	c #83D0FF",
"5.	c #7ECDFF",
"6.	c #79CAFF",
"7.	c #74C7FF",
"8.	c #6FC5FF",
"9.	c #6AC2FF",
"0.	c #65BFFF",
"a.	c #4484B2",
"b.	c #A2A2A2",
"c.	c #151E23",
"d.	c #89CEF7",
"e.	c #88D2FF",
"f.	c #83CFFF",
"g.	c #7ECCFF",
"h.	c #6EC4FF",
"i.	c #69C2FF",
"j.	c #64BFFF",
"k.	c #5DB8F9",
"l.	c #0F1D28",
"m.	c #9E9E9E",
"n.	c #486F87",
"o.	c #73C7FF",
"p.	c #69C1FF",
"q.	c #64BEFF",
"r.	c #5FBCFF",
"s.	c #33678E",
"t.	c #454545",
"u.	c #B9B9B9",
"v.	c #101417",
"w.	c #71B8E7",
"x.	c #6DC4FF",
"y.	c #68C1FF",
"z.	c #63BEFF",
"A.	c #5EBBFF",
"B.	c #52AAEA",
"C.	c #0D1318",
"D.	c #B6B6B6",
"E.	c #2E4E63",
"F.	c #6DC3FF",
"G.	c #67C1FF",
"H.	c #62BEFF",
"I.	c #5DBBFF",
"J.	c #58B8FF",
"K.	c #234C6A",
"L.	c #18191A",
"M.	c #579DCE",
"N.	c #67C0FF",
"O.	c #62BDFF",
"P.	c #57B8FF",
"Q.	c #4596D3",
"R.	c #161719",
"S.	c #858585",
"T.	c #193040",
"U.	c #61BDFE",
"V.	c #5CBAFF",
"W.	c #52B5FF",
"X.	c #163146",
"Y.	c #3D7EAC",
"Z.	c #56B7FF",
"`.	c #51B4FF",
" +	c #367DB3",
".+	c #292929",
"++	c #0D1A24",
"@+	c #4EAFF7",
"#+	c #4AADF9",
"$+	c #0C1C28",
"%+	c #285E88",
"&+	c #28628F",
"*+	c #0C1116",
"=+	c #0B1217",
"-+	c #676767",
";+	c #626262",
"                                                ",
". +                                         @ # ",
"$ % & * = +                         @ - ; > % , ",
"  ' ) ! ~ { > * = +         @ ] ; ^ / ( _ : <   ",
"  [ } | 1 2 3 4 5 6 > * ; 7 8 9 0 a b c d e f   ",
"    ; g 2 h i j k l m n o p q r s t u v w x     ",
"    y z A i j B C D E F G H I J K u v L M N     ",
"      O P Q R S T E F G U V W X Y Z `  ...      ",
"        +.@.#.$.%.&.*.U =.W X -.;.>.,.'.        ",
"        ).!.~.{.].^./.(._.:.-.;.<.[.}.|.        ",
"          1.2.].^.3.4.5.6.7.8.9.0.a.<           ",
"          b.c.d.e.f.g.6.7.h.i.j.k.l.m.          ",
"            ; n.s b c o.h.p.q.r.s.t.            ",
"            u.v.w.u v x.y.z.A.B.C.D.            ",
"              O E.v F.G.H.I.J.K...              ",
"                L.M.N.O.I.P.Q.R.                ",
"                S.T.U.V.P.W.X.|.                ",
"                  1.Y.Z.`. +.+                  ",
"                  b.++@+#+$+m.                  ",
"                    * %+&+t.                    ",
"                    u.*+=+D.                    ",
"                      -+;+                      ",
"                                                ",
"                                                "};
