/* XPM */
static char * icon32_off_xpm[] = {
"32 32 49 1",
" 	c None",
".	c #000000",
"+	c #E05D5E",
"@	c #ED6A6B",
"#	c #575757",
"$	c #424242",
"%	c #2B2B2B",
"&	c #AB3C3D",
"*	c #CD4E4E",
"=	c #F77778",
"-	c #8D8D8D",
";	c #DB5859",
">	c #F97879",
",	c #F1F1F1",
"'	c #E5E5E5",
")	c #E0E0E0",
"!	c #A0A0A0",
"~	c #E76364",
"{	c #D9D9D9",
"]	c #C6C6C6",
"^	c #7B2A2A",
"/	c #D25152",
"(	c #F27071",
"_	c #A3A3A3",
":	c #CDCDCD",
"<	c #E58E8E",
"[	c #CACACA",
"}	c #DF5C5C",
"|	c #737373",
"1	c #C94B4C",
"2	c #BDBDBD",
"3	c #B1B1B1",
"4	c #C24748",
"5	c #D45354",
"6	c #ACACAC",
"7	c #9C3637",
"8	c #696969",
"9	c #545454",
"0	c #A5A5A5",
"a	c #868686",
"b	c #BB7A7A",
"c	c #F27172",
"d	c #E56162",
"e	c #BBBBBB",
"f	c #CA6C6C",
"g	c #DA5B5C",
"h	c #9C9090",
"i	c #6B6B6B",
"j	c #3F3535",
"................................",
".+@##$####$##$##$##$###$$$$%.&*.",
".@=-.........................+;.",
".@=>..,,,,,,,,,,,,,,,'''))!.;~;.",
".@===..,,,,,,,,,,,,'''){{].^~~/.",
".@===(._,,,,,,,,''')){{{:..<~~/.",
".@====+.[,,,,,''')){{{::..+~~}/.",
".@=>==>-.',,''')){{:::]|.+~~~}1.",
".@======..''))){{::::2_.*~~~}}1.",
".@======(..){{::::]223.^~~~}}}4.",
".@=@++(==@.!{:::]2223..~~~}}}54.",
".@=#...(==+.6:222233..+~~}}}}57.",
".@=#8,..===8.2223339.;~~~}}5554.",
".@=.8,,..===..3300a.&~~}}}}5557.",
".@=#8,,'.8==(......%~~~}}}55557.",
".@=#8,''].b=cd.....~~~}}}555447.",
".@=#.)){)|.=-......%~}}}5555447.",
".@=..:::]|.c$.eeee..~}}55554447.",
".@=#.3___..c9.,,,,..}}}55544447.",
".@=#.......c9.,,,'..}5555444447.",
".@======cccc%#,,')..}5555444447.",
".@=====c=cc@%.,,')..55544444447.",
".@=====ccc@@%#,'){..55544444447.",
".@====ccc@@@%.'){:..55444444447.",
".@===ccc@@@~%.'{:]..54444444447.",
".@==ccc@@@~~%.{{]]..44444444447.",
".@==cc@@@@~~%.{:]3..44444444447.",
".@cccc@@@~~}..:]23..44444444447.",
".@ccc@@@~~~~..]230..44444444447.",
".dcc@@@~~~}}........44444444447.",
".fdd+gggbbhhi......j7777777777j.",
"................................"};
