/* XPM */
static char * icon32_xpm[] = {
"32 32 64 1",
" 	c #040304",
".	c #A6B1A2",
"+	c #D5D6B4",
"@	c #68695E",
"#	c #676752",
"$	c #71683D",
"%	c #595539",
"&	c #978951",
"*	c #B9A75F",
"=	c #FCFCD1",
"-	c #8F8B74",
";	c #263742",
">	c #4C5654",
",	c #485B5F",
"'	c #3C4E54",
")	c #131618",
"!	c #DCC974",
"~	c #D4BF6A",
"{	c #D8FCFC",
"]	c #31312B",
"^	c #B9ECFB",
"/	c #ACE2FC",
"(	c #6C98B4",
"_	c #FCE171",
":	c #9ADCFC",
"<	c #8CC0DC",
"[	c #7C7448",
"}	c #D4BA51",
"|	c #E4E2C4",
"1	c #90988C",
"2	c #7DCCFC",
"3	c #19272E",
"4	c #FCEA91",
"5	c #ACC6C4",
"6	c #254A65",
"7	c #FCD951",
"8	c #6CC2FC",
"9	c #497797",
"0	c #D4B63C",
"a	c #5BBBFC",
"b	c #4C9ED8",
"c	c #45ACFA",
"d	c #D4B130",
"e	c #44422C",
"f	c #FCD030",
"g	c #5CA8D8",
"h	c #115384",
"i	c #D4A606",
"j	c #667067",
"k	c #28689C",
"l	c #43473C",
"m	c #2CA2FC",
"n	c #1C86DC",
"o	c #24251D",
"p	c #103E60",
"q	c #FCF2B0",
"r	c #D2C990",
"s	c #FCC408",
"t	c #746527",
"u	c #6C5A13",
"v	c #B4AE7C",
"w	c #AC8E2C",
"x	c #84680C",
"y	c #B08604",
"                                ",
" .+@@#@@@@#@@#@@#@@#@@@####$%&* ",
" +=- ;>>>>,>>,>>,>>,>>>'>''))!~ ",
" +={>]{{{{{{{{{{{{{{{^^^//( ~_~ ",
" +===],{{{{{{{{{{{{^^^/::<)[__} ",
" +===|)1{{{{{{{{^^^//:::23%4__} ",
" +====. 5{{{{{^^^//:::226]!__7} ",
" +={=={-)^{{^^^//::22289 !___70 ",
" +======>;^^///::2222ab *___770 ",
" +======|],/::22228aac)[___777d ",
" +=+..|==+ (:2228aaac;e___777fd ",
" +=@ ))|==. g2aaaacch)!__7777fi ",
" +=@j{>]===j)aaaccck ~___77fffd ",
" +=,j{{]%===l;ccmmn &__7777fffi ",
" +=@j{{^oj==|)phhh)$___777ffffi ",
" +=@j{^^< 1=qrllel%___777fffssi ",
" +=@,//:/9]=-3]3]3o$_777ffffssi ",
" +=,,22289]q#l....'t_77ffffsssi ",
" +=@6cbbbh]q[,{{{{,t777fffssssi ",
" +=@      ]q[,{{{^,%7ffffsssssi ",
" +======qqqq$@{{^/,u7ffffsssssi ",
" +=====q=qq4$,{{^/,tfffsssssssi ",
" +=====qqq44$@{^/:6ufffsssssssi ",
" +====qqq444$,^/:26uffssssssssi ",
" +===qqq444_$,^:286ufsssssssssi ",
" +==qqq444__$>::886ussssssssssi ",
" +==qq4444__$6:28cpussssssssssi ",
" +qqqq444__7t,28acpussssssssssi ",
" +qqq444____t'8acmpussssssssssi ",
" rqq444___77t)333))ussssssssssi ",
" vrr!~~~}}00wxxxxxxyiiiiiiiiiiy ",
"                                "};
